<?xml version="1.0" encoding="UTF-8"?>
<svg data-bbox="0 0 16 16" xmlns="http://www.w3.org/2000/svg" viewBox="0 0 16 16" data-type="color">
    <g>
        <path fill-rule="evenodd" fill="#505050" d="M16 0v16H0V0h16zM4.88 4.187c-1.312 0-2.112.853-2.112 1.941 0 .992.8 1.472 1.6 1.952l.235.139c.65.394 1.333.661 1.333 1.365 0 .683-.608 1.173-1.333 1.173-.715 0-1.184-.16-1.728-.49l-.128.842c.554.256 1.12.374 1.898.374 1.088 0 2.23-.672 2.23-2.006 0-.82-.59-1.273-1.272-1.691l-.488-.293c-.672-.405-1.387-.682-1.387-1.429 0-.555.405-1.163 1.205-1.163.694 0 1.174.107 1.782.47l.053-.843c-.565-.235-.97-.341-1.888-.341zm6.667 0c-2.07 0-3.638 1.61-3.638 3.658 0 2.336 1.867 3.616 3.606 3.616.874 0 1.6-.117 2.176-.405l-.064-.81c-.651.351-1.344.49-2.038.49-1.514 0-2.72-1.27-2.72-2.955 0-1.781 1.184-2.88 2.571-2.88.875 0 1.547.139 2.187.491l.064-.8c-.587-.277-1.067-.405-2.144-.405z" data-color="1"/>
    </g>
</svg>
