<?xml version="1.0" encoding="utf-8"?>
<!-- Generator: Adobe Illustrator 28.2.0, SVG Export Plug-In . SVG Version: 6.00 Build 0)  -->
<svg version="1.1" id="Vrstva_1" xmlns="http://www.w3.org/2000/svg" xmlns:xlink="http://www.w3.org/1999/xlink" x="0px" y="0px"
	 viewBox="0 0 654 467.7" style="enable-background:new 0 0 654 467.7;" xml:space="preserve">
<style type="text/css">
	.st0{fill:#008691;}
	.st1{fill:#EB5D81;}
</style>
<g>
	<path class="st0" d="M623.4,225c0-92.9-75.6-168.5-168.5-168.5c-92.9,0-168.5,75.6-168.5,168.5l0.1,0.6l-0.1,0.9
		c-0.7,52.5-38.6,98-90.1,108.3c-7.3,1.4-12.5,7.9-12.5,15.3v25.6c0,4.6,2,9,5.6,12c3.5,2.9,8,4.2,12.4,3.5
		C283.6,377.9,342.9,308,342.9,225c0-61.8,50.2-112,112-112c61.8,0,112,50.2,112,112s-50.2,112-112,112c-15.6,0-28.2,12.7-28.2,28.2
		c0,15.6,12.7,28.2,28.2,28.2C547.8,393.5,623.4,317.9,623.4,225L623.4,225z M622.5,225c0,92.4-75.2,167.6-167.6,167.6
		c-15.1,0-27.3-12.3-27.3-27.3c0-15.1,12.2-27.3,27.3-27.3c62.3,0,112.9-50.7,112.9-112.9c0-62.3-50.7-112.9-112.9-112.9
		C392.7,112.1,342,162.8,342,225c0,82.5-59,152-140.4,165.3c-4.2,0.7-8.4-0.5-11.7-3.3c-3.3-2.8-5.2-6.9-5.2-11.3v-25.6
		c0-7,5-13,11.8-14.4c51.9-10.3,90.1-56.2,90.8-109.1l0.1-0.9l-0.1-0.7c0-92.4,75.2-167.6,167.6-167.6
		C547.3,57.5,622.5,132.7,622.5,225L622.5,225z M269.6,117.9c4.9-4.9,7.3-11.7,6.6-18.6c-0.7-6.8-4.4-12.8-10.1-16.5
		c-27.4-17.7-59.1-27.1-91.7-27.1c-32.6,0-64.3,9.4-91.7,27.1c-5.7,3.7-9.4,9.7-10.1,16.5c-0.7,6.9,1.7,13.7,6.6,18.6l9.1,9.1
		c4.3,4.3,10,6.7,16.1,6.7c4.2,0,8.2-1.2,11.8-3.4c17.5-10.8,37.6-16.5,58.2-16.5c20.5,0,40.6,5.7,58.1,16.5
		c8.9,5.5,20.4,4.1,27.9-3.4L269.6,117.9L269.6,117.9z M269,117.2l-9.1,9.1c-7.2,7.2-18.2,8.5-26.8,3.2
		c-17.6-10.9-37.9-16.6-58.6-16.6c-20.7,0-41,5.8-58.6,16.7c-3.4,2.1-7.3,3.2-11.3,3.2c-5.8,0-11.3-2.3-15.4-6.4l-9.1-9.1
		c-4.7-4.7-7-11.2-6.3-17.9c0.7-6.5,4.2-12.3,9.7-15.8c27.2-17.6,58.8-26.9,91.2-26.9c32.4,0,63.9,9.3,91.2,26.9
		c5.4,3.5,9,9.3,9.7,15.8C276,106,273.7,112.5,269,117.2L269,117.2z M75.8,139.7l-9.1-9.2c-4.7-4.7-11.3-7.1-17.9-6.3
		c-6.5,0.7-12.3,4.2-15.8,9.7C15.3,161.1,6,192.6,6,225c0,78.8,55.9,148,132.9,164.6c1.5,0.3,3,0.5,4.5,0.5c4.9,0,9.6-1.7,13.5-4.8
		c5.2-4.2,8.2-10.5,8.2-17.2v-12.8c0-10.1-6.9-19.1-16.4-21.4l0,0c-50.8-12-86.2-56.8-86.2-109c0-20.7,5.7-40.9,16.6-58.5
		C84.4,157.9,83,146.9,75.8,139.7L75.8,139.7z M75.2,140.3c6.9,6.9,8.2,17.5,3.1,25.7c-11,17.7-16.8,38.1-16.8,59
		c0,52.6,35.7,97.8,86.9,109.9h0c9.1,2.2,15.7,10.8,15.7,20.5v12.8c0,6.4-2.9,12.4-7.9,16.5c-4.8,3.9-11.2,5.5-17.2,4.1
		C62.5,372.3,6.9,303.4,6.9,225c0-32.3,9.2-63.6,26.7-90.7c3.4-5.2,8.9-8.6,15.2-9.3c0.8-0.1,1.5-0.1,2.3-0.1c5.6,0,11,2.2,15,6.2
		L75.2,140.3L75.2,140.3z"/>
	<path class="st1" d="M644.4,243.2c0-92.9-75.6-168.5-168.5-168.5c-92.9,0-168.5,75.6-168.5,168.5l0.1,0.6l-0.1,0.9
		c-0.7,52.5-38.6,98-90.1,108.3c-7.3,1.4-12.5,7.9-12.5,15.3v25.6c0,4.6,2,9,5.6,12c3.5,2.9,8,4.2,12.4,3.5
		C304.6,396,364,326.1,364,243.2c0-61.8,50.2-112,112-112s112,50.2,112,112c0,61.8-50.2,112-112,112c-15.6,0-28.2,12.7-28.2,28.2
		c0,15.6,12.7,28.2,28.2,28.2C568.9,411.7,644.4,336.1,644.4,243.2L644.4,243.2z M643.5,243.2c0,92.4-75.2,167.6-167.6,167.6
		c-15.1,0-27.3-12.3-27.3-27.3c0-15.1,12.3-27.3,27.3-27.3c62.3,0,112.9-50.7,112.9-112.9c0-62.3-50.7-112.9-112.9-112.9
		c-62.3,0-112.9,50.6-112.9,112.9c0,82.5-59.1,152-140.4,165.3c-4.2,0.7-8.4-0.5-11.7-3.3c-3.3-2.8-5.2-6.9-5.2-11.3v-25.6
		c0-7,5-13,11.8-14.4c51.9-10.3,90.1-56.2,90.8-109.1l0.1-0.9l-0.1-0.7c0-92.4,75.2-167.6,167.6-167.6
		C568.4,75.6,643.5,150.8,643.5,243.2L643.5,243.2z M290.6,136c4.9-4.9,7.3-11.7,6.6-18.6c-0.7-6.8-4.4-12.8-10.1-16.5
		c-27.4-17.7-59.1-27.1-91.7-27.1c-32.6,0-64.3,9.4-91.7,27.1c-5.7,3.7-9.4,9.7-10.1,16.5c-0.7,6.9,1.7,13.7,6.6,18.6l9.1,9.1
		c4.3,4.3,10,6.7,16.1,6.7c4.2,0,8.2-1.2,11.8-3.4c17.5-10.8,37.6-16.5,58.2-16.5c20.5,0,40.6,5.7,58.1,16.5
		c8.9,5.5,20.4,4.1,27.9-3.4L290.6,136L290.6,136z M290,135.4l-9.1,9.1c-7.2,7.2-18.2,8.5-26.8,3.2c-17.6-10.9-37.9-16.6-58.6-16.6
		c-20.7,0-41,5.8-58.6,16.7c-3.4,2.1-7.3,3.2-11.3,3.2c-5.8,0-11.3-2.3-15.4-6.4l-9.1-9.1c-4.7-4.7-7-11.2-6.3-17.9
		c0.7-6.5,4.2-12.3,9.7-15.8c27.2-17.6,58.8-26.9,91.2-26.9c32.4,0,63.9,9.3,91.2,26.9c5.4,3.5,9,9.3,9.7,15.8
		C297,124.1,294.7,130.7,290,135.4L290,135.4z M96.8,157.8l-9.1-9.1c-4.7-4.7-11.3-7.1-18-6.3c-6.5,0.7-12.3,4.2-15.8,9.7
		C36.3,179.2,27,210.8,27,243.2c0,78.8,55.9,148,132.9,164.6c1.5,0.3,3,0.5,4.5,0.5c4.9,0,9.6-1.7,13.5-4.8
		c5.2-4.2,8.2-10.5,8.2-17.2v-12.8c0-10.1-6.9-19.1-16.4-21.4c-50.8-12-86.2-56.8-86.2-109c0-20.7,5.7-40.9,16.6-58.5
		C105.4,176.1,104.1,165,96.8,157.8L96.8,157.8z M96.2,158.5c6.9,6.9,8.2,17.5,3.1,25.7c-11,17.7-16.8,38.1-16.8,59
		c0,52.6,35.7,97.8,86.9,109.9l0,0c9.1,2.1,15.7,10.8,15.7,20.5v12.8c0,6.4-2.9,12.4-7.9,16.5c-4.8,3.9-11.1,5.5-17.2,4.1
		C83.5,390.4,27.9,321.5,27.9,243.2c0-32.3,9.2-63.6,26.7-90.7c3.4-5.2,8.9-8.6,15.2-9.3c0.8-0.1,1.5-0.1,2.3-0.1
		c5.6,0,11,2.2,15,6.2L96.2,158.5L96.2,158.5z"/>
</g>
</svg>
