<?xml version="1.0" encoding="UTF-8" standalone="no"?>
<svg
   xmlns:dc="http://purl.org/dc/elements/1.1/"
   xmlns:cc="http://creativecommons.org/ns#"
   xmlns:rdf="http://www.w3.org/1999/02/22-rdf-syntax-ns#"
   xmlns:svg="http://www.w3.org/2000/svg"
   xmlns="http://www.w3.org/2000/svg"
   xmlns:xlink="http://www.w3.org/1999/xlink"
   version="1.1"
   id="svg28"
   width="132.39172"
   height="70.37513">
  <metadata
     id="metadata33">
    <rdf:RDF>
      <cc:Work
         rdf:about="">
        <dc:format>image/svg+xml</dc:format>
        <dc:type
           rdf:resource="http://purl.org/dc/dcmitype/StillImage" />
        <dc:title></dc:title>
      </cc:Work>
    </rdf:RDF>
  </metadata>
  <defs
     id="defs31">
    <symbol
       id="symbol92">
      <g
         id="arrow-down_transform-7">
        <path
           d="M 0.13705683,19.543561 C 0.708071,19.001723 2.2119777,17.468797 6.5788558,13.101919 L 13.280458,6.4003177 19.931106,13.04122 c 3.657857,3.652497 6.650647,6.75218 6.650647,6.888185 0,0.136006 -0.131352,0.378642 -0.291911,0.539192 -0.160564,0.160549 -3.152601,-2.564321 -6.649007,-6.055267 L 13.283733,8.0661537 6.8954562,14.444459 C 2.6041723,18.729041 1.0031171,19.76489 0.45847404,20.159848 0.26213587,20.157742 0.01187279,19.771924 0.13705683,19.543561 Z"
           id="path77-9" />
      </g>
    </symbol>
    <symbol
       id="arrow-down"
       viewBox="-1 -1 30 30">
      <g
         id="g103">
        <path
           d="M 0.13705683,7.3320999 C 0.708071,7.8739379 2.2119777,9.4068639 6.5788558,13.773742 l 6.7016022,6.701601 6.650648,-6.640902 c 3.657857,-3.652497 6.650647,-6.7521801 6.650647,-6.8881851 0,-0.136006 -0.131352,-0.378642 -0.291911,-0.539192 -0.160564,-0.160549 -3.152601,2.564321 -6.649007,6.0552671 L 13.283733,18.809507 6.8954562,12.431202 C 2.6041723,8.1466199 1.0031171,7.1107709 0.45847404,6.7158129 0.26213587,6.7179189 0.01187279,7.1037369 0.13705683,7.3320999 Z"
           id="path101" />
      </g>
    </symbol>
  </defs>
  <symbol
     id="arrow-right"
     viewBox="-1 -1 30 30">
    <path
       d="m 7.2368496,0.2323073 c 0.541838,0.57101417 2.074764,2.0749209 6.4416424,6.441799 l 6.701601,6.7016017 -6.640902,6.650648 c -3.652497,3.657857 -6.7521802,6.650647 -6.8881852,6.650647 -0.136006,0 -0.3786422,-0.131352 -0.5391923,-0.291911 -0.1605489,-0.160564 2.5643208,-3.152601 6.0552675,-6.649007 L 18.714257,13.378983 12.335952,6.9907067 C 8.0513695,2.6994228 7.0155206,1.0983676 6.6205624,0.55372451 6.6226687,0.35738634 7.0084871,0.10712326 7.2368496,0.2323073 Z"
       id="path19" />
  </symbol>
  <symbol
     id="arrow-up"
     viewBox="-1 -1 30 30">
    <path
       d="M 0.13705683,19.543561 C 0.708071,19.001723 2.2119777,17.468797 6.5788558,13.101919 L 13.280458,6.4003177 19.931106,13.04122 c 3.657857,3.652497 6.650647,6.75218 6.650647,6.888185 0,0.136006 -0.131352,0.378642 -0.291911,0.539192 -0.160564,0.160549 -3.152601,-2.564321 -6.649007,-6.055267 L 13.283733,8.0661537 6.8954562,14.444459 C 2.6041723,18.729041 1.0031171,19.76489 0.45847404,20.159848 0.26213587,20.157742 0.01187279,19.771924 0.13705683,19.543561 Z"
       id="path22" />
  </symbol>
  <symbol
     id="cancel"
     viewBox="-.5 -.5 7 7">
    <path
       d="m 0.0078333,6.2668484 c 0,-0.040351 0.68143212,-0.7558654 1.5142936,-1.5900287 L 3.0364206,3.1601579 1.5020219,1.6233601 C 0.65810263,0.77812095 6.24273e-4,0.05356077 0.04095892,0.01322631 0.08129352,-0.02710861 0.80585371,0.63036987 1.6510928,1.4742892 L 3.1878906,3.0086879 4.7246886,1.4742892 C 5.5699277,0.63036987 6.2944878,-0.02710861 6.3348223,0.01322631 6.3751556,0.05356078 5.7176789,0.77812095 4.8737595,1.6233601 L 3.3393606,3.1601579 4.8737595,4.6969556 C 5.7176789,5.5421947 6.3751574,6.2667548 6.3348223,6.3070898 6.2944891,6.347423 5.5699277,5.6899459 4.7246886,4.8460265 L 3.1878906,3.3116283 1.6712292,4.8259218 C 0.25545458,6.2394859 0.0078333,6.4539894 0.0078333,6.2668484 Z"
       id="path25" />
  </symbol>
  <use
     xlink:href="#arrow-down"
     id="use111"
     transform="translate(73.642064,6.2568061)" />
</svg>
