<svg width="1726" height="694" viewBox="0 0 1726 694" fill="none" xmlns="http://www.w3.org/2000/svg">
<path d="M2043.26 484.36L1654.37 174.35L1598.72 188.26L1212.28 319.26L1065.53 284.41L867.41 240.39L799.54 409.15L788.53 436.67L861.91 539.39L639.95 724.67" stroke="#9A9A9A" stroke-opacity="0.32" stroke-miterlimit="10"/>
<path d="M2031.33 511.88L1762.6 574.25L1654.37 174.35" stroke="#9A9A9A" stroke-opacity="0.32" stroke-miterlimit="10"/>
<path d="M1862.57 666.88L1762.6 574.25L1599.33 189.02L1596.58 556.82L1507.62 687.98" stroke="#9A9A9A" stroke-opacity="0.32" stroke-miterlimit="10"/>
<path d="M1767.18 658.63L1660.79 595.34L1625.93 684.31" stroke="#9A9A9A" stroke-opacity="0.32" stroke-miterlimit="10"/>
<path d="M1577.32 665.97L1660.79 595.34L1762.6 574.25L1596.58 556.82L1660.79 595.34" stroke="#9A9A9A" stroke-opacity="0.32" stroke-miterlimit="10"/>
<path d="M1485.6 678.81L1441.58 584.33L1463.59 709.99" stroke="#9A9A9A" stroke-opacity="0.32" stroke-miterlimit="10"/>
<path d="M1174.67 665.97L1303.08 568.74L1441.58 584.33L1596.58 556.82L1354.44 498.12L1228.79 512.79L1212.51 322L1212.28 319.26L1354.44 498.12L1444.33 588" stroke="#9A9A9A" stroke-opacity="0.32" stroke-miterlimit="10"/>
<path d="M1350.77 662.3C1345.27 658.63 1303.08 568.75 1303.08 568.75L1228.79 512.8L1111.39 691.65" stroke="#9A9A9A" stroke-opacity="0.32" stroke-miterlimit="10"/>
<path d="M1228.79 512.79L1112.3 485.28L1085.7 674.22" stroke="#9A9A9A" stroke-opacity="0.32" stroke-miterlimit="10"/>
<path d="M1032.51 669.63L942.62 484.36L861.91 539.39L981.14 655.88" stroke="#9A9A9A" stroke-opacity="0.32" stroke-miterlimit="10"/>
<path d="M894.93 699.9L861.91 539.39L807.79 520.13L643.62 433L462.93 378.88L351.03 401.81L224.46 478.86L96.9702 543.06L-136 668.72" stroke="#9A9A9A" stroke-opacity="0.32" stroke-miterlimit="10"/>
<path d="M675.72 666.88L643.62 433L576.66 466.93L351.95 663.21L270.32 598.09L157.5 584.33L71.2802 664.13" stroke="#9A9A9A" stroke-opacity="0.32" stroke-miterlimit="10"/>
<path d="M665.63 674.22L576.66 466.93L462.93 378.88L362.95 322.02L159.33 297.25L229.96 481.61L270.32 598.09L268.48 691.65" stroke="#9A9A9A" stroke-opacity="0.32" stroke-miterlimit="10"/>
<path d="M-37.8595 501.79L96.9705 543.06L157.5 584.33" stroke="#9A9A9A" stroke-opacity="0.32" stroke-miterlimit="10"/>
<path d="M576.66 466.93L351.03 401.81L196.94 393.56L96.9702 543.06L56.6102 708.16" stroke="#9A9A9A" stroke-opacity="0.32" stroke-miterlimit="10"/>
<path d="M427.16 701.74L351.03 401.81L362.95 322.02" stroke="#9A9A9A" stroke-opacity="0.32" stroke-miterlimit="10"/>
<path d="M461.09 663.21L228.12 477.94L157.5 584.33L217.12 661.38" stroke="#9A9A9A" stroke-opacity="0.32" stroke-miterlimit="10"/>
<path d="M405.14 616.44L270.32 598.09L300.58 685.23" stroke="#9A9A9A" stroke-opacity="0.32" stroke-miterlimit="10"/>
<path d="M159.33 297.25L351.03 401.81" stroke="#9A9A9A" stroke-opacity="0.32" stroke-miterlimit="10"/>
<path d="M867.41 240.39L932.53 189.94L938.04 96.39L1147.16 174.35L1065.53 284.41L942.62 484.36L1112.3 485.28L1212.28 319.26L1335.18 55.11L1147.16 174.35" stroke="#9A9A9A" stroke-opacity="0.32" stroke-miterlimit="10"/>
<path d="M1112.3 490.78L1065.53 284.41L938.04 96.3901L867.41 240.39L942.62 484.36L788.53 436.67L807.79 520.13L691.31 665.05" stroke="#9A9A9A" stroke-opacity="0.32" stroke-miterlimit="10"/>
<path d="M1599.33 189.02L1335.18 55.1101L1300.33 1.00016L1147.16 174.35L936.2 189.94L1065.53 284.41L1599.33 189.02ZM1599.33 189.02L1354.44 498.12L1303.08 568.74L1399.39 662.3" stroke="#9A9A9A" stroke-opacity="0.32" stroke-miterlimit="10"/>
<path d="M1147.16 174.35L1212.51 322" stroke="#9A9A9A" stroke-opacity="0.32" stroke-miterlimit="10"/>
</svg>
