<svg width="1542" height="475" viewBox="0 0 1542 475" fill="none" xmlns="http://www.w3.org/2000/svg">
<path d="M-638 -9.69L-249.11 300.32L-193.46 286.41L192.98 155.41L339.73 190.26L537.85 234.28L605.72 65.52L616.73 38L543.35 -64.72L765.31 -250" stroke="#9A9A9A" stroke-opacity="0.32" stroke-miterlimit="10"/>
<path d="M230.59 -191.3L102.18 -94.07L-36.3201 -109.66L-191.32 -82.15L50.8199 -23.45L176.47 -38.12L192.75 152.67L192.98 155.41L50.8199 -23.45L-39.0701 -113.33" stroke="#9A9A9A" stroke-opacity="0.32" stroke-miterlimit="10"/>
<path d="M510.33 -225.23L543.35 -64.72L597.47 -45.46L761.64 41.67L942.33 95.79L1054.23 72.86L1180.8 -4.19L1308.29 -68.39L1541.26 -194.05" stroke="#9A9A9A" stroke-opacity="0.32" stroke-miterlimit="10"/>
<path d="M729.54 -192.21L761.64 41.67L828.6 7.73997L1053.31 -188.54L1134.94 -123.42L1247.76 -109.66L1333.98 -189.46" stroke="#9A9A9A" stroke-opacity="0.32" stroke-miterlimit="10"/>
<path d="M739.63 -199.55L828.6 7.73999L942.33 95.79L1042.31 152.65L1245.93 177.42L1175.3 -6.94L1134.94 -123.42L1136.78 -216.98" stroke="#9A9A9A" stroke-opacity="0.32" stroke-miterlimit="10"/>
<path d="M828.6 7.73999L1054.23 72.86L1208.32 81.11L1308.29 -68.39L1348.65 -233.49" stroke="#9A9A9A" stroke-opacity="0.32" stroke-miterlimit="10"/>
<path d="M978.1 -227.07L1054.23 72.86L1042.31 152.65" stroke="#9A9A9A" stroke-opacity="0.32" stroke-miterlimit="10"/>
<path d="M1245.93 177.42L1054.23 72.86" stroke="#9A9A9A" stroke-opacity="0.32" stroke-miterlimit="10"/>
<path d="M537.85 234.28L472.73 284.73L467.22 378.28L258.1 300.32L339.73 190.26L462.64 -9.68999L292.96 -10.61L192.98 155.41L70.0801 419.56L258.1 300.32" stroke="#9A9A9A" stroke-opacity="0.32" stroke-miterlimit="10"/>
<path d="M292.96 -16.11L339.73 190.26L467.22 378.28L537.85 234.28L462.64 -9.69L616.73 38L597.47 -45.46L713.95 -190.38" stroke="#9A9A9A" stroke-opacity="0.32" stroke-miterlimit="10"/>
<path d="M-194.07 285.65L70.08 419.56L104.93 473.67L258.1 300.32L469.06 284.73L339.73 190.26L-194.07 285.65ZM-194.07 285.65L50.8199 -23.45L102.18 -94.07L5.86993 -187.63" stroke="#9A9A9A" stroke-opacity="0.32" stroke-miterlimit="10"/>
<path d="M258.1 300.32L192.75 152.67" stroke="#9A9A9A" stroke-opacity="0.32" stroke-miterlimit="10"/>
</svg>
