<svg id="Vrstva_1" data-name="Vrstva 1" xmlns="http://www.w3.org/2000/svg" viewBox="0 0 2287.52 1309.17"><defs><style>.cls-1{fill:#302658;}</style></defs><path class="cls-1" d="M1791.67,932.3a30.72,30.72,0,0,1-14.16,3.15,34.76,34.76,0,0,1-13.87-2.66,30.53,30.53,0,0,1-10.58-7.5,33.34,33.34,0,0,1-6.8-11.56,44.24,44.24,0,0,1-2.38-14.86,40.64,40.64,0,0,1,2.45-14.3,34.38,34.38,0,0,1,7-11.49,32.92,32.92,0,0,1,10.86-7.7,34.26,34.26,0,0,1,26.35-.35,22.6,22.6,0,0,1,10.23,7.77l13.46-10.65a29,29,0,0,0-7.15-6.73,49,49,0,0,0-9-4.69,51,51,0,0,0-10-2.8,57.14,57.14,0,0,0-9.94-.91,60.7,60.7,0,0,0-21.31,3.64,50.48,50.48,0,0,0-17,10.37,48,48,0,0,0-11.35,16.33,54,54,0,0,0-4.14,21.51,55.6,55.6,0,0,0,3.93,21.24A48.31,48.31,0,0,0,1756,947.43a57.57,57.57,0,0,0,21.37,3.86q12.77,0,22.29-4.56a45.41,45.41,0,0,0,16.12-12.82L1801.62,924A27.6,27.6,0,0,1,1791.67,932.3Z"/><polygon class="cls-1" points="1927.9 865.51 1927.9 849.54 1853.76 849.54 1853.76 864.95 1906.88 864.95 1852.92 932.79 1852.92 948.77 1928.74 948.77 1928.74 933.07 1873.66 933.07 1927.9 865.51"/><rect class="cls-1" x="938.62" y="575.7" width="47.17" height="194.15"/><polygon class="cls-1" points="1199.13 702.39 1198.3 702.39 1120.43 575.7 1066.95 575.7 1066.95 769.85 1112.47 769.85 1111.38 642.89 1112.2 642.89 1190.35 769.85 1243.55 769.85 1243.55 575.7 1198.03 575.7 1199.13 702.39"/><polygon class="cls-1" points="1324.72 769.85 1371.06 769.85 1371.06 694.44 1446.2 694.44 1446.2 655.77 1371.06 655.77 1371.06 615.74 1452.5 615.74 1452.5 575.7 1324.72 575.7 1324.72 769.85"/><path class="cls-1" d="M1661.45,667.56q10.69-13.42,10.7-33.18,0-16.73-6.31-28A51,51,0,0,0,1649,588.32a71,71,0,0,0-23.86-9.74,128.56,128.56,0,0,0-27.28-2.88h-74V769.85h45.79V692.79h16l42.15,77.06h54.85l-50.73-83.09Q1650.76,681,1661.45,667.56Zm-38.82-20.29a21,21,0,0,1-8.12,7.13,37.78,37.78,0,0,1-11,3.43,75.87,75.87,0,0,1-11.85,1h-22.33V613.54h25.08a76.75,76.75,0,0,1,10.88.82,32.83,32.83,0,0,1,10.2,3.16,19.8,19.8,0,0,1,7.44,6.58q2.89,4.26,2.9,11.1Q1625.81,642.61,1622.63,647.27Z"/><path class="cls-1" d="M1788.14,731.73h75.14l15.07,38.12h52.11L1849.84,575.7h-45.52l-81.44,194.15h51Zm38.11-104.2,24.14,66.63h-48.81Z"/><path class="cls-1" d="M650.94,616.92a45.53,45.53,0,0,0-16.16,2.77A41,41,0,0,0,622,627.21a36.94,36.94,0,0,0-8.82,11.2,33.24,33.24,0,0,0-3.69,13.4H686.9a36.12,36.12,0,0,0-9-24.6Q668.91,616.91,650.94,616.92Z"/><path class="cls-1" d="M731.14,487.83a177.45,177.45,0,0,0-25,1.76c-20.27-75.76-89.49-131.71-171.54-131.71-97.91,0-177.55,79.65-177.55,177.55A177.58,177.58,0,0,0,441.91,686.8a176.42,176.42,0,0,0-20.62,83c0,97.9,79.65,177.56,177.55,177.56,72.86,0,135.6-44.12,162.93-107,83.36-14.57,146.92-87.44,146.92-174.9C908.69,567.47,829,487.83,731.14,487.83ZM614.05,703.2A39.06,39.06,0,0,0,624,714a48.4,48.4,0,0,0,29.18,9.72c9.56,0,17.6-1.76,24.23-5.31a48.06,48.06,0,0,0,16.17-13.77l41.85,26.45a85,85,0,0,1-34,28.8q-21.07,10.08-49,10.1a115.88,115.88,0,0,1-38.94-6.45,94.06,94.06,0,0,1-32.11-18.7,86.46,86.46,0,0,1-21.66-30.3q-7.94-18-7.9-41.12c0-14.91,2.6-28.45,7.72-40.53a91.57,91.57,0,0,1,20.92-30.87,93.56,93.56,0,0,1,31.22-19.63,106.78,106.78,0,0,1,38.91-7,98.7,98.7,0,0,1,37.08,6.8,81.06,81.06,0,0,1,29,19.63,91.39,91.39,0,0,1,18.91,31.22q6.78,18.36,6.8,41.85v7.34a61.82,61.82,0,0,1-.39,7H609.44A31.9,31.9,0,0,0,614.05,703.2Zm84.71-167.77c0,3.56-.13,7.11-.35,10.62a123.29,123.29,0,0,0-45.14,23.36A122.23,122.23,0,0,0,656.92,519a163.12,163.12,0,0,1,39-14A165.51,165.51,0,0,1,698.76,535.43Zm-328.3,0c0-90.51,73.62-164.16,164.15-164.16,75.47,0,139.2,51.22,158.31,120.71a175.91,175.91,0,0,0-38.59,13.33A123.44,123.44,0,1,0,474.43,643.2a178.27,178.27,0,0,0-25.81,32A164.2,164.2,0,0,1,370.46,535.43ZM545.61,658.36a123.89,123.89,0,0,0-45.67,37.53,162.49,162.49,0,0,1-39.63-14.1,165.49,165.49,0,0,1,27-32.34,123,123,0,0,0,47.33,9.41C538.31,658.86,542,658.68,545.61,658.36Zm53.23,275.55c-90.51,0-164.15-73.65-164.15-164.16a163.26,163.26,0,0,1,18.87-76.37,176.5,176.5,0,0,0,38.52,14.44,123.42,123.42,0,0,0,208.09,132.4,178.45,178.45,0,0,0,31,2.71q7.53,0,14.92-.64A164.33,164.33,0,0,1,598.84,933.91Zm153.4-105.74a161.63,161.63,0,0,1-21.1,1.36,164.07,164.07,0,0,1-23.39-1.67,122.41,122.41,0,0,0,13.07-39.13c3.53.3,7.1.49,10.72.49a124.41,124.41,0,0,0,30.71-3.86A163.13,163.13,0,0,1,752.24,828.17Zm15.19-2.69A176.32,176.32,0,0,0,776,781a124,124,0,0,0,77-91.72H771.16v-38h83.41a123.81,123.81,0,0,0-123-109.7A126,126,0,0,0,712,543.08c.11-2.53.18-5.09.18-7.65a179.34,179.34,0,0,0-3-32.73,164.71,164.71,0,0,1,22-1.47c90.5,0,164.15,73.64,164.15,164.15C895.29,743.43,840.54,808.91,767.43,825.48Z"/></svg>