<?xml version="1.0" encoding="utf-8"?>
<!-- Generator: Adobe Illustrator 28.2.0, SVG Export Plug-In . SVG Version: 6.00 Build 0)  -->
<svg version="1.1" id="Vrstva_1" xmlns="http://www.w3.org/2000/svg" xmlns:xlink="http://www.w3.org/1999/xlink" x="0px" y="0px"
	 viewBox="0 0 623.6 467.7" style="enable-background:new 0 0 623.6 467.7;" xml:space="preserve">
<style type="text/css">
	.st0{fill:#040305;}
	.st1{fill:#008691;}
	.st2{fill:#FF5D81;}
</style>
<g>
	<path class="st0" d="M379.7,223.8c1.1-1.1,2.4-1.9,3.8-2.5c1.4-0.5,2.9-0.8,4.3-0.8c1.8,0,3.5,0.4,5.1,1.2c1.6,0.8,3,1.9,4.1,3.3
		c1.1,1.4,1.8,3.1,1.9,5.1v0.6h-22.7c0.2-0.9,0.4-1.8,0.7-2.5C377.7,226.4,378.6,224.9,379.7,223.8L379.7,223.8z M404.2,234.9
		c0.6-0.5,0.9-1.1,0.9-1.9c0-2.7-0.6-5.2-1.5-7.4c-1-2.2-2.2-4-3.8-5.6c-1.6-1.6-3.4-2.8-5.5-3.6c-2.1-0.8-4.2-1.2-6.4-1.2
		c-3,0-5.8,0.8-8.5,2.3c-2.7,1.6-4.8,3.8-6.5,6.8c-1.7,3-2.5,6.5-2.5,10.7c0,3.8,0.8,7.1,2.4,9.9c1.6,2.9,3.8,5.1,6.7,6.8
		c2.9,1.6,6.3,2.5,10.2,2.5c2.6,0,5-0.6,7.3-1.7c2.3-1.1,4.1-2.4,5.5-3.9c0.8-0.7,1.2-1.4,1.2-2.2c0-0.7-0.2-1.3-0.7-1.7
		c-0.5-0.5-1.1-0.7-1.7-0.7c-0.6,0-1.3,0.2-1.9,0.6c-0.6,0.7-1.4,1.3-2.3,2c-0.9,0.6-2,1.2-3.2,1.6c-1.3,0.4-2.7,0.6-4.4,0.6
		c-2.7,0-5.1-0.6-7.1-1.8c-2-1.2-3.6-2.9-4.7-5c-1-1.8-1.5-3.9-1.7-6.3h26.3C403,235.7,403.6,235.4,404.2,234.9L404.2,234.9z"/>
	<path class="st0" d="M443.4,234.7c0-2.8-0.6-5.2-1.7-7.3c-1.1-2.1-2.7-3.8-4.6-5s-4.1-1.8-6.5-1.8c-2.5,0-4.7,0.6-6.6,1.8
		c-1.9,1.2-3.5,2.9-4.7,5c-1.2,2.1-1.7,4.5-1.7,7.3c0,2.7,0.6,5.2,1.7,7.3c1.2,2.1,2.7,3.8,4.7,5c1.9,1.2,4.2,1.8,6.6,1.8
		c2.4,0,4.6-0.6,6.5-1.8c2-1.2,3.5-2.9,4.6-5C442.8,239.8,443.4,237.4,443.4,234.7L443.4,234.7z M449.2,234.7c0,3.8-0.8,7.1-2.5,10
		c-1.7,2.9-3.9,5.2-6.7,6.9c-2.8,1.7-6,2.5-9.5,2.5c-3.5,0-6.7-0.8-9.5-2.5c-2.8-1.7-5.1-4-6.8-6.9c-1.7-2.9-2.5-6.3-2.5-10
		c0-3.8,0.8-7.1,2.5-10c1.7-2.9,3.9-5.2,6.8-6.9c2.8-1.7,6-2.5,9.5-2.5c3.5,0,6.7,0.8,9.5,2.5c2.8,1.7,5.1,4,6.7,6.9
		C448.4,227.6,449.2,230.9,449.2,234.7L449.2,234.7z"/>
	<path class="st0" d="M455.7,247.5c-0.4-0.6-0.6-1.3-0.5-2c0-0.7,0.4-1.3,1.2-1.8c0.5-0.3,1.1-0.5,1.8-0.4c0.6,0,1.2,0.4,1.8,0.9
		c1.3,1.6,2.9,2.9,4.6,3.8c1.7,0.9,3.9,1.4,6.4,1.4c1.1,0,2.2-0.2,3.4-0.6c1.2-0.3,2.2-0.9,3-1.8c0.8-0.8,1.2-2,1.2-3.4
		c0-1.3-0.4-2.4-1.2-3.2c-0.8-0.8-1.9-1.4-3.2-1.9c-1.3-0.5-2.7-1-4.2-1.3c-1.6-0.4-3.2-0.9-4.7-1.4c-1.5-0.5-2.9-1.2-4.2-2.1
		c-1.2-0.8-2.2-1.9-3-3.2c-0.7-1.3-1.1-2.9-1.1-4.7c0-2.2,0.6-4,1.8-5.6c1.2-1.6,2.8-2.8,4.7-3.7c2-0.9,4.2-1.3,6.6-1.3
		c1.3,0,2.8,0.2,4.2,0.5c1.5,0.3,2.9,0.8,4.3,1.6c1.4,0.7,2.6,1.8,3.7,3.1c0.4,0.5,0.7,1.1,0.7,1.8c0,0.7-0.3,1.4-0.9,2
		c-0.5,0.4-1.1,0.6-1.8,0.5c-0.7,0-1.2-0.3-1.6-0.7c-1.1-1.3-2.3-2.2-3.9-2.9c-1.5-0.6-3.2-1-5-1c-1.1,0-2.2,0.2-3.3,0.5
		c-1.1,0.4-2,0.9-2.8,1.7c-0.7,0.8-1.1,1.9-1.1,3.2c0,1.3,0.5,2.4,1.3,3.2c0.8,0.8,1.9,1.5,3.3,2c1.4,0.5,2.9,1,4.6,1.5
		c1.5,0.4,3,0.8,4.4,1.3c1.4,0.5,2.7,1.2,3.9,2c1.2,0.8,2.1,1.9,2.7,3.1c0.7,1.3,1,2.9,1,4.8c0,2.2-0.6,4.1-1.9,5.7
		c-1.3,1.6-2.9,2.8-4.9,3.7c-2,0.8-4.2,1.3-6.6,1.3c-2.6,0-5.3-0.5-7.9-1.5C459.8,251.7,457.6,250,455.7,247.5L455.7,247.5z"/>
	<path class="st0" d="M508.6,215.2c2.5,0,4.7,0.3,6.7,0.8c2,0.5,3.5,1.3,4.7,2.2c1.2,0.9,1.7,1.9,1.7,3.1c0,0.7-0.2,1.3-0.6,1.9
		c-0.4,0.6-1,0.9-1.8,0.9c-0.6,0-1.1-0.1-1.6-0.4c-0.4-0.3-0.8-0.6-1.2-0.9c-0.4-0.4-0.9-0.7-1.5-1c-0.6-0.3-1.4-0.5-2.5-0.8
		c-1.1-0.2-2.2-0.3-3.3-0.3c-2.6,0-5,0.6-7,1.9c-2,1.3-3.6,2.9-4.7,5.1c-1.2,2.1-1.7,4.5-1.7,7.2c0,2.7,0.6,5.1,1.7,7.2
		c1.1,2.1,2.6,3.8,4.6,5.1c2,1.3,4.3,1.9,6.9,1.9c1.7,0,3-0.1,4-0.4c1-0.3,1.8-0.6,2.6-1c0.8-0.5,1.5-1,1.9-1.4
		c0.5-0.5,1.1-0.7,1.9-0.7c0.8,0,1.5,0.3,1.9,0.8c0.5,0.5,0.7,1.2,0.7,1.9c0,0.9-0.6,1.9-1.8,2.8c-1.2,1-2.8,1.8-4.9,2.4
		c-2.1,0.6-4.4,1-6.9,1c-3.7,0-6.9-0.9-9.6-2.6c-2.7-1.7-4.9-4-6.4-7c-1.5-3-2.3-6.3-2.3-9.9c0-3.7,0.8-7,2.3-9.9
		c1.6-2.9,3.7-5.3,6.5-7C501.7,216,505,215.2,508.6,215.2L508.6,215.2z"/>
	<path class="st1" d="M317.5,218.3c-3.2-2-6.8-3.1-10.6-3.1c-3.8,0-7.4,1.1-10.6,3.1c-0.6,0.4-1.1,1.1-1.1,1.9
		c-0.1,0.8,0.2,1.6,0.7,2.1l1.1,1.1c0.5,0.5,1.2,0.8,1.8,0.8c0.5,0,0.9-0.1,1.3-0.4c2-1.3,4.4-1.9,6.8-1.9c2.4,0,4.7,0.7,6.8,1.9
		c1,0.6,2.3,0.5,3.2-0.4l1.1-1.1c0.6-0.6,0.8-1.3,0.7-2.1C318.6,219.4,318.2,218.7,317.5,218.3L317.5,218.3z"/>
	<path class="st2" d="M304,247.4c-5.9-1.4-10-6.6-10-12.7c0-2.4,0.7-4.8,1.9-6.8c0.6-1,0.5-2.2-0.4-3l-1.1-1.1
		c-0.5-0.5-1.3-0.8-2-0.7c-0.7,0.1-1.4,0.5-1.8,1.1c-2,3.1-3.1,6.8-3.1,10.5c0,9.1,6.5,17.1,15.4,19c0.2,0,0.3,0.1,0.5,0.1
		c0.5,0,1.1-0.2,1.5-0.5c0.6-0.5,0.9-1.2,0.9-1.9v-1.5C305.8,248.7,305,247.7,304,247.4L304,247.4z"/>
	<path class="st1" d="M339.4,215.3c-10.7,0-19.5,8.7-19.5,19.5l0,0.1l0,0.1c-0.1,6.1-4.5,11.4-10.5,12.6c-0.8,0.2-1.4,0.9-1.4,1.7v3
		c0,0.5,0.2,1,0.6,1.3c0.4,0.3,0.9,0.5,1.4,0.4c9.4-1.5,16.3-9.6,16.3-19.2c0-7.2,5.8-13,13-13c7.2,0,13,5.8,13,13
		c0,7.2-5.8,13-13,13c-1.8,0-3.2,1.4-3.2,3.2c0,1.8,1.4,3.2,3.2,3.2c10.7,0,19.5-8.7,19.5-19.5C358.9,224,350.2,215.3,339.4,215.3
		L339.4,215.3z"/>
	<polygon class="st0" points="263.1,273.6 264,273.6 264,195.7 263.1,195.7 263.1,273.6 	"/>
	<path class="st0" d="M136.8,247.9c1.7,0,3-0.4,3.9-1.2c0.9-0.8,1.4-1.9,1.4-3.4c0-1.4-0.5-2.5-1.4-3.3c-0.9-0.8-2.2-1.3-3.8-1.3
		h-5.5v14.9h2v-5.9H136.8L136.8,247.9z M133.3,240.4h3.7c1,0,1.7,0.3,2.3,0.8c0.6,0.5,0.8,1.2,0.8,2.1c0,0.9-0.3,1.7-0.8,2.2
		c-0.6,0.5-1.4,0.7-2.4,0.7h-3.5V240.4L133.3,240.4z M149.6,242.6c-0.2-0.1-0.5-0.1-0.8-0.1c-1.1,0-2,0.5-2.6,1.5l0-1.3h-1.8v11.1
		h1.9v-7.9c0.4-1.1,1.3-1.6,2.5-1.6c0.3,0,0.6,0,0.9,0.1L149.6,242.6L149.6,242.6z M150.7,248.2c0,1.7,0.5,3.1,1.4,4.2
		c0.9,1,2.2,1.6,3.7,1.6c1,0,1.9-0.2,2.7-0.7c0.8-0.5,1.4-1.1,1.8-2s0.6-1.8,0.6-2.9v-0.1c0-1.7-0.5-3.1-1.4-4.2
		c-0.9-1-2.2-1.6-3.7-1.6c-1,0-1.8,0.2-2.6,0.7c-0.8,0.5-1.4,1.1-1.8,2c-0.4,0.9-0.6,1.8-0.6,2.9L150.7,248.2L150.7,248.2z
		 M153.4,245.1c0.6-0.7,1.3-1.1,2.3-1.1c1,0,1.7,0.4,2.3,1.1c0.6,0.8,0.9,1.7,0.9,3c0,1.4-0.3,2.4-0.9,3.2s-1.3,1.1-2.3,1.1
		c-1,0-1.7-0.4-2.3-1.1c-0.6-0.7-0.9-1.7-0.9-3C152.6,246.9,152.9,245.8,153.4,245.1L153.4,245.1z M163.9,252.4
		c0.8,1,1.9,1.6,3.2,1.6c1.3,0,2.4-0.4,3.1-1.3v1c0,0.9-0.3,1.7-0.8,2.2c-0.5,0.5-1.2,0.8-2.2,0.8c-1.2,0-2.2-0.5-3-1.5l-1,1.1
		c0.4,0.6,1,1.1,1.8,1.4c0.8,0.3,1.6,0.5,2.4,0.5c1.4,0,2.6-0.4,3.4-1.2c0.9-0.8,1.3-2,1.3-3.4v-10.8h-1.7l-0.1,1.2
		c-0.8-1-1.8-1.4-3.2-1.4c-1.3,0-2.4,0.5-3.2,1.5c-0.8,1-1.2,2.4-1.2,4.1C162.7,249.9,163.1,251.3,163.9,252.4L163.9,252.4z
		 M165.4,245.1c0.5-0.7,1.2-1.1,2.2-1.1c1.2,0,2,0.5,2.6,1.6v5.1c-0.6,1.1-1.4,1.6-2.6,1.6c-0.9,0-1.6-0.4-2.2-1.1
		c-0.5-0.7-0.8-1.7-0.8-3C164.6,246.9,164.9,245.8,165.4,245.1L165.4,245.1z M180.3,242.6c-0.2-0.1-0.5-0.1-0.8-0.1
		c-1.1,0-2,0.5-2.6,1.5l0-1.3H175v11.1h1.9v-7.9c0.4-1.1,1.3-1.6,2.5-1.6c0.3,0,0.6,0,0.9,0.1L180.3,242.6L180.3,242.6z
		 M190.5,253.7v-0.2c-0.3-0.6-0.4-1.4-0.4-2.4V246c0-1.1-0.4-2-1.1-2.6c-0.7-0.6-1.7-1-3-1c-0.8,0-1.5,0.1-2.2,0.5s-1.2,0.7-1.6,1.2
		c-0.4,0.5-0.6,1.1-0.6,1.6h1.9c0-0.5,0.2-0.9,0.7-1.2c0.5-0.3,1-0.5,1.7-0.5c0.8,0,1.4,0.2,1.8,0.6c0.4,0.4,0.6,0.9,0.6,1.6v0.9
		h-1.8c-1.6,0-2.8,0.3-3.7,1c-0.9,0.6-1.3,1.5-1.3,2.7c0,1,0.3,1.7,1.1,2.4c0.7,0.6,1.6,0.9,2.7,0.9c1.2,0,2.3-0.5,3.2-1.4
		c0.1,0.6,0.2,1,0.3,1.2L190.5,253.7L190.5,253.7z M183.8,251.8c-0.4-0.3-0.6-0.8-0.6-1.4c0-1.4,1.2-2,3.5-2h1.5v2.3
		c-0.2,0.5-0.6,0.9-1.2,1.2c-0.5,0.3-1.1,0.5-1.7,0.5C184.7,252.3,184.2,252.1,183.8,251.8L183.8,251.8z M193.1,242.6v11.1h1.9v-8.1
		c0.5-1.1,1.3-1.6,2.6-1.6c1.6,0,2.4,0.8,2.4,2.4v7.3h1.9v-7.4c0.1-0.7,0.3-1.3,0.8-1.7c0.5-0.4,1-0.6,1.8-0.6
		c0.9,0,1.5,0.2,1.8,0.6c0.4,0.4,0.5,1,0.5,1.8v7.3h1.9v-7.4c0-2.6-1.3-3.9-3.7-3.9c-0.8,0-1.5,0.2-2.1,0.5
		c-0.6,0.3-1.1,0.8-1.4,1.3c-0.6-1.2-1.6-1.8-3.2-1.8c-1.4,0-2.5,0.5-3.3,1.4l-0.1-1.2L193.1,242.6L193.1,242.6z M211.5,242.6v11.1
		h1.9v-8.1c0.5-1.1,1.3-1.6,2.6-1.6c1.6,0,2.4,0.8,2.4,2.4v7.3h1.9v-7.4c0.1-0.7,0.3-1.3,0.8-1.7c0.5-0.4,1.1-0.6,1.8-0.6
		c0.9,0,1.5,0.2,1.8,0.6c0.4,0.4,0.5,1,0.5,1.8v7.3h1.9v-7.4c0-2.6-1.3-3.9-3.7-3.9c-0.8,0-1.5,0.2-2.1,0.5
		c-0.6,0.3-1.1,0.8-1.4,1.3c-0.6-1.2-1.6-1.8-3.2-1.8c-1.4,0-2.5,0.5-3.3,1.4l-0.1-1.2L211.5,242.6L211.5,242.6z M238.8,251.8
		l-1.2-0.9c-0.3,0.5-0.8,0.8-1.2,1.1c-0.5,0.3-1,0.4-1.7,0.4c-0.9,0-1.7-0.3-2.3-1c-0.6-0.7-0.9-1.6-1-2.7h7.5v-0.8
		c0-1.8-0.4-3.1-1.2-4.1c-0.8-1-1.9-1.4-3.4-1.4c-0.9,0-1.7,0.2-2.5,0.7c-0.8,0.5-1.3,1.2-1.8,2c-0.4,0.9-0.6,1.9-0.6,3v0.3
		c0,1.7,0.5,3,1.4,4c0.9,1,2.2,1.5,3.7,1.5C236.4,253.9,237.8,253.2,238.8,251.8L238.8,251.8z M236.2,244.8c0.5,0.5,0.7,1.3,0.8,2.2
		v0.1h-5.6c0.1-1,0.4-1.8,1-2.3c0.5-0.6,1.2-0.8,1.9-0.8C235.1,244,235.7,244.2,236.2,244.8L236.2,244.8z"/>
	<path class="st0" d="M111.5,214.2h-2v11.6l-7.5-11.6h-2v14.9h2v-11.5l7.5,11.5h2V214.2L111.5,214.2z M123.5,229.2V229
		c-0.3-0.6-0.4-1.4-0.4-2.4v-5.1c0-1.1-0.4-2-1.1-2.6c-0.7-0.6-1.7-1-3-1c-0.8,0-1.5,0.1-2.2,0.5s-1.2,0.7-1.6,1.2
		c-0.4,0.5-0.6,1.1-0.6,1.6h1.9c0-0.5,0.2-0.9,0.7-1.2c0.5-0.3,1-0.5,1.7-0.5c0.8,0,1.4,0.2,1.8,0.6c0.4,0.4,0.6,0.9,0.6,1.6v0.9
		h-1.8c-1.6,0-2.8,0.3-3.7,1c-0.9,0.6-1.3,1.5-1.3,2.7c0,1,0.4,1.7,1.1,2.4c0.7,0.6,1.6,0.9,2.7,0.9c1.2,0,2.3-0.5,3.2-1.4
		c0.1,0.6,0.2,1,0.3,1.2L123.5,229.2L123.5,229.2z M116.9,227.2c-0.4-0.3-0.6-0.8-0.6-1.4c0-1.4,1.2-2,3.5-2h1.5v2.3
		c-0.2,0.5-0.6,0.9-1.2,1.2c-0.5,0.3-1.1,0.5-1.7,0.5C117.8,227.7,117.3,227.6,116.9,227.2L116.9,227.2z M126.8,215.4v2.7h-2v1.5h2
		v6.9c0,0.9,0.2,1.7,0.6,2.2c0.4,0.5,1.1,0.8,1.9,0.8c0.5,0,1-0.1,1.5-0.2v-1.5c-0.4,0.1-0.7,0.1-0.9,0.1c-0.4,0-0.8-0.1-0.9-0.3
		c-0.2-0.2-0.3-0.6-0.3-1v-6.9h2.1v-1.5h-2.1v-2.7L126.8,215.4L126.8,215.4z M135.1,218.1h-1.9v11.1h1.9V218.1L135.1,218.1z
		 M133.3,215.9c0.2,0.2,0.5,0.3,0.8,0.3c0.4,0,0.6-0.1,0.8-0.3c0.2-0.2,0.3-0.5,0.3-0.8c0-0.3-0.1-0.6-0.3-0.8
		c-0.2-0.2-0.5-0.3-0.8-0.3c-0.4,0-0.6,0.1-0.8,0.3c-0.2,0.2-0.3,0.5-0.3,0.8C133,215.4,133.1,215.7,133.3,215.9L133.3,215.9z
		 M137.6,223.7c0,1.7,0.5,3.1,1.4,4.2c0.9,1,2.2,1.6,3.7,1.6c1,0,1.9-0.2,2.7-0.7c0.8-0.5,1.4-1.1,1.8-2s0.6-1.8,0.6-2.9v-0.1
		c0-1.7-0.5-3.1-1.4-4.2c-0.9-1-2.2-1.6-3.7-1.6c-1,0-1.8,0.2-2.6,0.7c-0.8,0.5-1.4,1.1-1.8,2c-0.4,0.9-0.6,1.8-0.6,2.9L137.6,223.7
		L137.6,223.7z M140.4,220.6c0.6-0.7,1.3-1.1,2.3-1.1c1,0,1.7,0.4,2.3,1.1c0.6,0.8,0.9,1.7,0.9,3c0,1.4-0.3,2.4-0.9,3.2
		c-0.6,0.8-1.3,1.1-2.3,1.1c-1,0-1.7-0.4-2.3-1.1c-0.6-0.7-0.9-1.7-0.9-3C139.5,222.4,139.8,221.3,140.4,220.6L140.4,220.6z
		 M150.1,218.1v11.1h1.9v-7.9c0.3-0.5,0.6-1,1.1-1.3c0.5-0.3,1-0.5,1.6-0.5c0.8,0,1.3,0.2,1.7,0.6c0.4,0.4,0.5,1,0.5,1.8v7.4h1.9
		v-7.3c0-2.6-1.2-4-3.6-4c-1.4,0-2.5,0.5-3.3,1.6l-0.1-1.4H150.1L150.1,218.1z M170.5,229.2V229c-0.3-0.6-0.4-1.4-0.4-2.4v-5.1
		c0-1.1-0.4-2-1.1-2.6c-0.7-0.6-1.7-1-3-1c-0.8,0-1.5,0.1-2.2,0.5c-0.7,0.3-1.2,0.7-1.6,1.2c-0.4,0.5-0.6,1.1-0.6,1.6h1.9
		c0-0.5,0.2-0.9,0.7-1.2c0.5-0.3,1-0.5,1.7-0.5c0.8,0,1.4,0.2,1.8,0.6c0.4,0.4,0.6,0.9,0.6,1.6v0.9h-1.8c-1.6,0-2.8,0.3-3.7,1
		c-0.9,0.6-1.3,1.5-1.3,2.7c0,1,0.4,1.7,1.1,2.4c0.7,0.6,1.6,0.9,2.7,0.9c1.2,0,2.3-0.5,3.2-1.4c0.1,0.6,0.2,1,0.3,1.2L170.5,229.2
		L170.5,229.2z M163.9,227.2c-0.4-0.3-0.6-0.8-0.6-1.4c0-1.4,1.2-2,3.5-2h1.5v2.3c-0.2,0.5-0.6,0.9-1.2,1.2
		c-0.5,0.3-1.1,0.5-1.7,0.5C164.8,227.7,164.3,227.6,163.9,227.2L163.9,227.2z M175.2,213.4h-1.9v15.8h1.9V213.4L175.2,213.4z
		 M192.7,224.5c-0.2,1.2-0.6,2.1-1.2,2.6c-0.6,0.5-1.4,0.7-2.5,0.7c-1.2,0-2.2-0.5-2.8-1.4c-0.7-1-1-2.3-1-3.9V221
		c0-1.7,0.4-3,1.1-4c0.7-0.9,1.7-1.4,3-1.4c1,0,1.8,0.3,2.4,0.8c0.6,0.5,0.9,1.4,1.1,2.6h2c-0.2-1.6-0.7-2.8-1.7-3.7
		c-1-0.9-2.2-1.3-3.8-1.3c-1.2,0-2.3,0.3-3.2,0.8c-0.9,0.6-1.6,1.4-2.1,2.4c-0.5,1.1-0.7,2.3-0.7,3.7v1.4c0,2.1,0.5,3.8,1.6,5.1
		c1.1,1.3,2.5,1.9,4.2,1.9c1.6,0,2.9-0.4,3.9-1.3s1.6-2.1,1.8-3.7H192.7L192.7,224.5z M205.1,219.4v-1.3h-8.4v1.6h6l-6.1,8.1v1.4
		h8.8v-1.6h-6.5L205.1,219.4L205.1,219.4z M216.2,227.3l-1.2-0.9c-0.3,0.5-0.8,0.8-1.2,1.1c-0.5,0.3-1,0.4-1.7,0.4
		c-0.9,0-1.7-0.3-2.3-1c-0.6-0.7-0.9-1.6-1-2.7h7.5v-0.8c0-1.8-0.4-3.1-1.2-4.1c-0.8-1-1.9-1.4-3.4-1.4c-0.9,0-1.7,0.2-2.5,0.7
		c-0.8,0.5-1.3,1.2-1.8,2s-0.6,1.9-0.6,3v0.3c0,1.7,0.5,3,1.4,4c0.9,1,2.2,1.5,3.7,1.5C213.8,229.4,215.2,228.7,216.2,227.3
		L216.2,227.3z M213.6,220.2c0.5,0.5,0.7,1.3,0.8,2.2v0.1h-5.6c0.1-1,0.4-1.8,1-2.3c0.5-0.6,1.2-0.8,1.9-0.8
		C212.5,219.4,213.2,219.7,213.6,220.2L213.6,220.2z M220.7,226.8c-0.5-0.7-0.8-1.7-0.8-3v-0.4c0-1.3,0.3-2.3,0.8-3s1.3-1,2.2-1
		c0.7,0,1.3,0.2,1.8,0.7c0.5,0.5,0.8,1.1,0.8,1.8h1.8c-0.1-1.2-0.5-2.2-1.3-2.9c-0.8-0.7-1.9-1.1-3.1-1.1c-1,0-1.9,0.2-2.6,0.7
		c-0.7,0.5-1.3,1.1-1.7,2c-0.4,0.8-0.6,1.8-0.6,2.9v0.3c0,1.8,0.4,3.1,1.3,4.1c0.9,1,2.1,1.5,3.6,1.5c0.8,0,1.5-0.2,2.1-0.5
		c0.7-0.3,1.2-0.8,1.6-1.4c0.4-0.6,0.6-1.2,0.7-1.8h-1.8c-0.1,0.6-0.3,1.1-0.8,1.5c-0.5,0.4-1.1,0.6-1.8,0.6
		C222,227.8,221.2,227.5,220.7,226.8L220.7,226.8z M231.4,213.4h-1.9v15.8h1.9v-7.9c0.3-0.5,0.6-1,1.1-1.3c0.5-0.3,1-0.5,1.6-0.5
		c0.8,0,1.3,0.2,1.7,0.6c0.4,0.4,0.5,1,0.5,1.8v7.4h1.9v-7.3c0-2.6-1.2-4-3.6-4c-1.3,0-2.4,0.5-3.3,1.6V213.4L231.4,213.4z"/>
</g>
</svg>
