<?xml version="1.0" encoding="UTF-8" standalone="no"?>
<!-- Generator: Adobe Illustrator 28.2.0, SVG Export Plug-In . SVG Version: 6.00 Build 0)  -->

<svg
   version="1.1"
   id="Vrstva_1"
   x="0px"
   y="0px"
   viewBox="0 0 500 90.9"
   xml:space="preserve"
   sodipodi:docname="EOSC_CzechRepublic_Pos_svg.svg"
   width="500"
   height="90.900002"
   inkscape:version="1.3.2 (091e20e, 2023-11-25)"
   xmlns:inkscape="http://www.inkscape.org/namespaces/inkscape"
   xmlns:sodipodi="http://sodipodi.sourceforge.net/DTD/sodipodi-0.dtd"
   xmlns="http://www.w3.org/2000/svg"
   xmlns:svg="http://www.w3.org/2000/svg"><defs
   id="defs9" /><sodipodi:namedview
   id="namedview9"
   pagecolor="#ffffff"
   bordercolor="#666666"
   borderopacity="1.0"
   inkscape:showpageshadow="2"
   inkscape:pageopacity="0.0"
   inkscape:pagecheckerboard="0"
   inkscape:deskcolor="#d1d1d1"
   inkscape:zoom="0.50459695"
   inkscape:cx="212.05043"
   inkscape:cy="37.653815"
   inkscape:window-width="1312"
   inkscape:window-height="449"
   inkscape:window-x="0"
   inkscape:window-y="38"
   inkscape:window-maximized="0"
   inkscape:current-layer="Vrstva_1" />
<style
   type="text/css"
   id="style1">
	.st0{fill:#040305;}
	.st1{fill:#008691;}
	.st2{fill:#FF5D81;}
</style>
<g
   id="g9"
   transform="translate(-98.01822,-183.91864)">
	<path
   class="st0"
   d="m 379.7,223.8 c 1.1,-1.1 2.4,-1.9 3.8,-2.5 1.4,-0.5 2.9,-0.8 4.3,-0.8 1.8,0 3.5,0.4 5.1,1.2 1.6,0.8 3,1.9 4.1,3.3 1.1,1.4 1.8,3.1 1.9,5.1 v 0.6 h -22.7 c 0.2,-0.9 0.4,-1.8 0.7,-2.5 0.8,-1.8 1.7,-3.3 2.8,-4.4 z m 24.5,11.1 c 0.6,-0.5 0.9,-1.1 0.9,-1.9 0,-2.7 -0.6,-5.2 -1.5,-7.4 -1,-2.2 -2.2,-4 -3.8,-5.6 -1.6,-1.6 -3.4,-2.8 -5.5,-3.6 -2.1,-0.8 -4.2,-1.2 -6.4,-1.2 -3,0 -5.8,0.8 -8.5,2.3 -2.7,1.6 -4.8,3.8 -6.5,6.8 -1.7,3 -2.5,6.5 -2.5,10.7 0,3.8 0.8,7.1 2.4,9.9 1.6,2.9 3.8,5.1 6.7,6.8 2.9,1.6 6.3,2.5 10.2,2.5 2.6,0 5,-0.6 7.3,-1.7 2.3,-1.1 4.1,-2.4 5.5,-3.9 0.8,-0.7 1.2,-1.4 1.2,-2.2 0,-0.7 -0.2,-1.3 -0.7,-1.7 -0.5,-0.5 -1.1,-0.7 -1.7,-0.7 -0.6,0 -1.3,0.2 -1.9,0.6 -0.6,0.7 -1.4,1.3 -2.3,2 -0.9,0.6 -2,1.2 -3.2,1.6 -1.3,0.4 -2.7,0.6 -4.4,0.6 -2.7,0 -5.1,-0.6 -7.1,-1.8 -2,-1.2 -3.6,-2.9 -4.7,-5 -1,-1.8 -1.5,-3.9 -1.7,-6.3 h 26.3 c 0.7,0 1.3,-0.3 1.9,-0.8 z"
   id="path1" />
	<path
   class="st0"
   d="m 443.4,234.7 c 0,-2.8 -0.6,-5.2 -1.7,-7.3 -1.1,-2.1 -2.7,-3.8 -4.6,-5 -1.9,-1.2 -4.1,-1.8 -6.5,-1.8 -2.5,0 -4.7,0.6 -6.6,1.8 -1.9,1.2 -3.5,2.9 -4.7,5 -1.2,2.1 -1.7,4.5 -1.7,7.3 0,2.7 0.6,5.2 1.7,7.3 1.2,2.1 2.7,3.8 4.7,5 1.9,1.2 4.2,1.8 6.6,1.8 2.4,0 4.6,-0.6 6.5,-1.8 2,-1.2 3.5,-2.9 4.6,-5 1.1,-2.2 1.7,-4.6 1.7,-7.3 z m 5.8,0 c 0,3.8 -0.8,7.1 -2.5,10 -1.7,2.9 -3.9,5.2 -6.7,6.9 -2.8,1.7 -6,2.5 -9.5,2.5 -3.5,0 -6.7,-0.8 -9.5,-2.5 -2.8,-1.7 -5.1,-4 -6.8,-6.9 -1.7,-2.9 -2.5,-6.3 -2.5,-10 0,-3.8 0.8,-7.1 2.5,-10 1.7,-2.9 3.9,-5.2 6.8,-6.9 2.8,-1.7 6,-2.5 9.5,-2.5 3.5,0 6.7,0.8 9.5,2.5 2.8,1.7 5.1,4 6.7,6.9 1.7,2.9 2.5,6.2 2.5,10 z"
   id="path2" />
	<path
   class="st0"
   d="m 455.7,247.5 c -0.4,-0.6 -0.6,-1.3 -0.5,-2 0,-0.7 0.4,-1.3 1.2,-1.8 0.5,-0.3 1.1,-0.5 1.8,-0.4 0.6,0 1.2,0.4 1.8,0.9 1.3,1.6 2.9,2.9 4.6,3.8 1.7,0.9 3.9,1.4 6.4,1.4 1.1,0 2.2,-0.2 3.4,-0.6 1.2,-0.3 2.2,-0.9 3,-1.8 0.8,-0.8 1.2,-2 1.2,-3.4 0,-1.3 -0.4,-2.4 -1.2,-3.2 -0.8,-0.8 -1.9,-1.4 -3.2,-1.9 -1.3,-0.5 -2.7,-1 -4.2,-1.3 -1.6,-0.4 -3.2,-0.9 -4.7,-1.4 -1.5,-0.5 -2.9,-1.2 -4.2,-2.1 -1.2,-0.8 -2.2,-1.9 -3,-3.2 -0.7,-1.3 -1.1,-2.9 -1.1,-4.7 0,-2.2 0.6,-4 1.8,-5.6 1.2,-1.6 2.8,-2.8 4.7,-3.7 2,-0.9 4.2,-1.3 6.6,-1.3 1.3,0 2.8,0.2 4.2,0.5 1.5,0.3 2.9,0.8 4.3,1.6 1.4,0.7 2.6,1.8 3.7,3.1 0.4,0.5 0.7,1.1 0.7,1.8 0,0.7 -0.3,1.4 -0.9,2 -0.5,0.4 -1.1,0.6 -1.8,0.5 -0.7,0 -1.2,-0.3 -1.6,-0.7 -1.1,-1.3 -2.3,-2.2 -3.9,-2.9 -1.5,-0.6 -3.2,-1 -5,-1 -1.1,0 -2.2,0.2 -3.3,0.5 -1.1,0.4 -2,0.9 -2.8,1.7 -0.7,0.8 -1.1,1.9 -1.1,3.2 0,1.3 0.5,2.4 1.3,3.2 0.8,0.8 1.9,1.5 3.3,2 1.4,0.5 2.9,1 4.6,1.5 1.5,0.4 3,0.8 4.4,1.3 1.4,0.5 2.7,1.2 3.9,2 1.2,0.8 2.1,1.9 2.7,3.1 0.7,1.3 1,2.9 1,4.8 0,2.2 -0.6,4.1 -1.9,5.7 -1.3,1.6 -2.9,2.8 -4.9,3.7 -2,0.8 -4.2,1.3 -6.6,1.3 -2.6,0 -5.3,-0.5 -7.9,-1.5 -2.7,-0.9 -4.9,-2.6 -6.8,-5.1 z"
   id="path3" />
	<path
   class="st0"
   d="m 508.6,215.2 c 2.5,0 4.7,0.3 6.7,0.8 2,0.5 3.5,1.3 4.7,2.2 1.2,0.9 1.7,1.9 1.7,3.1 0,0.7 -0.2,1.3 -0.6,1.9 -0.4,0.6 -1,0.9 -1.8,0.9 -0.6,0 -1.1,-0.1 -1.6,-0.4 -0.4,-0.3 -0.8,-0.6 -1.2,-0.9 -0.4,-0.4 -0.9,-0.7 -1.5,-1 -0.6,-0.3 -1.4,-0.5 -2.5,-0.8 -1.1,-0.2 -2.2,-0.3 -3.3,-0.3 -2.6,0 -5,0.6 -7,1.9 -2,1.3 -3.6,2.9 -4.7,5.1 -1.2,2.1 -1.7,4.5 -1.7,7.2 0,2.7 0.6,5.1 1.7,7.2 1.1,2.1 2.6,3.8 4.6,5.1 2,1.3 4.3,1.9 6.9,1.9 1.7,0 3,-0.1 4,-0.4 1,-0.3 1.8,-0.6 2.6,-1 0.8,-0.5 1.5,-1 1.9,-1.4 0.5,-0.5 1.1,-0.7 1.9,-0.7 0.8,0 1.5,0.3 1.9,0.8 0.5,0.5 0.7,1.2 0.7,1.9 0,0.9 -0.6,1.9 -1.8,2.8 -1.2,1 -2.8,1.8 -4.9,2.4 -2.1,0.6 -4.4,1 -6.9,1 -3.7,0 -6.9,-0.9 -9.6,-2.6 -2.7,-1.7 -4.9,-4 -6.4,-7 -1.5,-3 -2.3,-6.3 -2.3,-9.9 0,-3.7 0.8,-7 2.3,-9.9 1.6,-2.9 3.7,-5.3 6.5,-7 2.8,-2.1 6.1,-2.9 9.7,-2.9 z"
   id="path4" />
	<path
   class="st1"
   d="m 317.5,218.3 c -3.2,-2 -6.8,-3.1 -10.6,-3.1 -3.8,0 -7.4,1.1 -10.6,3.1 -0.6,0.4 -1.1,1.1 -1.1,1.9 -0.1,0.8 0.2,1.6 0.7,2.1 l 1.1,1.1 c 0.5,0.5 1.2,0.8 1.8,0.8 0.5,0 0.9,-0.1 1.3,-0.4 2,-1.3 4.4,-1.9 6.8,-1.9 2.4,0 4.7,0.7 6.8,1.9 1,0.6 2.3,0.5 3.2,-0.4 l 1.1,-1.1 c 0.6,-0.6 0.8,-1.3 0.7,-2.1 -0.1,-0.8 -0.5,-1.5 -1.2,-1.9 z"
   id="path5" />
	<path
   class="st2"
   d="m 304,247.4 c -5.9,-1.4 -10,-6.6 -10,-12.7 0,-2.4 0.7,-4.8 1.9,-6.8 0.6,-1 0.5,-2.2 -0.4,-3 l -1.1,-1.1 c -0.5,-0.5 -1.3,-0.8 -2,-0.7 -0.7,0.1 -1.4,0.5 -1.8,1.1 -2,3.1 -3.1,6.8 -3.1,10.5 0,9.1 6.5,17.1 15.4,19 0.2,0 0.3,0.1 0.5,0.1 0.5,0 1.1,-0.2 1.5,-0.5 0.6,-0.5 0.9,-1.2 0.9,-1.9 v -1.5 c 0,-1.2 -0.8,-2.2 -1.8,-2.5 z"
   id="path6" />
	<path
   class="st1"
   d="m 339.4,215.3 c -10.7,0 -19.5,8.7 -19.5,19.5 v 0.1 0.1 c -0.1,6.1 -4.5,11.4 -10.5,12.6 -0.8,0.2 -1.4,0.9 -1.4,1.7 v 3 c 0,0.5 0.2,1 0.6,1.3 0.4,0.3 0.9,0.5 1.4,0.4 9.4,-1.5 16.3,-9.6 16.3,-19.2 0,-7.2 5.8,-13 13,-13 7.2,0 13,5.8 13,13 0,7.2 -5.8,13 -13,13 -1.8,0 -3.2,1.4 -3.2,3.2 0,1.8 1.4,3.2 3.2,3.2 10.7,0 19.5,-8.7 19.5,-19.5 0.1,-10.7 -8.6,-19.4 -19.4,-19.4 z"
   id="path7" />
	<polygon
   class="st0"
   points="264,273.6 264,195.7 263.1,195.7 263.1,273.6 "
   id="polygon7" />
	<path
   class="st0"
   d="m 136.8,247.9 c 1.7,0 3,-0.4 3.9,-1.2 0.9,-0.8 1.4,-1.9 1.4,-3.4 0,-1.4 -0.5,-2.5 -1.4,-3.3 -0.9,-0.8 -2.2,-1.3 -3.8,-1.3 h -5.5 v 14.9 h 2 v -5.9 h 3.4 z m -3.5,-7.5 h 3.7 c 1,0 1.7,0.3 2.3,0.8 0.6,0.5 0.8,1.2 0.8,2.1 0,0.9 -0.3,1.7 -0.8,2.2 -0.6,0.5 -1.4,0.7 -2.4,0.7 h -3.5 v -5.8 z m 16.3,2.2 c -0.2,-0.1 -0.5,-0.1 -0.8,-0.1 -1.1,0 -2,0.5 -2.6,1.5 v -1.3 h -1.8 v 11.1 h 1.9 v -7.9 c 0.4,-1.1 1.3,-1.6 2.5,-1.6 0.3,0 0.6,0 0.9,0.1 z m 1.1,5.6 c 0,1.7 0.5,3.1 1.4,4.2 0.9,1 2.2,1.6 3.7,1.6 1,0 1.9,-0.2 2.7,-0.7 0.8,-0.5 1.4,-1.1 1.8,-2 0.4,-0.9 0.6,-1.8 0.6,-2.9 v -0.1 c 0,-1.7 -0.5,-3.1 -1.4,-4.2 -0.9,-1 -2.2,-1.6 -3.7,-1.6 -1,0 -1.8,0.2 -2.6,0.7 -0.8,0.5 -1.4,1.1 -1.8,2 -0.4,0.9 -0.6,1.8 -0.6,2.9 z m 2.7,-3.1 c 0.6,-0.7 1.3,-1.1 2.3,-1.1 1,0 1.7,0.4 2.3,1.1 0.6,0.8 0.9,1.7 0.9,3 0,1.4 -0.3,2.4 -0.9,3.2 -0.6,0.8 -1.3,1.1 -2.3,1.1 -1,0 -1.7,-0.4 -2.3,-1.1 -0.6,-0.7 -0.9,-1.7 -0.9,-3 0.1,-1.4 0.4,-2.5 0.9,-3.2 z m 10.5,7.3 c 0.8,1 1.9,1.6 3.2,1.6 1.3,0 2.4,-0.4 3.1,-1.3 v 1 c 0,0.9 -0.3,1.7 -0.8,2.2 -0.5,0.5 -1.2,0.8 -2.2,0.8 -1.2,0 -2.2,-0.5 -3,-1.5 l -1,1.1 c 0.4,0.6 1,1.1 1.8,1.4 0.8,0.3 1.6,0.5 2.4,0.5 1.4,0 2.6,-0.4 3.4,-1.2 0.9,-0.8 1.3,-2 1.3,-3.4 v -10.8 h -1.7 l -0.1,1.2 c -0.8,-1 -1.8,-1.4 -3.2,-1.4 -1.3,0 -2.4,0.5 -3.2,1.5 -0.8,1 -1.2,2.4 -1.2,4.1 0,1.7 0.4,3.1 1.2,4.2 z m 1.5,-7.3 c 0.5,-0.7 1.2,-1.1 2.2,-1.1 1.2,0 2,0.5 2.6,1.6 v 5.1 c -0.6,1.1 -1.4,1.6 -2.6,1.6 -0.9,0 -1.6,-0.4 -2.2,-1.1 -0.5,-0.7 -0.8,-1.7 -0.8,-3 0,-1.3 0.3,-2.4 0.8,-3.1 z m 14.9,-2.5 c -0.2,-0.1 -0.5,-0.1 -0.8,-0.1 -1.1,0 -2,0.5 -2.6,1.5 v -1.3 H 175 v 11.1 h 1.9 v -7.9 c 0.4,-1.1 1.3,-1.6 2.5,-1.6 0.3,0 0.6,0 0.9,0.1 z m 10.2,11.1 v -0.2 c -0.3,-0.6 -0.4,-1.4 -0.4,-2.4 V 246 c 0,-1.1 -0.4,-2 -1.1,-2.6 -0.7,-0.6 -1.7,-1 -3,-1 -0.8,0 -1.5,0.1 -2.2,0.5 -0.7,0.4 -1.2,0.7 -1.6,1.2 -0.4,0.5 -0.6,1.1 -0.6,1.6 h 1.9 c 0,-0.5 0.2,-0.9 0.7,-1.2 0.5,-0.3 1,-0.5 1.7,-0.5 0.8,0 1.4,0.2 1.8,0.6 0.4,0.4 0.6,0.9 0.6,1.6 v 0.9 h -1.8 c -1.6,0 -2.8,0.3 -3.7,1 -0.9,0.6 -1.3,1.5 -1.3,2.7 0,1 0.3,1.7 1.1,2.4 0.7,0.6 1.6,0.9 2.7,0.9 1.2,0 2.3,-0.5 3.2,-1.4 0.1,0.6 0.2,1 0.3,1.2 z m -6.7,-1.9 c -0.4,-0.3 -0.6,-0.8 -0.6,-1.4 0,-1.4 1.2,-2 3.5,-2 h 1.5 v 2.3 c -0.2,0.5 -0.6,0.9 -1.2,1.2 -0.5,0.3 -1.1,0.5 -1.7,0.5 -0.6,-0.1 -1.1,-0.3 -1.5,-0.6 z m 9.3,-9.2 v 11.1 h 1.9 v -8.1 c 0.5,-1.1 1.3,-1.6 2.6,-1.6 1.6,0 2.4,0.8 2.4,2.4 v 7.3 h 1.9 v -7.4 c 0.1,-0.7 0.3,-1.3 0.8,-1.7 0.5,-0.4 1,-0.6 1.8,-0.6 0.9,0 1.5,0.2 1.8,0.6 0.4,0.4 0.5,1 0.5,1.8 v 7.3 h 1.9 v -7.4 c 0,-2.6 -1.3,-3.9 -3.7,-3.9 -0.8,0 -1.5,0.2 -2.1,0.5 -0.6,0.3 -1.1,0.8 -1.4,1.3 -0.6,-1.2 -1.6,-1.8 -3.2,-1.8 -1.4,0 -2.5,0.5 -3.3,1.4 l -0.1,-1.2 z m 18.4,0 v 11.1 h 1.9 v -8.1 c 0.5,-1.1 1.3,-1.6 2.6,-1.6 1.6,0 2.4,0.8 2.4,2.4 v 7.3 h 1.9 v -7.4 c 0.1,-0.7 0.3,-1.3 0.8,-1.7 0.5,-0.4 1.1,-0.6 1.8,-0.6 0.9,0 1.5,0.2 1.8,0.6 0.4,0.4 0.5,1 0.5,1.8 v 7.3 h 1.9 v -7.4 c 0,-2.6 -1.3,-3.9 -3.7,-3.9 -0.8,0 -1.5,0.2 -2.1,0.5 -0.6,0.3 -1.1,0.8 -1.4,1.3 -0.6,-1.2 -1.6,-1.8 -3.2,-1.8 -1.4,0 -2.5,0.5 -3.3,1.4 l -0.1,-1.2 z m 27.3,9.2 -1.2,-0.9 c -0.3,0.5 -0.8,0.8 -1.2,1.1 -0.5,0.3 -1,0.4 -1.7,0.4 -0.9,0 -1.7,-0.3 -2.3,-1 -0.6,-0.7 -0.9,-1.6 -1,-2.7 h 7.5 v -0.8 c 0,-1.8 -0.4,-3.1 -1.2,-4.1 -0.8,-1 -1.9,-1.4 -3.4,-1.4 -0.9,0 -1.7,0.2 -2.5,0.7 -0.8,0.5 -1.3,1.2 -1.8,2 -0.4,0.9 -0.6,1.9 -0.6,3 v 0.3 c 0,1.7 0.5,3 1.4,4 0.9,1 2.2,1.5 3.7,1.5 1.9,0 3.3,-0.7 4.3,-2.1 z m -2.6,-7 c 0.5,0.5 0.7,1.3 0.8,2.2 v 0.1 h -5.6 c 0.1,-1 0.4,-1.8 1,-2.3 0.5,-0.6 1.2,-0.8 1.9,-0.8 0.8,0 1.4,0.2 1.9,0.8 z"
   id="path8" />
	<path
   class="st0"
   d="m 111.5,214.2 h -2 v 11.6 L 102,214.2 h -2 v 14.9 h 2 v -11.5 l 7.5,11.5 h 2 z m 12,15 V 229 c -0.3,-0.6 -0.4,-1.4 -0.4,-2.4 v -5.1 c 0,-1.1 -0.4,-2 -1.1,-2.6 -0.7,-0.6 -1.7,-1 -3,-1 -0.8,0 -1.5,0.1 -2.2,0.5 -0.7,0.4 -1.2,0.7 -1.6,1.2 -0.4,0.5 -0.6,1.1 -0.6,1.6 h 1.9 c 0,-0.5 0.2,-0.9 0.7,-1.2 0.5,-0.3 1,-0.5 1.7,-0.5 0.8,0 1.4,0.2 1.8,0.6 0.4,0.4 0.6,0.9 0.6,1.6 v 0.9 h -1.8 c -1.6,0 -2.8,0.3 -3.7,1 -0.9,0.6 -1.3,1.5 -1.3,2.7 0,1 0.4,1.7 1.1,2.4 0.7,0.6 1.6,0.9 2.7,0.9 1.2,0 2.3,-0.5 3.2,-1.4 0.1,0.6 0.2,1 0.3,1.2 z m -6.6,-2 c -0.4,-0.3 -0.6,-0.8 -0.6,-1.4 0,-1.4 1.2,-2 3.5,-2 h 1.5 v 2.3 c -0.2,0.5 -0.6,0.9 -1.2,1.2 -0.5,0.3 -1.1,0.5 -1.7,0.5 -0.6,-0.1 -1.1,-0.2 -1.5,-0.6 z m 9.9,-11.8 v 2.7 h -2 v 1.5 h 2 v 6.9 c 0,0.9 0.2,1.7 0.6,2.2 0.4,0.5 1.1,0.8 1.9,0.8 0.5,0 1,-0.1 1.5,-0.2 v -1.5 c -0.4,0.1 -0.7,0.1 -0.9,0.1 -0.4,0 -0.8,-0.1 -0.9,-0.3 -0.2,-0.2 -0.3,-0.6 -0.3,-1 v -6.9 h 2.1 v -1.5 h -2.1 v -2.7 z m 8.3,2.7 h -1.9 v 11.1 h 1.9 z m -1.8,-2.2 c 0.2,0.2 0.5,0.3 0.8,0.3 0.4,0 0.6,-0.1 0.8,-0.3 0.2,-0.2 0.3,-0.5 0.3,-0.8 0,-0.3 -0.1,-0.6 -0.3,-0.8 -0.2,-0.2 -0.5,-0.3 -0.8,-0.3 -0.4,0 -0.6,0.1 -0.8,0.3 -0.2,0.2 -0.3,0.5 -0.3,0.8 0,0.3 0.1,0.6 0.3,0.8 z m 4.3,7.8 c 0,1.7 0.5,3.1 1.4,4.2 0.9,1 2.2,1.6 3.7,1.6 1,0 1.9,-0.2 2.7,-0.7 0.8,-0.5 1.4,-1.1 1.8,-2 0.4,-0.9 0.6,-1.8 0.6,-2.9 v -0.1 c 0,-1.7 -0.5,-3.1 -1.4,-4.2 -0.9,-1 -2.2,-1.6 -3.7,-1.6 -1,0 -1.8,0.2 -2.6,0.7 -0.8,0.5 -1.4,1.1 -1.8,2 -0.4,0.9 -0.6,1.8 -0.6,2.9 z m 2.8,-3.1 c 0.6,-0.7 1.3,-1.1 2.3,-1.1 1,0 1.7,0.4 2.3,1.1 0.6,0.8 0.9,1.7 0.9,3 0,1.4 -0.3,2.4 -0.9,3.2 -0.6,0.8 -1.3,1.1 -2.3,1.1 -1,0 -1.7,-0.4 -2.3,-1.1 -0.6,-0.7 -0.9,-1.7 -0.9,-3 0,-1.4 0.3,-2.5 0.9,-3.2 z m 9.7,-2.5 v 11.1 h 1.9 v -7.9 c 0.3,-0.5 0.6,-1 1.1,-1.3 0.5,-0.3 1,-0.5 1.6,-0.5 0.8,0 1.3,0.2 1.7,0.6 0.4,0.4 0.5,1 0.5,1.8 v 7.4 h 1.9 V 222 c 0,-2.6 -1.2,-4 -3.6,-4 -1.4,0 -2.5,0.5 -3.3,1.6 l -0.1,-1.4 h -1.7 z m 20.4,11.1 V 229 c -0.3,-0.6 -0.4,-1.4 -0.4,-2.4 v -5.1 c 0,-1.1 -0.4,-2 -1.1,-2.6 -0.7,-0.6 -1.7,-1 -3,-1 -0.8,0 -1.5,0.1 -2.2,0.5 -0.7,0.3 -1.2,0.7 -1.6,1.2 -0.4,0.5 -0.6,1.1 -0.6,1.6 h 1.9 c 0,-0.5 0.2,-0.9 0.7,-1.2 0.5,-0.3 1,-0.5 1.7,-0.5 0.8,0 1.4,0.2 1.8,0.6 0.4,0.4 0.6,0.9 0.6,1.6 v 0.9 h -1.8 c -1.6,0 -2.8,0.3 -3.7,1 -0.9,0.6 -1.3,1.5 -1.3,2.7 0,1 0.4,1.7 1.1,2.4 0.7,0.6 1.6,0.9 2.7,0.9 1.2,0 2.3,-0.5 3.2,-1.4 0.1,0.6 0.2,1 0.3,1.2 z m -6.6,-2 c -0.4,-0.3 -0.6,-0.8 -0.6,-1.4 0,-1.4 1.2,-2 3.5,-2 h 1.5 v 2.3 c -0.2,0.5 -0.6,0.9 -1.2,1.2 -0.5,0.3 -1.1,0.5 -1.7,0.5 -0.6,-0.1 -1.1,-0.2 -1.5,-0.6 z m 11.3,-13.8 h -1.9 v 15.8 h 1.9 z m 17.5,11.1 c -0.2,1.2 -0.6,2.1 -1.2,2.6 -0.6,0.5 -1.4,0.7 -2.5,0.7 -1.2,0 -2.2,-0.5 -2.8,-1.4 -0.7,-1 -1,-2.3 -1,-3.9 V 221 c 0,-1.7 0.4,-3 1.1,-4 0.7,-0.9 1.7,-1.4 3,-1.4 1,0 1.8,0.3 2.4,0.8 0.6,0.5 0.9,1.4 1.1,2.6 h 2 c -0.2,-1.6 -0.7,-2.8 -1.7,-3.7 -1,-0.9 -2.2,-1.3 -3.8,-1.3 -1.2,0 -2.3,0.3 -3.2,0.8 -0.9,0.6 -1.6,1.4 -2.1,2.4 -0.5,1.1 -0.7,2.3 -0.7,3.7 v 1.4 c 0,2.1 0.5,3.8 1.6,5.1 1.1,1.3 2.5,1.9 4.2,1.9 1.6,0 2.9,-0.4 3.9,-1.3 1,-0.9 1.6,-2.1 1.8,-3.7 h -2.1 z m 12.4,-5.1 v -1.3 h -8.4 v 1.6 h 6 l -6.1,8.1 v 1.4 h 8.8 v -1.6 h -6.5 z m 11.1,7.9 -1.2,-0.9 c -0.3,0.5 -0.8,0.8 -1.2,1.1 -0.5,0.3 -1,0.4 -1.7,0.4 -0.9,0 -1.7,-0.3 -2.3,-1 -0.6,-0.7 -0.9,-1.6 -1,-2.7 h 7.5 v -0.8 c 0,-1.8 -0.4,-3.1 -1.2,-4.1 -0.8,-1 -1.9,-1.4 -3.4,-1.4 -0.9,0 -1.7,0.2 -2.5,0.7 -0.8,0.5 -1.3,1.2 -1.8,2 -0.5,0.8 -0.6,1.9 -0.6,3 v 0.3 c 0,1.7 0.5,3 1.4,4 0.9,1 2.2,1.5 3.7,1.5 1.9,0 3.3,-0.7 4.3,-2.1 z m -2.6,-7.1 c 0.5,0.5 0.7,1.3 0.8,2.2 v 0.1 h -5.6 c 0.1,-1 0.4,-1.8 1,-2.3 0.5,-0.6 1.2,-0.8 1.9,-0.8 0.8,0 1.5,0.3 1.9,0.8 z m 7.1,6.6 c -0.5,-0.7 -0.8,-1.7 -0.8,-3 v -0.4 c 0,-1.3 0.3,-2.3 0.8,-3 0.5,-0.7 1.3,-1 2.2,-1 0.7,0 1.3,0.2 1.8,0.7 0.5,0.5 0.8,1.1 0.8,1.8 h 1.8 c -0.1,-1.2 -0.5,-2.2 -1.3,-2.9 -0.8,-0.7 -1.9,-1.1 -3.1,-1.1 -1,0 -1.9,0.2 -2.6,0.7 -0.7,0.5 -1.3,1.1 -1.7,2 -0.4,0.8 -0.6,1.8 -0.6,2.9 v 0.3 c 0,1.8 0.4,3.1 1.3,4.1 0.9,1 2.1,1.5 3.6,1.5 0.8,0 1.5,-0.2 2.1,-0.5 0.7,-0.3 1.2,-0.8 1.6,-1.4 0.4,-0.6 0.6,-1.2 0.7,-1.8 h -1.8 c -0.1,0.6 -0.3,1.1 -0.8,1.5 -0.5,0.4 -1.1,0.6 -1.8,0.6 -0.9,0 -1.7,-0.3 -2.2,-1 z m 10.7,-13.4 h -1.9 v 15.8 h 1.9 v -7.9 c 0.3,-0.5 0.6,-1 1.1,-1.3 0.5,-0.3 1,-0.5 1.6,-0.5 0.8,0 1.3,0.2 1.7,0.6 0.4,0.4 0.5,1 0.5,1.8 v 7.4 h 1.9 V 222 c 0,-2.6 -1.2,-4 -3.6,-4 -1.3,0 -2.4,0.5 -3.3,1.6 v -6.2 z"
   id="path9" />
</g>
</svg>
