<?xml version="1.0" encoding="UTF-8" standalone="no"?><!DOCTYPE svg PUBLIC "-//W3C//DTD SVG 1.1//EN" "http://www.w3.org/Graphics/SVG/1.1/DTD/svg11.dtd"><svg width="100%" height="100%" viewBox="0 0 67 67" version="1.1" xmlns="http://www.w3.org/2000/svg" xmlns:xlink="http://www.w3.org/1999/xlink" xml:space="preserve" xmlns:serif="http://www.serif.com/" style="fill-rule:evenodd;clip-rule:evenodd;stroke-linejoin:round;stroke-miterlimit:2;"><g id="Vrstva-1" serif:id="Vrstva 1"><path d="M27.898,19.633c-2.976,-1.95 -6.359,-2.871 -9.846,-2.871c-3.488,-0 -6.975,1.025 -9.846,2.871c-0.617,0.408 -1.025,1.025 -1.025,1.741c-0.104,0.721 0.204,1.438 0.717,1.95l1.025,1.025c0.512,0.513 1.129,0.721 1.745,0.721c0.409,0 0.821,-0.104 1.23,-0.308c1.95,-1.129 4.104,-1.746 6.358,-1.746c2.258,-0 4.412,0.617 6.358,1.746c0.925,0.612 2.154,0.408 2.975,-0.309l1.025,-1.025c0.513,-0.512 0.821,-1.233 0.721,-1.95c-0.413,-0.82 -0.821,-1.437 -1.438,-1.845" style="fill:#008691;fill-rule:nonzero;"/><path d="M15.282,46.812c-5.537,-1.334 -9.333,-6.154 -9.333,-11.796c-0,-2.254 0.616,-4.408 1.846,-6.358c0.512,-0.921 0.412,-2.05 -0.309,-2.871l-1.025,-1.025c-0.512,-0.513 -1.229,-0.721 -1.95,-0.721c-0.716,0.104 -1.333,0.412 -1.637,1.029c-1.95,2.971 -2.875,6.358 -2.875,9.846c-0,8.512 6.054,16 14.358,17.742l0.517,-0.001c0.512,0 1.025,-0.204 1.433,-0.512c0.513,-0.408 0.821,-1.129 0.821,-1.846l-0,-1.333c-0.204,-1.025 -0.921,-1.95 -1.846,-2.154" style="fill:#ff5d81;fill-rule:nonzero;"/><path d="M48.41,16.76c-10.05,0 -18.154,8.105 -18.154,18.155l0,0.204c-0.104,5.746 -4.204,10.666 -9.741,11.796c-0.721,0.104 -1.334,0.82 -1.334,1.641l0,2.767c0,0.512 0.204,0.925 0.613,1.233c0.412,0.309 0.821,0.409 1.333,0.409c8.821,-1.434 15.179,-9.025 15.179,-17.946c0,-6.667 5.438,-12.209 12.209,-12.209c6.666,0 12.204,5.438 12.204,12.209c-0,6.666 -5.438,12.204 -12.204,12.204c-1.642,-0 -2.975,1.333 -2.975,2.975c-0,1.637 1.333,2.971 2.975,2.971c10.05,-0 18.154,-8.1 18.154,-18.15c-0.104,-10.054 -8.309,-18.259 -18.259,-18.259" style="fill:#008691;fill-rule:nonzero;"/></g></svg>