<?xml version="1.0" encoding="UTF-8"?>
<svg id="Vrstva_1" xmlns="http://www.w3.org/2000/svg" version="1.1" viewBox="0 0 762.92 163.77">
  <!-- Generator: Adobe Illustrator 29.4.0, SVG Export Plug-In . SVG Version: 2.1.0 Build 152)  -->
  <defs>
    <style>
      .st0 {
        fill: #ff5d81;
      }

      .st1 {
        fill: #008691;
      }

      .st2 {
        fill: #040305;
      }
    </style>
  </defs>
  <path class="st2" d="M497.49,68c1.82-1.82,3.98-3.15,6.3-4.15,2.32-.83,4.81-1.33,7.13-1.33,2.99,0,5.81.66,8.46,1.99s4.98,3.15,6.8,5.47c1.82,2.32,2.99,5.14,3.15,8.46v1h-37.66c.33-1.49.66-2.99,1.16-4.15,1.33-2.99,2.82-5.47,4.64-7.3h0ZM538.13,86.41c1-.83,1.49-1.82,1.49-3.15,0-4.48-1-8.63-2.49-12.28-1.66-3.65-3.65-6.64-6.3-9.29-2.65-2.65-5.64-4.64-9.12-5.97s-6.97-1.99-10.62-1.99c-4.98,0-9.62,1.33-14.1,3.82-4.48,2.65-7.96,6.3-10.78,11.28s-4.15,10.78-4.15,17.75c0,6.3,1.33,11.78,3.98,16.42,2.65,4.81,6.3,8.46,11.11,11.28,4.81,2.65,10.45,4.15,16.92,4.15,4.31,0,8.29-1,12.11-2.82,3.82-1.82,6.8-3.98,9.12-6.47,1.33-1.16,1.99-2.32,1.99-3.65,0-1.16-.33-2.16-1.16-2.82-.83-.83-1.82-1.16-2.82-1.16s-2.16.33-3.15,1c-1,1.16-2.32,2.16-3.82,3.32-1.49,1-3.32,1.99-5.31,2.65-2.16.66-4.48,1-7.3,1-4.48,0-8.46-1-11.78-2.99s-5.97-4.81-7.8-8.29c-1.66-2.99-2.49-6.47-2.82-10.45h43.63c1.16,0,2.16-.5,3.15-1.33h0Z"/>
  <path class="st2" d="M603.16,86.08c0-4.64-1-8.63-2.82-12.11s-4.48-6.3-7.63-8.29-6.8-2.99-10.78-2.99-7.8,1-10.95,2.99-5.81,4.81-7.8,8.29-2.82,7.47-2.82,12.11,1,8.63,2.82,12.11c1.99,3.48,4.48,6.3,7.8,8.29,3.15,1.99,6.97,2.99,10.95,2.99s7.63-1,10.78-2.99c3.32-1.99,5.81-4.81,7.63-8.29,1.82-3.65,2.82-7.63,2.82-12.11h0ZM612.78,86.08c0,6.3-1.33,11.78-4.15,16.59s-6.47,8.63-11.11,11.45c-4.64,2.82-9.95,4.15-15.76,4.15s-11.11-1.33-15.76-4.15-8.46-6.64-11.28-11.45c-2.82-4.81-4.15-10.45-4.15-16.59s1.33-11.78,4.15-16.59,6.47-8.63,11.28-11.45c4.64-2.82,9.95-4.15,15.76-4.15s11.11,1.33,15.76,4.15,8.46,6.64,11.11,11.45c2.82,4.81,4.15,10.29,4.15,16.59h0Z"/>
  <path class="st2" d="M623.56,107.32c-.66-1-1-2.16-.83-3.32,0-1.16.66-2.16,1.99-2.99.83-.5,1.82-.83,2.99-.66,1,0,1.99.66,2.99,1.49,2.16,2.65,4.81,4.81,7.63,6.3,2.82,1.49,6.47,2.32,10.62,2.32,1.82,0,3.65-.33,5.64-1,1.99-.5,3.65-1.49,4.98-2.99,1.33-1.33,1.99-3.32,1.99-5.64,0-2.16-.66-3.98-1.99-5.31-1.33-1.33-3.15-2.32-5.31-3.15-2.16-.83-4.48-1.66-6.97-2.16-2.65-.66-5.31-1.49-7.8-2.32s-4.81-1.99-6.97-3.48c-1.99-1.33-3.65-3.15-4.98-5.31-1.16-2.16-1.82-4.81-1.82-7.8,0-3.65,1-6.64,2.99-9.29,1.99-2.65,4.64-4.64,7.8-6.14,3.32-1.49,6.97-2.16,10.95-2.16,2.16,0,4.64.33,6.97.83,2.49.5,4.81,1.33,7.13,2.65,2.32,1.16,4.31,2.99,6.14,5.14.66.83,1.16,1.82,1.16,2.99s-.5,2.32-1.49,3.32c-.83.66-1.82,1-2.99.83-1.16,0-1.99-.5-2.65-1.16-1.82-2.16-3.82-3.65-6.47-4.81-2.49-1-5.31-1.66-8.29-1.66-1.82,0-3.65.33-5.47.83-1.82.66-3.32,1.49-4.64,2.82-1.16,1.33-1.82,3.15-1.82,5.31s.83,3.98,2.16,5.31,3.15,2.49,5.47,3.32,4.81,1.66,7.63,2.49c2.49.66,4.98,1.33,7.3,2.16s4.48,1.99,6.47,3.32c1.99,1.33,3.48,3.15,4.48,5.14,1.16,2.16,1.66,4.81,1.66,7.96,0,3.65-1,6.8-3.15,9.46-2.16,2.65-4.81,4.64-8.13,6.14-3.32,1.33-6.97,2.16-10.95,2.16-4.31,0-8.79-.83-13.11-2.49-4.48-1.49-8.13-4.31-11.28-8.46h0Z"/>
  <path class="st2" d="M711.32,53.73c4.15,0,7.8.5,11.11,1.33s5.81,2.16,7.8,3.65,2.82,3.15,2.82,5.14c0,1.16-.33,2.16-1,3.15-.66,1-1.66,1.49-2.99,1.49-1,0-1.82-.17-2.65-.66-.66-.5-1.33-1-1.99-1.49-.66-.66-1.49-1.16-2.49-1.66s-2.32-.83-4.15-1.33c-1.82-.33-3.65-.5-5.47-.5-4.31,0-8.29,1-11.61,3.15-3.32,2.16-5.97,4.81-7.8,8.46-1.99,3.48-2.82,7.47-2.82,11.94s1,8.46,2.82,11.94c1.82,3.48,4.31,6.3,7.63,8.46s7.13,3.15,11.45,3.15c2.82,0,4.98-.17,6.64-.66,1.66-.5,2.99-1,4.31-1.66,1.33-.83,2.49-1.66,3.15-2.32.83-.83,1.82-1.16,3.15-1.16s2.49.5,3.15,1.33c.83.83,1.16,1.99,1.16,3.15,0,1.49-1,3.15-2.99,4.64-1.99,1.66-4.64,2.99-8.13,3.98-3.48,1-7.3,1.66-11.45,1.66-6.14,0-11.45-1.49-15.93-4.31-4.48-2.82-8.13-6.64-10.62-11.61s-3.82-10.45-3.82-16.42,1.33-11.61,3.82-16.42c2.65-4.81,6.14-8.79,10.78-11.61,4.64-3.48,10.12-4.81,16.09-4.81h0Z"/>
  <path class="st1" d="M394.3,58.87c-5.31-3.32-11.28-5.14-17.58-5.14s-12.28,1.82-17.58,5.14c-1,.66-1.82,1.82-1.82,3.15-.17,1.33.33,2.65,1.16,3.48l1.82,1.82c.83.83,1.99,1.33,2.99,1.33.83,0,1.49-.17,2.16-.66,3.32-2.16,7.3-3.15,11.28-3.15s7.8,1.16,11.28,3.15c1.66,1,3.82.83,5.31-.66l1.82-1.82c1-1,1.33-2.16,1.16-3.48-.17-1.33-.83-2.49-1.99-3.15h0Z"/>
  <path class="st0" d="M371.91,107.15c-9.79-2.32-16.59-10.95-16.59-21.07,0-3.98,1.16-7.96,3.15-11.28,1-1.66.83-3.65-.66-4.98l-1.82-1.82c-.83-.83-2.16-1.33-3.32-1.16s-2.32.83-2.99,1.82c-3.32,5.14-5.14,11.28-5.14,17.42,0,15.1,10.78,28.37,25.55,31.52.33,0,.5.17.83.17.83,0,1.82-.33,2.49-.83,1-.83,1.49-1.99,1.49-3.15v-2.49c0-1.99-1.33-3.65-2.99-4.15h0Z"/>
  <path class="st1" d="M430.63,53.9c-17.75,0-32.35,14.43-32.35,32.35v.33c-.17,10.12-7.47,18.91-17.42,20.9-1.33.33-2.32,1.49-2.32,2.82v4.98c0,.83.33,1.66,1,2.16s1.49.83,2.32.66c15.59-2.49,27.04-15.93,27.04-31.85,0-11.94,9.62-21.57,21.57-21.57s21.57,9.62,21.57,21.57-9.62,21.57-21.57,21.57c-2.99,0-5.31,2.32-5.31,5.31s2.32,5.31,5.31,5.31c17.75,0,32.35-14.43,32.35-32.35.17-17.75-14.27-32.18-32.18-32.18h0Z"/>
  <polygon class="st2" points="304.06 150.61 305.55 150.61 305.55 21.38 304.06 21.38 304.06 150.61"/>
  <path class="st2" d="M94.54,107.98c2.82,0,4.98-.66,6.47-1.99s2.32-3.15,2.32-5.64c0-2.32-.83-4.15-2.32-5.47s-3.65-2.16-6.3-2.16h-9.12v24.72h3.32v-9.79h5.64v.33ZM88.73,95.54h6.14c1.66,0,2.82.5,3.82,1.33s1.33,1.99,1.33,3.48-.5,2.82-1.33,3.65c-1,.83-2.32,1.16-3.98,1.16h-5.81v-9.62h-.17ZM115.77,99.19c-.33-.17-.83-.17-1.33-.17-1.82,0-3.32.83-4.31,2.49v-2.16h-2.99v18.41h3.15v-13.11c.66-1.82,2.16-2.65,4.15-2.65.5,0,1,0,1.49.17l-.17-2.99h0ZM117.6,108.48c0,2.82.83,5.14,2.32,6.97,1.49,1.66,3.65,2.65,6.14,2.65,1.66,0,3.15-.33,4.48-1.16s2.32-1.82,2.99-3.32,1-2.99,1-4.81v-.17c0-2.82-.83-5.14-2.32-6.97-1.49-1.66-3.65-2.65-6.14-2.65-1.66,0-2.99.33-4.31,1.16s-2.32,1.82-2.99,3.32c-.66,1.49-1,2.99-1,4.81l-.17.17h0ZM122.07,103.33c1-1.16,2.16-1.82,3.82-1.82s2.82.66,3.82,1.82c1,1.33,1.49,2.82,1.49,4.98,0,2.32-.5,3.98-1.49,5.31s-2.16,1.82-3.82,1.82-2.82-.66-3.82-1.82c-1-1.16-1.49-2.82-1.49-4.98.17-2.32.66-4.15,1.49-5.31h0ZM139.49,115.44c1.33,1.66,3.15,2.65,5.31,2.65s3.98-.66,5.14-2.16v1.66c0,1.49-.5,2.82-1.33,3.65s-1.99,1.33-3.65,1.33c-1.99,0-3.65-.83-4.98-2.49l-1.66,1.82c.66,1,1.66,1.82,2.99,2.32s2.65.83,3.98.83c2.32,0,4.31-.66,5.64-1.99,1.49-1.33,2.16-3.32,2.16-5.64v-17.92h-2.82l-.17,1.99c-1.33-1.66-2.99-2.32-5.31-2.32-2.16,0-3.98.83-5.31,2.49s-1.99,3.98-1.99,6.8.66,5.14,1.99,6.97h0ZM141.98,103.33c.83-1.16,1.99-1.82,3.65-1.82,1.99,0,3.32.83,4.31,2.65v8.46c-1,1.82-2.32,2.65-4.31,2.65-1.49,0-2.65-.66-3.65-1.82-.83-1.16-1.33-2.82-1.33-4.98,0-2.16.5-3.98,1.33-5.14h0ZM166.7,99.19c-.33-.17-.83-.17-1.33-.17-1.82,0-3.32.83-4.31,2.49v-2.16h-3.15v18.41h3.15v-13.11c.66-1.82,2.16-2.65,4.15-2.65.5,0,1,0,1.49.17v-2.99h0ZM183.62,117.6v-.33c-.5-1-.66-2.32-.66-3.98v-8.46c0-1.82-.66-3.32-1.82-4.31-1.16-1-2.82-1.66-4.98-1.66-1.33,0-2.49.17-3.65.83s-1.99,1.16-2.65,1.99c-.66.83-1,1.82-1,2.65h3.15c0-.83.33-1.49,1.16-1.99s1.66-.83,2.82-.83c1.33,0,2.32.33,2.99,1s1,1.49,1,2.65v1.49h-2.99c-2.65,0-4.64.5-6.14,1.66-1.49,1-2.16,2.49-2.16,4.48,0,1.66.5,2.82,1.82,3.98,1.16,1,2.65,1.49,4.48,1.49,1.99,0,3.82-.83,5.31-2.32.17,1,.33,1.66.5,1.99l2.82-.33h0ZM172.51,114.45c-.66-.5-1-1.33-1-2.32,0-2.32,1.99-3.32,5.81-3.32h2.49v3.82c-.33.83-1,1.49-1.99,1.99-.83.5-1.82.83-2.82.83-1-.17-1.82-.5-2.49-1h0ZM187.93,99.19v18.41h3.15v-13.44c.83-1.82,2.16-2.65,4.31-2.65,2.65,0,3.98,1.33,3.98,3.98v12.11h3.15v-12.28c.17-1.16.5-2.16,1.33-2.82s1.66-1,2.99-1c1.49,0,2.49.33,2.99,1,.66.66.83,1.66.83,2.99v12.11h3.15v-12.28c0-4.31-2.16-6.47-6.14-6.47-1.33,0-2.49.33-3.48.83s-1.82,1.33-2.32,2.16c-1-1.99-2.65-2.99-5.31-2.99-2.32,0-4.15.83-5.47,2.32l-.17-1.99h-2.99ZM218.46,99.19v18.41h3.15v-13.44c.83-1.82,2.16-2.65,4.31-2.65,2.65,0,3.98,1.33,3.98,3.98v12.11h3.15v-12.28c.17-1.16.5-2.16,1.33-2.82s1.82-1,2.99-1c1.49,0,2.49.33,2.99,1,.66.66.83,1.66.83,2.99v12.11h3.15v-12.28c0-4.31-2.16-6.47-6.14-6.47-1.33,0-2.49.33-3.48.83s-1.82,1.33-2.32,2.16c-1-1.99-2.65-2.99-5.31-2.99-2.32,0-4.15.83-5.47,2.32l-.17-1.99h-2.99ZM263.75,114.45l-1.99-1.49c-.5.83-1.33,1.33-1.99,1.82-.83.5-1.66.66-2.82.66-1.49,0-2.82-.5-3.82-1.66s-1.49-2.65-1.66-4.48h12.44v-1.33c0-2.99-.66-5.14-1.99-6.8s-3.15-2.32-5.64-2.32c-1.49,0-2.82.33-4.15,1.16s-2.16,1.99-2.99,3.32c-.66,1.49-1,3.15-1,4.98v.5c0,2.82.83,4.98,2.32,6.64s3.65,2.49,6.14,2.49c3.15,0,5.47-1.16,7.13-3.48h0ZM259.43,102.84c.83.83,1.16,2.16,1.33,3.65v.17h-9.29c.17-1.66.66-2.99,1.66-3.82.83-1,1.99-1.33,3.15-1.33,1.33,0,2.32.33,3.15,1.33h0Z"/>
  <path class="st2" d="M52.57,52.07h-3.32v19.24l-12.44-19.24h-3.32v24.72h3.32v-19.08l12.44,19.08h3.32v-24.72h0ZM72.47,76.96v-.33c-.5-1-.66-2.32-.66-3.98v-8.46c0-1.82-.66-3.32-1.82-4.31s-2.82-1.66-4.98-1.66c-1.33,0-2.49.17-3.65.83s-1.99,1.16-2.65,1.99-1,1.82-1,2.65h3.15c0-.83.33-1.49,1.16-1.99s1.66-.83,2.82-.83c1.33,0,2.32.33,2.99,1,.66.66,1,1.49,1,2.65v1.49h-2.99c-2.65,0-4.64.5-6.14,1.66-1.49,1-2.16,2.49-2.16,4.48,0,1.66.66,2.82,1.82,3.98,1.16,1,2.65,1.49,4.48,1.49,1.99,0,3.82-.83,5.31-2.32.17,1,.33,1.66.5,1.99l2.82-.33h0ZM61.52,73.64c-.66-.5-1-1.33-1-2.32,0-2.32,1.99-3.32,5.81-3.32h2.49v3.82c-.33.83-1,1.49-1.99,1.99-.83.5-1.82.83-2.82.83-1-.17-1.82-.33-2.49-1h0ZM77.95,54.06v4.48h-3.32v2.49h3.32v11.45c0,1.49.33,2.82,1,3.65s1.82,1.33,3.15,1.33c.83,0,1.66-.17,2.49-.33v-2.49c-.66.17-1.16.17-1.49.17-.66,0-1.33-.17-1.49-.5-.33-.33-.5-1-.5-1.66v-11.45h3.48v-2.49h-3.48v-4.48l-3.15-.17h0ZM91.72,58.54h-3.15v18.41h3.15v-18.41h0ZM88.73,54.89c.33.33.83.5,1.33.5.66,0,1-.17,1.33-.5s.5-.83.5-1.33-.17-1-.5-1.33-.83-.5-1.33-.5c-.66,0-1,.17-1.33.5s-.5.83-.5,1.33.17,1,.5,1.33h0ZM95.86,67.83c0,2.82.83,5.14,2.32,6.97,1.49,1.66,3.65,2.65,6.14,2.65,1.66,0,3.15-.33,4.48-1.16s2.32-1.82,2.99-3.32,1-2.99,1-4.81v-.17c0-2.82-.83-5.14-2.32-6.97-1.49-1.66-3.65-2.65-6.14-2.65-1.66,0-2.99.33-4.31,1.16s-2.32,1.82-2.99,3.32c-.66,1.49-1,2.99-1,4.81l-.17.17h0ZM100.51,62.69c1-1.16,2.16-1.82,3.82-1.82s2.82.66,3.82,1.82c1,1.33,1.49,2.82,1.49,4.98,0,2.32-.5,3.98-1.49,5.31-1,1.33-2.16,1.82-3.82,1.82s-2.82-.66-3.82-1.82c-1-1.16-1.49-2.82-1.49-4.98,0-2.32.5-4.15,1.49-5.31h0ZM116.6,58.54v18.41h3.15v-13.11c.5-.83,1-1.66,1.82-2.16s1.66-.83,2.65-.83c1.33,0,2.16.33,2.82,1,.66.66.83,1.66.83,2.99v12.28h3.15v-12.11c0-4.31-1.99-6.64-5.97-6.64-2.32,0-4.15.83-5.47,2.65l-.17-2.32h-2.82v-.17ZM150.44,76.96v-.33c-.5-1-.66-2.32-.66-3.98v-8.46c0-1.82-.66-3.32-1.82-4.31-1.16-1-2.82-1.66-4.98-1.66-1.33,0-2.49.17-3.65.83-1.16.5-1.99,1.16-2.65,1.99-.66.83-1,1.82-1,2.65h3.15c0-.83.33-1.49,1.16-1.99s1.66-.83,2.82-.83c1.33,0,2.32.33,2.99,1s1,1.49,1,2.65v1.49h-2.99c-2.65,0-4.64.5-6.14,1.66-1.49,1-2.16,2.49-2.16,4.48,0,1.66.66,2.82,1.82,3.98,1.16,1,2.65,1.49,4.48,1.49,1.99,0,3.82-.83,5.31-2.32.17,1,.33,1.66.5,1.99l2.82-.33h0ZM139.49,73.64c-.66-.5-1-1.33-1-2.32,0-2.32,1.99-3.32,5.81-3.32h2.49v3.82c-.33.83-1,1.49-1.99,1.99-.83.5-1.82.83-2.82.83-1-.17-1.82-.33-2.49-1h0ZM158.24,50.75h-3.15v26.21h3.15v-26.21h0ZM187.27,69.16c-.33,1.99-1,3.48-1.99,4.31-1,.83-2.32,1.16-4.15,1.16-1.99,0-3.65-.83-4.64-2.32-1.16-1.66-1.66-3.82-1.66-6.47v-2.49c0-2.82.66-4.98,1.82-6.64,1.16-1.49,2.82-2.32,4.98-2.32,1.66,0,2.99.5,3.98,1.33,1,.83,1.49,2.32,1.82,4.31h3.32c-.33-2.65-1.16-4.64-2.82-6.14s-3.65-2.16-6.3-2.16c-1.99,0-3.82.5-5.31,1.33-1.49,1-2.65,2.32-3.48,3.98-.83,1.82-1.16,3.82-1.16,6.14v2.32c0,3.48.83,6.3,2.65,8.46s4.15,3.15,6.97,3.15c2.65,0,4.81-.66,6.47-2.16s2.65-3.48,2.99-6.14h-3.48v.33ZM207.84,60.7v-2.16h-13.93v2.65h9.95l-10.12,13.44v2.32h14.6v-2.65h-10.78l10.29-13.6h0ZM226.25,73.81l-1.99-1.49c-.5.83-1.33,1.33-1.99,1.82-.83.5-1.66.66-2.82.66-1.49,0-2.82-.5-3.82-1.66s-1.49-2.65-1.66-4.48h12.44v-1.33c0-2.99-.66-5.14-1.99-6.8s-3.15-2.32-5.64-2.32c-1.49,0-2.82.33-4.15,1.16s-2.16,1.99-2.99,3.32-1,3.15-1,4.98v.5c0,2.82.83,4.98,2.32,6.64s3.65,2.49,6.14,2.49c3.15,0,5.47-1.16,7.13-3.48h0ZM221.94,62.03c.83.83,1.16,2.16,1.33,3.65v.17h-9.29c.17-1.66.66-2.99,1.66-3.82.83-1,1.99-1.33,3.15-1.33,1.33,0,2.49.5,3.15,1.33h0ZM233.72,72.98c-.83-1.16-1.33-2.82-1.33-4.98v-.66c0-2.16.5-3.82,1.33-4.98s2.16-1.66,3.65-1.66c1.16,0,2.16.33,2.99,1.16s1.33,1.82,1.33,2.99h2.99c-.17-1.99-.83-3.65-2.16-4.81s-3.15-1.82-5.14-1.82c-1.66,0-3.15.33-4.31,1.16-1.16.83-2.16,1.82-2.82,3.32-.66,1.33-1,2.99-1,4.81v.5c0,2.99.66,5.14,2.16,6.8,1.49,1.66,3.48,2.49,5.97,2.49,1.33,0,2.49-.33,3.48-.83,1.16-.5,1.99-1.33,2.65-2.32.66-1,1-1.99,1.16-2.99h-2.99c-.17,1-.5,1.82-1.33,2.49s-1.82,1-2.99,1c-1.49,0-2.82-.5-3.65-1.66h0ZM251.47,50.75h-3.15v26.21h3.15v-13.11c.5-.83,1-1.66,1.82-2.16s1.66-.83,2.65-.83c1.33,0,2.16.33,2.82,1,.66.66.83,1.66.83,2.99v12.28h3.15v-12.11c0-4.31-1.99-6.64-5.97-6.64-2.16,0-3.98.83-5.47,2.65v-10.29h.17Z"/>
</svg>