<svg xmlns="http://www.w3.org/2000/svg" viewBox="0 0 550.14 79.37"><defs><style>.cls-1{fill:#448e99;}.cls-2{fill:#808285;}.cls-3{fill:#fff;}.cls-4{fill:#034ea2;}.cls-5{fill:#f6ec42;}</style></defs><title>EU+MŠMT</title><g id="Layer_2" data-name="Layer 2"><g id="Layer_1-2" data-name="Layer 1"><path class="cls-1" d="M484.9,6.85l7.78-4.63h-2.46l-7.15,3.22L475.8,2.22h-2.32l7.84,4.63Zm3.78,25c3.41-1.1,5.94-3,6.28-5.7,0-3.79-4.43-5.3-8.79-6.2-6.33-1.26-10.83-2.31-11.54-5.05a2.27,2.27,0,0,1-.14-.87c.14-3,4.29-4.79,8.09-4.79s6.33.5,8.8,2.81l2.11-.69c-2.75-2.45-6.48-3.1-10.91-3.1a21.19,21.19,0,0,0-9.1,1.73V2.22h-5.61L453.56,20.78h-.13L438.85,2.22h-5.47V25h2.67V5.1l16,20.25h-4.93V48.08h2.26V28.22l16.22,20.49h.07L482,27.94V48.08h4.79V33h8.47v21.2h4.93V33h10.19V31.88Zm-1.85-1.31V25.35h-5.61l-4.59,5.95a10.45,10.45,0,0,1-4.88-2.66l-2.33.86a12.83,12.83,0,0,0,6.34,2.94L466.92,43.9h-.14L452.37,25.55,468.68,4.82V25h4.8V19.42A69.61,69.61,0,0,0,483,21.89c5.21,1.12,6.76,3.1,6.76,5,0,1.48-1.06,2.78-2.93,3.67"/><polygon class="cls-2" points="392.32 59.88 393.46 59.88 396.49 66.39 399.57 59.88 400.62 59.88 400.62 67.06 399.91 67.06 399.94 60.5 396.9 67.06 396.08 67.06 392.95 60.5 393.02 67.06 392.32 67.06 392.32 59.88"/><rect class="cls-2" x="403.36" y="59.88" width="0.72" height="7.18"/><polygon class="cls-2" points="406.81 59.88 407.73 59.88 412.75 66.32 412.75 59.88 413.45 59.88 413.45 67.06 412.49 67.06 407.51 60.62 407.51 67.06 406.81 67.06 406.81 59.88"/><rect class="cls-2" x="416.19" y="59.88" width="0.72" height="7.18"/><path class="cls-2" d="M420.1,64.69v0c0,1.09.88,1.81,2.27,1.81s2.23-.59,2.23-1.47-.58-1-1.79-1.24l-1.53-.27c-1.14-.2-1.7-.79-1.7-1.79,0-1.23,1-2.07,2.73-2.07s2.79.83,2.83,2.2h-.72c-.09-1-.8-1.55-2.09-1.55s-2,.56-2,1.38.59,1,1.79,1.22l1.37.24c1.3.23,1.89.79,1.89,1.85,0,1.38-1.07,2.21-2.92,2.21s-3.07-1-3.07-2.45v-.1h.73Z"/><polygon class="cls-2" points="429.73 60.54 426.96 60.54 426.96 59.88 433.22 59.88 433.22 60.54 430.44 60.54 430.44 67.06 429.73 67.06 429.73 60.54"/><polygon class="cls-2" points="435.08 59.88 440.6 59.88 440.6 60.55 435.8 60.55 435.8 63.06 440.23 63.06 440.23 63.74 435.8 63.74 435.8 66.38 440.6 66.38 440.6 67.06 435.08 67.06 435.08 59.88"/><path class="cls-2" d="M442.9,59.88h3.44c1.71,0,2.58.65,2.58,1.93a1.67,1.67,0,0,1-1.24,1.79c.81.13,1,.51,1.1,1.36a5.35,5.35,0,0,0,.35,2.1h-.84A10.87,10.87,0,0,1,448,65c-.09-.74-.5-1-1.4-1h-3v3.08h-.72Zm.72.67V63.3h2.64c1.33,0,1.93-.37,1.93-1.38s-.63-1.37-2-1.37Z"/><path class="cls-2" d="M451.88,64.69v0c0,1.09.88,1.81,2.28,1.81s2.22-.59,2.22-1.47-.57-1-1.79-1.24l-1.53-.27c-1.14-.2-1.7-.79-1.7-1.79,0-1.23,1-2.07,2.74-2.07s2.78.83,2.82,2.2h-.72c-.08-1-.8-1.55-2.08-1.55s-2,.56-2,1.38.59,1,1.79,1.22l1.36.24c1.3.23,1.89.79,1.89,1.85,0,1.38-1.06,2.21-2.91,2.21s-3.07-1-3.07-2.45v-.1h.72Z"/><polygon class="cls-2" points="461.51 60.54 458.74 60.54 458.74 59.88 465 59.88 465 60.54 462.23 60.54 462.23 67.06 461.51 67.06 461.51 60.54"/><polygon class="cls-2" points="466.07 59.88 466.85 59.88 469.74 66.44 472.62 59.88 473.41 59.88 470.19 67.06 469.28 67.06 466.07 59.88"/><path class="cls-2" d="M478.53,67.25a3.78,3.78,0,1,1,3.77-3.78,3.48,3.48,0,0,1-3.77,3.78m3-3.78a3,3,0,1,0-3,3.08,2.81,2.81,0,0,0,3-3.08"/><path class="cls-2" d="M489.31,64.69v0c0,1.09.89,1.81,2.28,1.81s2.23-.59,2.23-1.47-.58-1-1.79-1.24l-1.53-.27c-1.14-.2-1.7-.79-1.7-1.79,0-1.23,1-2.07,2.73-2.07s2.78.83,2.83,2.2h-.72c-.09-1-.81-1.55-2.09-1.55s-2,.56-2,1.38.59,1,1.79,1.22l1.37.24c1.3.23,1.89.79,1.89,1.85,0,1.38-1.07,2.21-2.92,2.21s-3.07-1-3.07-2.45v-.1h.72Zm3.25-7h.77L492,59.16h-.82l-1.38-1.47h.77l1,1.06Z"/><polygon class="cls-2" points="497 59.88 497.71 59.88 497.71 63.81 502.16 59.88 503.15 59.88 499.77 62.89 503.15 67.06 502.24 67.06 499.24 63.35 497.71 64.69 497.71 67.06 497 67.06 497 59.88"/><path class="cls-2" d="M508.13,67.25a3.78,3.78,0,1,1,3.78-3.78,3.48,3.48,0,0,1-3.78,3.78m3.05-3.78a3,3,0,1,0-3.05,3.08,2.82,2.82,0,0,0,3.05-3.08"/><polygon class="cls-2" points="514.25 59.88 514.96 59.88 514.96 66.38 519.48 66.38 519.48 67.06 514.25 67.06 514.25 59.88"/><path class="cls-2" d="M522.05,64.69v0c0,1.09.89,1.81,2.28,1.81s2.23-.59,2.23-1.47-.58-1-1.79-1.24l-1.53-.27c-1.15-.2-1.7-.79-1.7-1.79,0-1.23,1-2.07,2.73-2.07s2.78.83,2.82,2.2h-.71c-.09-1-.81-1.55-2.09-1.55s-2,.56-2,1.38.59,1,1.79,1.22l1.36.24c1.31.23,1.89.79,1.89,1.85,0,1.38-1.06,2.21-2.91,2.21s-3.07-1-3.07-2.45v-.1h.72Z"/><polygon class="cls-2" points="531.69 60.54 528.91 60.54 528.91 59.88 535.18 59.88 535.18 60.54 532.4 60.54 532.4 67.06 531.69 67.06 531.69 60.54"/><polygon class="cls-2" points="536.24 59.88 537.03 59.88 539.91 66.44 542.79 59.88 543.58 59.88 540.35 67.06 539.45 67.06 536.24 59.88"/><path class="cls-2" d="M545.51,59.88h.72v7.18h-.72Zm.94-2.19h.91l-1.18,1.47h-.58Z"/><path class="cls-2" d="M549.33,66.19h.81v1.16c0,.69-.18,1.05-.81,1.26v-.46a.63.63,0,0,0,.36-.66v-.43h-.36Z"/><polygon class="cls-2" points="404.47 71.03 405.42 71.03 407.93 76.44 410.48 71.03 411.36 71.03 411.36 76.99 410.77 76.99 410.8 71.54 408.27 76.99 407.59 76.99 405 71.54 405.05 76.99 404.47 76.99 404.47 71.03"/><polygon class="cls-2" points="413.43 71.03 414.02 71.03 414.02 76.43 417.77 76.43 417.77 76.99 413.43 76.99 413.43 71.03"/><path class="cls-2" d="M421.48,71h.68l2.72,6h-.61l-.83-1.84h-3.26L419.34,77h-.61Zm1.7,3.54-1.36-3-1.38,3Zm-.91-5.36H423l-1,1.22h-.49Z"/><path class="cls-2" d="M430.93,71.57a3.61,3.61,0,0,1,0,4.88,3.84,3.84,0,0,1-2.45.54h-2.17V71h2.17a3.84,3.84,0,0,1,2.45.54m-4,0v4.85h1.57a3.5,3.5,0,0,0,2-.38,2.27,2.27,0,0,0,.83-2.07,2.23,2.23,0,0,0-.83-2,3.77,3.77,0,0,0-2.09-.37Z"/><polygon class="cls-2" points="433.66 71.03 438.24 71.03 438.24 71.58 434.25 71.58 434.25 73.67 437.93 73.67 437.93 74.23 434.25 74.23 434.25 76.43 438.24 76.43 438.24 76.99 433.66 76.99 433.66 71.03"/><path class="cls-2" d="M439.55,76.41l4.38-4.83h-4.16V71h5v.55l-4.47,4.83h4.47V77h-5.21Zm3.79-7.2H444l-1.14,1.22h-.68L441,69.21h.64l.85.88Z"/><polygon class="cls-2" points="446.39 71.03 450.97 71.03 450.97 71.58 446.99 71.58 446.99 73.67 450.67 73.67 450.67 74.23 446.99 74.23 446.99 76.43 450.97 76.43 450.97 76.99 446.39 76.99 446.39 71.03"/><path class="cls-2" d="M458.17,71h.68l2.72,6H461l-.84-1.84h-3.26L456,77h-.61Zm1.7,3.54-1.36-3-1.37,3Z"/><polygon class="cls-2" points="467.96 71.58 465.65 71.58 465.65 71.03 470.85 71.03 470.85 71.58 468.55 71.58 468.55 76.99 467.96 76.99 467.96 71.58"/><path class="cls-2" d="M472.23,71h4.58v.55h-4v2.09h3.68v.57h-3.68v2.19h4V77h-4.58Zm3.19-1.82h.63l-1.14,1.22h-.68l-1.15-1.22h.64l.85.88Z"/><polygon class="cls-2" points="478.56 71.03 479.16 71.03 479.16 76.43 482.9 76.43 482.9 76.99 478.56 76.99 478.56 71.03"/><path class="cls-2" d="M486.72,77.15A3.14,3.14,0,1,1,489.86,74a2.89,2.89,0,0,1-3.14,3.14M489.25,74a2.53,2.53,0,1,0-2.53,2.56A2.34,2.34,0,0,0,489.25,74"/><polygon class="cls-2" points="490.82 71.03 491.47 71.03 493.87 76.48 496.25 71.03 496.91 71.03 494.24 76.99 493.48 76.99 490.82 71.03"/><path class="cls-2" d="M500.28,74.42,497.71,71h.76l2.1,2.91L502.7,71h.74l-2.57,3.39V77h-.59Zm.86-5.21h.75l-1,1.22h-.49Z"/><path class="cls-2" d="M507.74,71.45A2.35,2.35,0,0,0,505.22,74a2.32,2.32,0,0,0,2.4,2.55A2.27,2.27,0,0,0,510,74.75h.64a2.85,2.85,0,0,1-3,2.4,3.14,3.14,0,0,1,.11-6.27,2.49,2.49,0,0,1,2.76,2.1h-.6a2,2,0,0,0-2.17-1.53"/><polygon class="cls-2" points="512.25 71.03 512.85 71.03 512.85 73.52 516.72 73.52 516.72 71.03 517.32 71.03 517.32 76.99 516.72 76.99 516.72 74.08 512.85 74.08 512.85 76.99 512.25 76.99 512.25 71.03"/><path class="cls-2" d="M522.23,77.15A3.14,3.14,0,1,1,525.36,74a2.89,2.89,0,0,1-3.13,3.14M524.75,74a2.53,2.53,0,1,0-2.52,2.56A2.33,2.33,0,0,0,524.75,74"/><polygon class="cls-2" points="526.32 71.03 526.97 71.03 529.37 76.48 531.76 71.03 532.41 71.03 529.74 76.99 528.99 76.99 526.32 71.03"/><polygon class="cls-2" points="535.78 74.42 533.21 71.03 533.97 71.03 536.08 73.94 538.21 71.03 538.94 71.03 536.38 74.42 536.38 76.99 535.78 76.99 535.78 74.42"/><rect class="cls-3" width="116.88" height="79.37"/><rect class="cls-4" x="2.25" y="2.18" width="112.39" height="74.93"/><polygon class="cls-5" points="56.05 18.5 58.42 16.77 60.79 18.5 59.89 15.7 62.3 13.97 59.33 13.97 58.42 11.14 57.51 13.97 54.54 13.97 56.95 15.7 56.05 18.5"/><polygon class="cls-5" points="43.77 21.8 46.14 20.07 48.52 21.8 47.61 19 50.02 17.27 47.05 17.27 46.14 14.43 45.23 17.27 42.27 17.27 44.67 19 43.77 21.8"/><polygon class="cls-5" points="37.16 23.43 36.26 26.27 33.29 26.27 35.7 28 34.79 30.8 37.16 29.07 39.53 30.8 38.63 28 41.04 26.27 38.07 26.27 37.16 23.43"/><polygon class="cls-5" points="33.87 41.33 36.24 43.05 35.34 40.26 37.75 38.53 34.78 38.53 33.87 35.69 32.96 38.53 29.99 38.53 32.4 40.26 31.5 43.05 33.87 41.33"/><polygon class="cls-5" points="38.07 50.82 37.16 47.98 36.26 50.82 33.29 50.82 35.7 52.55 34.79 55.35 37.16 53.62 39.53 55.35 38.63 52.55 41.04 50.82 38.07 50.82"/><polygon class="cls-5" points="47.07 59.82 46.16 56.98 45.26 59.82 42.29 59.82 44.69 61.55 43.79 64.35 46.16 62.62 48.53 64.35 47.63 61.55 50.04 59.82 47.07 59.82"/><polygon class="cls-5" points="59.33 63.08 58.42 60.24 57.51 63.08 54.54 63.08 56.95 64.81 56.05 67.61 58.42 65.88 60.79 67.61 59.89 64.81 62.3 63.08 59.33 63.08"/><polygon class="cls-5" points="71.58 59.82 70.68 56.98 69.77 59.82 66.8 59.82 69.21 61.55 68.31 64.35 70.68 62.62 73.05 64.35 72.14 61.55 74.55 59.82 71.58 59.82"/><polygon class="cls-5" points="80.58 50.82 79.67 47.98 78.76 50.82 75.8 50.82 78.21 52.55 77.3 55.35 79.67 53.62 82.05 55.35 81.14 52.55 83.55 50.82 80.58 50.82"/><polygon class="cls-5" points="86.81 38.49 83.84 38.49 82.93 35.66 82.03 38.5 79.06 38.49 81.46 40.22 80.56 43.02 82.93 41.29 85.3 43.02 84.4 40.22 86.81 38.49"/><polygon class="cls-5" points="77.3 30.76 79.67 29.03 82.05 30.76 81.14 27.96 83.55 26.23 80.58 26.23 79.67 23.4 78.77 26.24 75.8 26.23 78.21 27.96 77.3 30.76"/><polygon class="cls-5" points="70.71 14.44 69.81 17.27 66.84 17.27 69.24 19 68.34 21.8 70.72 20.07 73.08 21.8 72.18 19 74.59 17.27 71.62 17.27 70.71 14.44"/><path class="cls-4" d="M140,27.13a4.55,4.55,0,0,0,2.64-.61,2,2,0,0,0,.82-1.73,2.2,2.2,0,0,0-.28-1.15,2.7,2.7,0,0,0-.8-.86,6.15,6.15,0,0,0-1.26-.72c-.5-.22-1.06-.44-1.7-.66s-1.26-.48-1.85-.75a6.19,6.19,0,0,1-1.57-1,4.68,4.68,0,0,1-1.1-1.46,4.74,4.74,0,0,1-.41-2.05,4.82,4.82,0,0,1,1.73-3.93,7.21,7.21,0,0,1,4.71-1.42,11.49,11.49,0,0,1,3.08.38,9.59,9.59,0,0,1,2.11.84l-1,2.72a7.69,7.69,0,0,0-2-.77,9.12,9.12,0,0,0-2.22-.27,3.56,3.56,0,0,0-2.12.56,1.83,1.83,0,0,0-.75,1.57,2,2,0,0,0,.25,1.05,2.8,2.8,0,0,0,.72.79,5.9,5.9,0,0,0,1.09.63,11.81,11.81,0,0,0,1.37.56c.87.32,1.64.65,2.33,1A6.26,6.26,0,0,1,145.51,21a4.58,4.58,0,0,1,1.08,1.59,5.91,5.91,0,0,1,.37,2.23,4.61,4.61,0,0,1-1.77,3.87A8.37,8.37,0,0,1,140,30a13.42,13.42,0,0,1-2.09-.15,11.17,11.17,0,0,1-1.68-.36c-.48-.14-.9-.29-1.26-.43a8.43,8.43,0,0,1-.85-.42l1-2.74a11.36,11.36,0,0,0,1.95.8,9.74,9.74,0,0,0,2.95.4"/><path class="cls-4" d="M159,22.74a5.19,5.19,0,0,0-1-3.36,3.8,3.8,0,0,0-3.13-1.2c-.3,0-.62,0-.94,0a5.19,5.19,0,0,0-1,.18v8a5.2,5.2,0,0,0,1.13.54,4.37,4.37,0,0,0,1.5.25A2.88,2.88,0,0,0,158.18,26a5.69,5.69,0,0,0,.81-3.22m3.3-.06a10,10,0,0,1-.41,2.93,6.82,6.82,0,0,1-1.19,2.29,5.1,5.1,0,0,1-1.93,1.49,6.1,6.1,0,0,1-2.62.53,6.5,6.5,0,0,1-1.81-.24,6.33,6.33,0,0,1-1.35-.53v5.4h-3.23V16.16c.66-.18,1.47-.34,2.43-.5a18.33,18.33,0,0,1,3-.24,8.1,8.1,0,0,1,3,.5,6.16,6.16,0,0,1,2.22,1.45,6.5,6.5,0,0,1,1.41,2.29,8.7,8.7,0,0,1,.49,3"/><path class="cls-4" d="M174.91,22.66a5.47,5.47,0,0,0-.89-3.29,3.17,3.17,0,0,0-5,0,5.4,5.4,0,0,0-.89,3.29A5.47,5.47,0,0,0,169,26a3.14,3.14,0,0,0,5,0,5.54,5.54,0,0,0,.89-3.32m3.3,0a8.91,8.91,0,0,1-.48,3A6.59,6.59,0,0,1,176.37,28a6,6,0,0,1-2.11,1.49,6.78,6.78,0,0,1-2.73.53,6.67,6.67,0,0,1-2.72-.53,6.14,6.14,0,0,1-2.1-1.49,6.76,6.76,0,0,1-1.37-2.32,8.66,8.66,0,0,1-.49-3,8.66,8.66,0,0,1,.49-3,6.88,6.88,0,0,1,1.38-2.3,6.19,6.19,0,0,1,2.12-1.48,6.93,6.93,0,0,1,2.69-.52,7.06,7.06,0,0,1,2.7.52,6,6,0,0,1,2.12,1.48,7,7,0,0,1,1.37,2.3,8.9,8.9,0,0,1,.49,3"/><path class="cls-4" d="M186.38,29.9a9,9,0,0,1-2.38-.32,3.84,3.84,0,0,1-1.51-.84,3,3,0,0,1-.78-1.36,6.93,6.93,0,0,1-.23-1.85v-16L184.7,9v16a3.89,3.89,0,0,0,.1,1,1.5,1.5,0,0,0,.33.68,1.51,1.51,0,0,0,.65.43,4.92,4.92,0,0,0,1.05.22Z"/><path class="cls-4" d="M200.86,29.2c-.62.16-1.43.33-2.42.5a20.73,20.73,0,0,1-3.28.25,7.18,7.18,0,0,1-2.8-.48,4.44,4.44,0,0,1-1.81-1.33,5.24,5.24,0,0,1-1-2,11,11,0,0,1-.29-2.59v-7.8h3.22V23a5.85,5.85,0,0,0,.66,3.2,2.53,2.53,0,0,0,2.27.95c.39,0,.8,0,1.24,0a6.34,6.34,0,0,0,1-.13V15.71h3.22Z"/><path class="cls-4" d="M218.93,29.63h-3.22V15.71h3.22Zm.38-18a1.83,1.83,0,0,1-.59,1.43,2,2,0,0,1-1.38.54,2,2,0,0,1-1.41-.54,1.83,1.83,0,0,1-.59-1.43,1.91,1.91,0,0,1,.59-1.47,2,2,0,0,1,1.41-.53,2,2,0,0,1,1.38.53,1.91,1.91,0,0,1,.59,1.47M210.68,9a8.32,8.32,0,0,1,1.72.16,8.77,8.77,0,0,1,1.1.32l-.5,2.61a6.61,6.61,0,0,0-.89-.24,5.83,5.83,0,0,0-1.14-.1,2.5,2.5,0,0,0-2.19.85,3.75,3.75,0,0,0-.6,2.21v.93h5.11V18.4h-5.11V29.63H205V14.72a6,6,0,0,1,1.41-4.23A5.62,5.62,0,0,1,210.68,9"/><path class="cls-4" d="M223.06,16.16a21.31,21.31,0,0,1,2.42-.5,20.78,20.78,0,0,1,3.3-.24,7.59,7.59,0,0,1,2.85.46,4.43,4.43,0,0,1,1.82,1.31,4.93,4.93,0,0,1,1,2,11.06,11.06,0,0,1,.28,2.59v7.83h-3.22V22.31a10.3,10.3,0,0,0-.15-1.9,3.43,3.43,0,0,0-.47-1.28,2,2,0,0,0-.91-.72,3.83,3.83,0,0,0-1.4-.23,11.57,11.57,0,0,0-1.28.08l-1,.14V29.63h-3.22Z"/><path class="cls-4" d="M243.53,27.37a12.52,12.52,0,0,0,2.26-.16V23.64a6.2,6.2,0,0,0-.77-.16,7.66,7.66,0,0,0-1.12-.08,8.09,8.09,0,0,0-1.08.08,3.3,3.3,0,0,0-1,.29,1.9,1.9,0,0,0-.71.6,1.73,1.73,0,0,0-.26,1,1.7,1.7,0,0,0,.72,1.59,3.69,3.69,0,0,0,1.94.44m-.27-12a8,8,0,0,1,2.69.4,4.26,4.26,0,0,1,1.74,1.12,4.2,4.2,0,0,1,.94,1.74,8.89,8.89,0,0,1,.28,2.25v8.44q-.75.17-2.25.39a23.3,23.3,0,0,1-3.4.22,10.19,10.19,0,0,1-2.29-.24,4.76,4.76,0,0,1-1.77-.77,3.51,3.51,0,0,1-1.14-1.38,4.76,4.76,0,0,1-.41-2.11,4.08,4.08,0,0,1,.46-2,3.71,3.71,0,0,1,1.27-1.34,5.29,5.29,0,0,1,1.85-.75,10.43,10.43,0,0,1,2.19-.22,10.94,10.94,0,0,1,1.12.06,10.77,10.77,0,0,1,1.25.23v-.53a4.13,4.13,0,0,0-.13-1.07,2.25,2.25,0,0,0-.47-.89,2.09,2.09,0,0,0-.88-.6,3.83,3.83,0,0,0-1.37-.21,11.85,11.85,0,0,0-2.05.16,8.53,8.53,0,0,0-1.51.37L239,16a12.5,12.5,0,0,1,1.78-.42,13.22,13.22,0,0,1,2.5-.22"/><path class="cls-4" d="M252.84,16.16a21.55,21.55,0,0,1,2.43-.5,20.78,20.78,0,0,1,3.3-.24,7.67,7.67,0,0,1,2.85.46,4.43,4.43,0,0,1,1.82,1.31,5.06,5.06,0,0,1,1,2,11.62,11.62,0,0,1,.28,2.59v7.83h-3.22V22.31a10.3,10.3,0,0,0-.15-1.9,3.42,3.42,0,0,0-.48-1.28,1.89,1.89,0,0,0-.9-.72,3.87,3.87,0,0,0-1.4-.23,11.42,11.42,0,0,0-1.28.08c-.44.06-.77.1-1,.14V29.63h-3.23Z"/><path class="cls-4" d="M267.64,22.68a8.55,8.55,0,0,1,.48-2.89,6.75,6.75,0,0,1,1.38-2.32,6.16,6.16,0,0,1,2.16-1.55,7.18,7.18,0,0,1,2.88-.56,9.79,9.79,0,0,1,3.73.72l-.7,2.64a6.67,6.67,0,0,0-1.26-.4,6.57,6.57,0,0,0-1.5-.16,3.54,3.54,0,0,0-2.88,1.18,5.08,5.08,0,0,0-1,3.34,5.27,5.27,0,0,0,.93,3.29A3.72,3.72,0,0,0,275,27.18a8,8,0,0,0,1.62-.16,7.23,7.23,0,0,0,1.39-.4l.45,2.66a6.54,6.54,0,0,1-1.61.48,10.86,10.86,0,0,1-2.22.22,8.19,8.19,0,0,1-3.11-.55,5.9,5.9,0,0,1-2.18-1.52,6.15,6.15,0,0,1-1.29-2.31,9.76,9.76,0,0,1-.43-2.92"/><path class="cls-4" d="M290,22.66a5.47,5.47,0,0,0-.89-3.29,3.17,3.17,0,0,0-5,0,5.4,5.4,0,0,0-.89,3.29,5.47,5.47,0,0,0,.89,3.32,3.14,3.14,0,0,0,5,0,5.54,5.54,0,0,0,.89-3.32m3.3,0a8.91,8.91,0,0,1-.48,3A6.59,6.59,0,0,1,291.44,28a5.94,5.94,0,0,1-2.12,1.49,7.24,7.24,0,0,1-5.44,0,6.14,6.14,0,0,1-2.1-1.49,6.76,6.76,0,0,1-1.37-2.32,8.66,8.66,0,0,1-.49-3,8.66,8.66,0,0,1,.49-3,6.88,6.88,0,0,1,1.38-2.3,6.19,6.19,0,0,1,2.12-1.48,6.9,6.9,0,0,1,2.69-.52,7.06,7.06,0,0,1,2.7.52,5.88,5.88,0,0,1,2.11,1.48,6.88,6.88,0,0,1,1.38,2.3,8.9,8.9,0,0,1,.49,3"/><path class="cls-4" d="M299.87,29.63q-1.33-2.74-2.74-6.29c-.93-2.37-1.78-4.92-2.55-7.63H298c.2.78.43,1.62.69,2.51s.53,1.8.82,2.69.6,1.77.91,2.61.6,1.6.87,2.28c.27-.68.55-1.43.86-2.28s.6-1.71.89-2.61.58-1.79.85-2.69.49-1.73.69-2.51h3.33c-.77,2.71-1.62,5.26-2.55,7.63s-1.85,4.46-2.74,6.29Z"/><path class="cls-4" d="M318.94,10l-4.34,4.21L313,12.78l3.91-4.66Zm-3.76,17.36a12.64,12.64,0,0,0,2.27-.16V23.64a6.44,6.44,0,0,0-.78-.16,7.51,7.51,0,0,0-1.11-.08,7.85,7.85,0,0,0-1.08.08,3.36,3.36,0,0,0-1,.29,1.87,1.87,0,0,0-.7.6,1.66,1.66,0,0,0-.27,1,1.7,1.7,0,0,0,.72,1.59,3.74,3.74,0,0,0,1.94.44m-.26-12a8.07,8.07,0,0,1,2.69.4,4.4,4.4,0,0,1,1.74,1.12,4.3,4.3,0,0,1,.93,1.74,8.46,8.46,0,0,1,.28,2.25v8.44q-.75.17-2.25.39a23.06,23.06,0,0,1-3.39.22,10.13,10.13,0,0,1-2.29-.24,4.69,4.69,0,0,1-1.77-.77,3.62,3.62,0,0,1-1.15-1.38,4.9,4.9,0,0,1-.41-2.11,4.08,4.08,0,0,1,.47-2A3.77,3.77,0,0,1,311,22.06a5.37,5.37,0,0,1,1.85-.75,10.46,10.46,0,0,1,2.2-.22c.35,0,.72,0,1.12.06a11.6,11.6,0,0,1,1.25.23v-.53a4.13,4.13,0,0,0-.14-1.07,2.23,2.23,0,0,0-.46-.89,2.16,2.16,0,0,0-.88-.6,3.87,3.87,0,0,0-1.37-.21,11.77,11.77,0,0,0-2.05.16,8.67,8.67,0,0,0-1.52.37l-.4-2.61a12.7,12.7,0,0,1,1.79-.42,13.14,13.14,0,0,1,2.5-.22"/><path class="cls-4" d="M324.5,16.16a21.31,21.31,0,0,1,2.42-.5,21,21,0,0,1,3.3-.24,7.59,7.59,0,0,1,2.85.46,4.37,4.37,0,0,1,1.82,1.31,4.8,4.8,0,0,1,1,2,11.06,11.06,0,0,1,.28,2.59v7.83h-3.22V22.31a11.36,11.36,0,0,0-.14-1.9,3.42,3.42,0,0,0-.48-1.28,2,2,0,0,0-.91-.72,3.83,3.83,0,0,0-1.4-.23,11.25,11.25,0,0,0-1.27.08l-1,.14V29.63H324.5Z"/><path class="cls-4" d="M349.36,22.66a5.47,5.47,0,0,0-.89-3.29,3.17,3.17,0,0,0-5,0,5.47,5.47,0,0,0-.89,3.29,5.54,5.54,0,0,0,.89,3.32,3.14,3.14,0,0,0,5,0,5.54,5.54,0,0,0,.89-3.32m3.3,0a8.91,8.91,0,0,1-.48,3A6.72,6.72,0,0,1,350.83,28a6.13,6.13,0,0,1-2.12,1.49A6.78,6.78,0,0,1,346,30a6.62,6.62,0,0,1-2.71-.53A6.09,6.09,0,0,1,341.16,28a6.92,6.92,0,0,1-1.37-2.32,8.66,8.66,0,0,1-.49-3,8.66,8.66,0,0,1,.49-3,6.74,6.74,0,0,1,1.39-2.3,6.16,6.16,0,0,1,2.11-1.48,7.24,7.24,0,0,1,5.39,0,6,6,0,0,1,2.12,1.48,7,7,0,0,1,1.37,2.3,8.66,8.66,0,0,1,.49,3"/><polygon class="cls-4" points="135.54 61.57 135.54 43.13 147.38 43.13 147.38 45.97 138.89 45.97 138.89 50.53 146.45 50.53 146.45 53.32 138.89 53.32 138.89 58.72 148.02 58.72 148.02 61.57 135.54 61.57"/><path class="cls-4" d="M154,61.57c-.89-1.83-1.81-3.92-2.74-6.29a76.6,76.6,0,0,1-2.55-7.63h3.43c.2.78.43,1.62.68,2.52s.54,1.79.83,2.68.6,1.77.91,2.61.6,1.6.87,2.28c.27-.68.55-1.43.86-2.28s.6-1.71.89-2.61.57-1.79.84-2.68.5-1.74.7-2.52H162a79.23,79.23,0,0,1-2.56,7.63c-.93,2.37-1.85,4.46-2.74,6.29Z"/><path class="cls-4" d="M172.33,50.55a11,11,0,0,0-1.11-.28,8.72,8.72,0,0,0-1.64-.14,6.57,6.57,0,0,0-1.13.1,7.08,7.08,0,0,0-.84.19V61.57h-3.22V48.32a19.22,19.22,0,0,1,2.33-.66,14.89,14.89,0,0,1,3.1-.3,7,7,0,0,1,.75,0c.28,0,.57.06.85.1l.83.16c.26.07.48.12.64.18Z"/><path class="cls-4" d="M184.41,54.6a5.47,5.47,0,0,0-.89-3.29,3.17,3.17,0,0,0-5,0,5.47,5.47,0,0,0-.89,3.29,5.6,5.6,0,0,0,.89,3.33,3.15,3.15,0,0,0,5,0,5.6,5.6,0,0,0,.89-3.33m3.3,0a9,9,0,0,1-.48,3,6.63,6.63,0,0,1-1.36,2.31,6,6,0,0,1-2.11,1.49,6.78,6.78,0,0,1-2.73.53,6.62,6.62,0,0,1-2.71-.53,6.09,6.09,0,0,1-2.11-1.49,7,7,0,0,1-1.37-2.31,8.76,8.76,0,0,1-.49-3,8.66,8.66,0,0,1,.49-3,6.88,6.88,0,0,1,1.38-2.3,6.29,6.29,0,0,1,2.12-1.48,7.24,7.24,0,0,1,5.39,0,6,6,0,0,1,2.12,1.48,7,7,0,0,1,1.37,2.3,8.66,8.66,0,0,1,.49,3"/><path class="cls-4" d="M200.28,54.68a5.19,5.19,0,0,0-1-3.36,3.82,3.82,0,0,0-3.12-1.19c-.31,0-.62,0-1,0a4.59,4.59,0,0,0-1,.17v8a4.77,4.77,0,0,0,1.13.54,4.38,4.38,0,0,0,1.5.26,2.87,2.87,0,0,0,2.57-1.2,5.66,5.66,0,0,0,.82-3.22m3.3-.06a9.65,9.65,0,0,1-.42,2.93A6.8,6.8,0,0,1,202,59.84a5.25,5.25,0,0,1-1.93,1.49,6.13,6.13,0,0,1-2.62.53,6.55,6.55,0,0,1-3.17-.77V66.5H191V48.1c.66-.17,1.46-.34,2.42-.5a18.45,18.45,0,0,1,3-.24,8.26,8.26,0,0,1,2.95.5,6.29,6.29,0,0,1,2.22,1.45,6.59,6.59,0,0,1,1.41,2.29,8.73,8.73,0,0,1,.5,3"/><path class="cls-4" d="M210.39,59.26a4.28,4.28,0,0,0,1.86-.31,1.08,1.08,0,0,0,.59-1.05,1.38,1.38,0,0,0-.63-1.15,8.85,8.85,0,0,0-2.06-1,15.29,15.29,0,0,1-1.61-.68,5.32,5.32,0,0,1-1.26-.84,3.27,3.27,0,0,1-.84-1.16,3.91,3.91,0,0,1-.31-1.66,3.63,3.63,0,0,1,1.41-3,6,6,0,0,1,3.83-1.11,11.93,11.93,0,0,1,2.35.23,11.48,11.48,0,0,1,1.67.44l-.58,2.61a7.78,7.78,0,0,0-1.36-.44,8.39,8.39,0,0,0-1.92-.2,3.35,3.35,0,0,0-1.59.33,1.11,1.11,0,0,0-.62,1,1.48,1.48,0,0,0,.12.61,1.27,1.27,0,0,0,.42.49,4.58,4.58,0,0,0,.77.46,12.5,12.5,0,0,0,1.17.46,16.23,16.23,0,0,1,1.94.84,5.06,5.06,0,0,1,1.32.93,3.19,3.19,0,0,1,.76,1.18,4.77,4.77,0,0,1,.24,1.6,3.43,3.43,0,0,1-1.48,3,7.29,7.29,0,0,1-4.22,1,11.67,11.67,0,0,1-3-.31,15,15,0,0,1-1.57-.49l.56-2.69a14.33,14.33,0,0,0,1.71.56,8.8,8.8,0,0,0,2.28.27"/><path class="cls-4" d="M222.29,53.08l1.3-1.37L225,50.25l1.26-1.42c.4-.45.75-.84,1-1.18h3.81c-.89,1-1.83,2-2.81,3.09s-2,2.1-3,3.11A20.36,20.36,0,0,1,227,55.46c.58.63,1.15,1.3,1.7,2s1.06,1.42,1.54,2.13.87,1.37,1.19,2h-3.72c-.32-.55-.69-1.13-1.11-1.73s-.86-1.19-1.34-1.76-1-1.1-1.47-1.6a12.09,12.09,0,0,0-1.46-1.3v6.39h-3.22V41.45l3.22-.53Z"/><path class="cls-4" d="M242.33,54.6a5.47,5.47,0,0,0-.89-3.29,3.17,3.17,0,0,0-5,0,5.47,5.47,0,0,0-.89,3.29,5.6,5.6,0,0,0,.89,3.33,3.15,3.15,0,0,0,5,0,5.6,5.6,0,0,0,.89-3.33m3.3,0a9,9,0,0,1-.48,3,6.77,6.77,0,0,1-1.35,2.31,6.13,6.13,0,0,1-2.12,1.49,6.78,6.78,0,0,1-2.73.53,6.62,6.62,0,0,1-2.71-.53,6.09,6.09,0,0,1-2.11-1.49,7,7,0,0,1-1.37-2.31,8.76,8.76,0,0,1-.49-3,8.66,8.66,0,0,1,.49-3,6.74,6.74,0,0,1,1.39-2.3,6.16,6.16,0,0,1,2.11-1.48,7.24,7.24,0,0,1,5.39,0,6,6,0,0,1,2.12,1.48,7,7,0,0,1,1.37,2.3,8.66,8.66,0,0,1,.49,3"/><path class="cls-4" d="M260.38,61.15c-.62.16-1.43.32-2.42.49a19.61,19.61,0,0,1-3.28.25,7.23,7.23,0,0,1-2.81-.48,4.57,4.57,0,0,1-1.81-1.33,5.32,5.32,0,0,1-1-2,11.13,11.13,0,0,1-.29-2.6v-7.8H252v7.29a6,6,0,0,0,.65,3.2,2.57,2.57,0,0,0,2.28,1c.39,0,.8,0,1.24-.06a6.53,6.53,0,0,0,1-.13V47.65h3.22Z"/><path class="cls-4" d="M282.1,61.15c-.62.16-1.43.32-2.42.49a19.61,19.61,0,0,1-3.28.25,7.23,7.23,0,0,1-2.81-.48,4.57,4.57,0,0,1-1.81-1.33,5.32,5.32,0,0,1-1-2,11.13,11.13,0,0,1-.29-2.6v-7.8h3.22v7.29a6,6,0,0,0,.65,3.2,2.57,2.57,0,0,0,2.28,1c.39,0,.8,0,1.24-.06a6.53,6.53,0,0,0,1-.13V47.65h3.22Z"/><path class="cls-4" d="M286.2,48.1a23.77,23.77,0,0,1,2.42-.5,20.78,20.78,0,0,1,3.3-.24,7.59,7.59,0,0,1,2.85.46,4.52,4.52,0,0,1,1.82,1.31,5.06,5.06,0,0,1,1,2,11.14,11.14,0,0,1,.28,2.6v7.82h-3.22V54.25a10.3,10.3,0,0,0-.15-1.9,3.32,3.32,0,0,0-.48-1.28,1.89,1.89,0,0,0-.9-.72,3.85,3.85,0,0,0-1.4-.22,9.56,9.56,0,0,0-1.28.08c-.44,0-.77.09-1,.13V61.57H286.2Z"/><path class="cls-4" d="M305,61.57H301.8V47.65H305Zm.34-18a1.86,1.86,0,0,1-.58,1.44,2.11,2.11,0,0,1-2.8,0,1.86,1.86,0,0,1-.58-1.44,1.9,1.9,0,0,1,.58-1.47,2.11,2.11,0,0,1,2.8,0,1.9,1.9,0,0,1,.58,1.47"/><path class="cls-4" d="M312.36,61.57h-3.22V47.65h3.22ZM314.57,42l-4.34,4.21-1.6-1.44,3.92-4.66Z"/></g></g></svg>