<?xml version="1.0" encoding="UTF-8" standalone="no"?>
<!-- Created with Inkscape (http://www.inkscape.org/) -->

<svg
   version="1.1"
   id="svg1"
   width="402.23999"
   height="233.88"
   viewBox="0 0 402.23999 233.88"
   xmlns="http://www.w3.org/2000/svg"
   xmlns:svg="http://www.w3.org/2000/svg">
  <defs
     id="defs1" />
  <g
     id="g1">
    <g
       id="group-R5">
      <path
         id="path2"
         d="m 1589.31,1751.51 h 71.68 l 86.72,-181.76 v 181.76 h 46.08 v -231.04 h -68.16 l -89.6,192 v -192 h -46.72 v 231.04"
         style="fill:#040606;fill-opacity:1;fill-rule:nonzero;stroke:none"
         transform="matrix(0.13333333,0,0,-0.13333333,0,233.88)" />
      <path
         id="path3"
         d="m 1918.91,1707.67 h -25.6 l 26.56,46.4 h 42.88 z m 18.56,-111.04 c -7.68,0.64 -14.67,0.53 -20.96,-0.32 -6.3,-0.85 -11.79,-2.4 -16.48,-4.64 -4.69,-2.24 -8.32,-5.17 -10.88,-8.8 -2.56,-3.63 -3.84,-7.79 -3.84,-12.48 0,-2.78 0.48,-5.5 1.44,-8.16 0.96,-2.67 2.4,-5.12 4.32,-7.36 1.92,-2.24 4.32,-4.06 7.2,-5.44 2.88,-1.39 6.24,-2.08 10.08,-2.08 4.27,0 8.11,0.9 11.52,2.72 3.41,1.81 6.29,4 8.64,6.56 4.27,5.12 6.83,10.88 7.68,17.28 0.85,6.4 1.28,13.97 1.28,22.72 z m 6.08,-76.16 c -0.85,4.91 -1.33,9.23 -1.44,12.96 -0.11,3.73 -0.16,6.77 -0.16,9.12 -4.48,-6.4 -9.12,-11.36 -13.92,-14.88 -4.8,-3.52 -9.33,-6.08 -13.6,-7.68 -4.27,-1.6 -8.27,-2.56 -12,-2.88 -3.73,-0.32 -6.67,-0.48 -8.8,-0.48 -11.74,0 -20.59,1.39 -26.56,4.16 -5.98,2.77 -10.56,5.65 -13.76,8.64 -4.91,4.91 -8.48,10.45 -10.72,16.64 -2.24,6.18 -3.36,12.48 -3.36,18.88 0,3.2 0.37,6.99 1.12,11.36 0.74,4.37 2.35,8.85 4.8,13.44 2.45,4.59 5.92,9.12 10.4,13.6 4.48,4.48 10.45,8.42 17.92,11.84 4.9,2.13 10.29,3.84 16.16,5.12 5.87,1.28 11.68,2.18 17.44,2.72 5.76,0.53 11.3,0.85 16.64,0.96 5.33,0.1 9.92,0.16 13.76,0.16 0,5.33 -0.11,9.49 -0.32,12.48 -0.22,2.99 -0.86,5.97 -1.92,8.96 -1.07,2.99 -2.56,5.33 -4.48,7.04 -1.92,1.7 -3.89,3.04 -5.92,4 -2.03,0.96 -4.05,1.6 -6.08,1.92 -2.03,0.32 -3.57,0.48 -4.64,0.48 -3.41,0 -6.72,-0.75 -9.92,-2.24 -3.2,-1.49 -5.87,-3.74 -8,-6.72 -1.71,-2.77 -2.72,-5.39 -3.04,-7.84 -0.32,-2.46 -0.48,-4.64 -0.48,-6.56 h -46.4 c 0,2.13 0.16,4.74 0.48,7.84 0.32,3.09 1.12,6.4 2.4,9.92 1.28,3.52 3.09,7.04 5.44,10.56 2.34,3.52 5.65,6.77 9.92,9.76 7.47,5.33 15.57,8.85 24.32,10.56 8.75,1.7 16.96,2.56 24.64,2.56 3.41,0 7.57,-0.22 12.48,-0.64 4.9,-0.43 10.03,-1.39 15.36,-2.88 5.33,-1.5 10.61,-3.58 15.84,-6.24 5.23,-2.67 9.87,-6.35 13.92,-11.04 2.77,-3.2 4.91,-6.78 6.4,-10.72 1.49,-3.95 2.61,-7.74 3.36,-11.36 0.75,-3.63 1.17,-6.99 1.28,-10.08 0.11,-3.1 0.16,-5.6 0.16,-7.52 l 0.32,-64.96 c 0,-6.83 0.27,-13.65 0.8,-20.48 0.53,-6.83 1.55,-13.65 3.04,-20.48 h -42.88"
         style="fill:#040606;fill-opacity:1;fill-rule:nonzero;stroke:none"
         transform="matrix(0.13333333,0,0,-0.13333333,0,233.88)" />
      <path
         id="path4"
         d="m 2035.07,1642.39 c 0,1.92 -0.06,4.64 -0.16,8.16 -0.11,3.52 -0.27,7.31 -0.48,11.36 -0.22,4.05 -0.48,7.95 -0.8,11.68 -0.32,3.73 -0.59,6.77 -0.8,9.12 h 44.48 l 0.96,-31.04 c 1.49,3.41 3.41,7.04 5.76,10.88 2.34,3.84 5.54,7.36 9.6,10.56 4.05,3.2 9.28,5.76 15.68,7.68 6.4,1.92 14.4,2.66 24,2.24 v -42.56 c -11.95,1.07 -21.34,0.53 -28.16,-1.6 -6.83,-2.14 -11.95,-5.23 -15.36,-9.28 -3.42,-4.05 -5.5,-8.7 -6.24,-13.92 -0.75,-5.23 -1.12,-10.4 -1.12,-15.52 v -79.68 h -47.36 v 121.92"
         style="fill:#040606;fill-opacity:1;fill-rule:nonzero;stroke:none"
         transform="matrix(0.13333333,0,0,-0.13333333,0,233.88)" />
      <path
         id="path5"
         d="m 2211.39,1599.51 c 0,-18.13 2.98,-31.31 8.96,-39.52 5.97,-8.22 14.82,-12.32 26.55,-12.32 5.13,0 9.87,0.85 14.25,2.56 4.37,1.71 8.04,4.69 11.04,8.96 2.98,4.26 5.32,9.97 7.04,17.12 1.7,7.14 2.56,16.05 2.56,26.72 0,5.33 -0.38,10.99 -1.12,16.96 -0.75,5.97 -2.35,11.52 -4.81,16.64 -2.45,5.12 -6.02,9.33 -10.71,12.64 -4.7,3.3 -10.99,4.96 -18.89,4.96 -8.75,0 -15.46,-2.19 -20.15,-6.56 -4.7,-4.38 -8.11,-9.49 -10.25,-15.36 -2.13,-5.87 -3.41,-11.9 -3.83,-18.08 -0.43,-6.19 -0.64,-11.09 -0.64,-14.72 z m -48.64,0.32 c 0,9.81 1.38,19.79 4.15,29.92 2.78,10.13 7.37,19.36 13.77,27.68 6.4,8.32 14.93,15.14 25.59,20.48 10.67,5.33 24.01,8 40,8 14.73,0 27.37,-2.29 37.92,-6.88 10.57,-4.59 19.26,-10.78 26.09,-18.56 6.82,-7.79 11.83,-16.8 15.04,-27.04 3.2,-10.24 4.8,-21.02 4.8,-32.32 0,-11.31 -1.66,-22.19 -4.96,-32.64 -3.31,-10.45 -8.43,-19.68 -15.36,-27.68 -6.94,-8 -15.74,-14.35 -26.4,-19.04 -10.68,-4.69 -23.37,-7.04 -38.08,-7.04 -11.52,0 -22.3,1.76 -32.32,5.28 -10.03,3.52 -18.78,8.85 -26.24,16 -7.47,7.15 -13.34,16.05 -17.6,26.72 -4.27,10.67 -6.4,23.04 -6.4,37.12"
         style="fill:#040606;fill-opacity:1;fill-rule:nonzero;stroke:none"
         transform="matrix(0.13333333,0,0,-0.13333333,0,233.88)" />
      <path
         id="path6"
         d="m 2414.27,1598.87 c 0,-6.83 0.58,-13.28 1.76,-19.36 1.18,-6.08 3.06,-11.47 5.63,-16.16 2.56,-4.69 5.95,-8.43 10.13,-11.2 4.18,-2.78 9.26,-4.16 15.27,-4.16 6.85,0 12.95,1.81 18.32,5.44 5.36,3.62 9.32,7.89 11.89,12.8 3.64,6.82 5.84,13.86 6.59,21.12 0.75,7.25 1.13,12.91 1.13,16.96 0,16 -3.17,28.16 -9.49,36.48 -6.32,8.32 -14.94,12.48 -25.88,12.48 -7.93,0 -14.25,-2.08 -18.97,-6.24 -4.71,-4.16 -8.24,-9.12 -10.6,-14.88 -2.36,-5.76 -3.91,-11.74 -4.66,-17.92 -0.75,-6.19 -1.12,-11.31 -1.12,-15.36 z m 69.11,152.64 h 47.37 v -204.8 c 0,-4.91 0.1,-9.76 0.31,-14.56 0.21,-4.8 0.54,-8.7 0.97,-11.68 h -47.68 l -1.29,23.36 c -1.71,-2.99 -3.64,-5.97 -5.77,-8.96 -2.14,-2.99 -5.67,-6.08 -10.6,-9.28 -5.98,-3.84 -11.81,-6.18 -17.48,-7.04 -5.67,-0.85 -10.32,-1.28 -13.96,-1.28 -21.82,0 -38.77,7.04 -50.86,21.12 -12.09,14.08 -18.13,33.81 -18.13,59.2 0,13.44 1.77,25.49 5.3,36.16 3.53,10.67 8.4,19.73 14.6,27.2 6.2,7.46 13.69,13.23 22.46,17.28 8.77,4.05 18.5,6.08 29.2,6.08 7.27,0 13.53,-0.91 18.77,-2.72 5.24,-1.82 9.68,-3.9 13.32,-6.24 3.63,-2.35 6.52,-4.75 8.66,-7.2 2.14,-2.45 3.74,-4.43 4.81,-5.92 v 89.28"
         style="fill:#040606;fill-opacity:1;fill-rule:nonzero;stroke:none"
         transform="matrix(0.13333333,0,0,-0.13333333,0,233.88)" />
      <path
         id="path7"
         d="m 2582.9,1653.27 c 0,0.21 0,1.33 0,3.36 0,2.03 -0.05,4.48 -0.16,7.36 -0.11,2.88 -0.22,6.03 -0.32,9.44 -0.11,3.41 -0.27,6.5 -0.48,9.28 h 45.44 l 1.28,-24.32 c 1.07,1.92 2.77,4.43 5.12,7.52 2.34,3.09 5.55,6.19 9.6,9.28 4.05,3.09 9.17,5.76 15.36,8 6.19,2.24 13.65,3.36 22.4,3.36 7.89,0 14.72,-1.07 20.48,-3.2 5.76,-2.14 10.61,-4.75 14.56,-7.84 3.95,-3.1 7.04,-6.4 9.28,-9.92 2.24,-3.52 3.89,-6.67 4.96,-9.44 0.85,-2.56 1.6,-5.07 2.24,-7.52 0.64,-2.45 1.12,-5.44 1.44,-8.96 0.32,-3.52 0.53,-7.84 0.64,-12.96 0.1,-5.12 0.16,-11.41 0.16,-18.88 v -87.36 h -48.32 v 100.48 c 0,3.41 -0.11,6.56 -0.32,9.44 -0.22,2.88 -0.96,5.6 -2.24,8.16 -1.71,3.63 -4.43,6.83 -8.16,9.6 -3.74,2.77 -8.7,4.16 -14.88,4.16 -5.12,0 -9.87,-1.12 -14.24,-3.36 -4.38,-2.24 -7.84,-5.28 -10.4,-9.12 -1.5,-2.14 -2.83,-5.23 -4,-9.28 -1.17,-4.05 -1.76,-9.17 -1.76,-15.36 v -94.72 h -47.68 v 132.8"
         style="fill:#040606;fill-opacity:1;fill-rule:nonzero;stroke:none"
         transform="matrix(0.13333333,0,0,-0.13333333,0,233.88)" />
      <path
         id="path8"
         d="m 2816.18,1707.67 h -25.6 l 26.56,46.4 h 42.88 z m -27.84,-25.28 h 47.36 v -161.92 h -47.36 v 161.92"
         style="fill:#040606;fill-opacity:1;fill-rule:nonzero;stroke:none"
         transform="matrix(0.13333333,0,0,-0.13333333,0,233.88)" />
      <path
         id="path9"
         d="m 1588.67,1262.39 c 0,1.92 -0.05,4.64 -0.16,8.16 -0.11,3.52 -0.27,7.31 -0.48,11.36 -0.21,4.05 -0.48,7.95 -0.8,11.68 -0.32,3.73 -0.59,6.77 -0.8,9.12 h 44.48 l 0.96,-31.04 c 1.49,3.41 3.41,7.04 5.76,10.88 2.35,3.84 5.54,7.36 9.6,10.56 4.05,3.2 9.28,5.76 15.68,7.68 6.4,1.92 14.4,2.66 24,2.24 v -42.56 c -11.95,1.07 -21.33,0.53 -28.16,-1.6 -6.83,-2.14 -11.95,-5.23 -15.36,-9.28 -3.41,-4.05 -5.49,-8.7 -6.24,-13.92 -0.75,-5.23 -1.12,-10.4 -1.12,-15.52 v -79.68 h -47.36 v 121.92"
         style="fill:#040606;fill-opacity:1;fill-rule:nonzero;stroke:none"
         transform="matrix(0.13333333,0,0,-0.13333333,0,233.88)" />
      <path
         id="path10"
         d="m 1822.27,1239.03 c 0,1.92 -0.16,4.85 -0.48,8.8 -0.32,3.94 -1.39,7.94 -3.2,12 -1.81,4.05 -4.64,7.62 -8.48,10.72 -3.84,3.09 -9.17,4.64 -16,4.64 -5.12,0 -9.55,-1.01 -13.28,-3.04 -3.74,-2.03 -6.83,-4.7 -9.28,-8 -2.45,-3.31 -4.32,-7.15 -5.6,-11.52 -1.28,-4.38 -2.03,-8.91 -2.24,-13.6 z m -60.16,-29.76 c 0,-2.56 0.16,-6.29 0.48,-11.2 0.32,-4.91 1.55,-9.71 3.68,-14.4 2.13,-4.69 5.39,-8.8 9.76,-12.32 4.37,-3.52 10.72,-5.28 19.04,-5.28 5.97,0 11.57,1.49 16.8,4.48 5.22,2.98 9.01,8.96 11.36,17.92 h 43.2 c -0.21,-1.92 -0.48,-4.21 -0.8,-6.88 -0.32,-2.67 -1.02,-5.49 -2.08,-8.48 -1.07,-2.99 -2.61,-6.19 -4.64,-9.6 -2.03,-3.42 -4.64,-6.83 -7.84,-10.24 -5.98,-6.19 -13.92,-10.88 -23.84,-14.08 -9.92,-3.2 -20.85,-4.8 -32.8,-4.8 -3.41,0 -7.52,0.22 -12.32,0.64 -4.8,0.43 -9.82,1.39 -15.05,2.88 -5.23,1.5 -10.43,3.52 -15.59,6.08 -5.16,2.56 -9.88,6.08 -14.18,10.56 -7.51,7.68 -12.89,16.85 -16.1,27.52 -3.23,10.67 -4.84,22.5 -4.84,35.52 0,6.61 0.48,13.44 1.45,20.48 0.96,7.04 2.68,13.92 5.15,20.64 2.47,6.72 5.91,13.12 10.32,19.2 4.4,6.08 10.04,11.46 16.92,16.16 6.23,4.27 13.13,7.57 20.71,9.92 7.58,2.35 15.85,3.52 24.81,3.52 5.76,0 11.73,-0.64 17.92,-1.92 6.18,-1.28 12.16,-3.41 17.92,-6.4 5.76,-2.99 11.2,-6.99 16.32,-12 5.12,-5.01 9.49,-11.26 13.12,-18.72 2.77,-5.55 4.85,-11.09 6.24,-16.64 1.38,-5.55 2.35,-10.94 2.88,-16.16 0.53,-5.23 0.8,-10.08 0.8,-14.56 0,-4.48 -0.11,-8.43 -0.32,-11.84 h -108.48"
         style="fill:#040606;fill-opacity:1;fill-rule:nonzero;stroke:none"
         transform="matrix(0.13333333,0,0,-0.13333333,0,233.88)" />
      <path
         id="path11"
         d="m 1991.87,1169.27 c 11.3,0 19.89,4.91 25.76,14.72 5.86,9.81 8.8,22.72 8.8,38.72 0,4.69 -0.38,10.08 -1.12,16.16 -0.75,6.08 -2.3,11.79 -4.64,17.12 -2.35,5.33 -5.66,9.81 -9.92,13.44 -4.28,3.62 -9.92,5.44 -16.96,5.44 -3.84,0 -7.96,-0.85 -12.33,-2.56 -4.37,-1.71 -8.37,-4.64 -11.99,-8.8 -3.64,-4.16 -6.67,-9.76 -9.12,-16.8 -2.46,-7.04 -3.68,-16 -3.68,-26.88 0,-2.35 0.21,-6.3 0.63,-11.84 0.43,-5.55 1.77,-11.2 4.01,-16.96 2.23,-5.76 5.7,-10.83 10.4,-15.2 4.69,-4.38 11.41,-6.56 20.16,-6.56 z m -35.2,132.8 1.27,-23.04 c 3.63,6.4 7.89,11.41 12.81,15.04 4.9,3.62 9.76,6.24 14.56,7.84 4.8,1.6 9.17,2.56 13.12,2.88 3.94,0.32 6.88,0.48 8.8,0.48 10.45,0 19.84,-1.87 28.16,-5.6 8.32,-3.74 15.36,-9.12 21.12,-16.16 5.76,-7.04 10.18,-15.52 13.28,-25.44 3.09,-9.92 4.64,-21.07 4.64,-33.44 0,-11.52 -1.5,-22.45 -4.48,-32.8 -2.99,-10.35 -7.42,-19.52 -13.28,-27.52 -5.87,-8 -13.18,-14.35 -21.92,-19.04 -8.75,-4.7 -18.99,-7.04 -30.72,-7.04 -7.26,0 -13.5,0.86 -18.72,2.56 -5.23,1.7 -9.6,3.68 -13.12,5.92 -3.52,2.24 -6.36,4.53 -8.48,6.88 -2.14,2.34 -3.74,4.16 -4.8,5.44 v -80.64 h -48.32 v 223.68 h 46.08"
         style="fill:#040606;fill-opacity:1;fill-rule:nonzero;stroke:none"
         transform="matrix(0.13333333,0,0,-0.13333333,0,233.88)" />
      <path
         id="path12"
         d="m 2159.55,1219.51 c 0,-18.13 2.98,-31.31 8.96,-39.52 5.97,-8.22 14.82,-12.32 26.55,-12.32 5.13,0 9.87,0.85 14.25,2.56 4.37,1.71 8.04,4.69 11.04,8.96 2.98,4.26 5.32,9.97 7.04,17.12 1.7,7.14 2.56,16.05 2.56,26.72 0,5.33 -0.38,10.99 -1.12,16.96 -0.75,5.97 -2.36,11.52 -4.81,16.64 -2.45,5.12 -6.02,9.33 -10.71,12.64 -4.7,3.3 -11,4.96 -18.89,4.96 -8.75,0 -15.46,-2.19 -20.15,-6.56 -4.7,-4.38 -8.11,-9.49 -10.25,-15.36 -2.13,-5.87 -3.41,-11.9 -3.83,-18.08 -0.43,-6.19 -0.64,-11.09 -0.64,-14.72 z m -48.64,0.32 c 0,9.81 1.38,19.79 4.15,29.92 2.78,10.13 7.37,19.36 13.77,27.68 6.39,8.32 14.92,15.14 25.59,20.48 10.67,5.33 24.01,8 40,8 14.73,0 27.37,-2.29 37.92,-6.88 10.57,-4.59 19.26,-10.78 26.09,-18.56 6.82,-7.79 11.83,-16.8 15.04,-27.04 3.2,-10.24 4.8,-21.02 4.8,-32.32 0,-11.31 -1.66,-22.19 -4.96,-32.64 -3.31,-10.45 -8.43,-19.68 -15.37,-27.68 -6.93,-8 -15.73,-14.35 -26.39,-19.04 -10.68,-4.69 -23.37,-7.04 -38.08,-7.04 -11.52,0 -22.3,1.76 -32.32,5.28 -10.03,3.52 -18.78,8.85 -26.24,16 -7.47,7.15 -13.34,16.05 -17.61,26.72 -4.26,10.67 -6.39,23.04 -6.39,37.12"
         style="fill:#040606;fill-opacity:1;fill-rule:nonzero;stroke:none"
         transform="matrix(0.13333333,0,0,-0.13333333,0,233.88)" />
      <path
         id="path13"
         d="m 2313.78,1182.07 81.92,88.32 h -79.67 v 31.68 h 132.48 v -40.64 l -81.92,-88.32 h 85.11 v -32.64 h -137.92 v 41.6"
         style="fill:#040606;fill-opacity:1;fill-rule:nonzero;stroke:none"
         transform="matrix(0.13333333,0,0,-0.13333333,0,233.88)" />
      <path
         id="path14"
         d="m 2494.9,1302.39 h 47.36 v -161.92 h -47.36 z m -1.6,69.12 h 50.56 v -41.28 h -50.56 v 41.28"
         style="fill:#040606;fill-opacity:1;fill-rule:nonzero;stroke:none"
         transform="matrix(0.13333333,0,0,-0.13333333,0,233.88)" />
      <path
         id="path15"
         d="m 2689.79,1142.71 c -7.69,-2.14 -14.78,-3.52 -21.29,-4.16 -6.51,-0.64 -11.68,-0.96 -15.52,-0.96 -12.03,0 -21.26,1.66 -27.7,4.96 -6.45,3.31 -11.17,7.25 -14.18,11.84 -3.01,4.59 -4.78,9.33 -5.31,14.24 -0.54,4.9 -0.8,9.06 -0.8,12.48 v 88.64 h -31.04 v 31.68 h 31.04 v 31.47 l 47.35,17.17 v -48.64 h 38.4 v -31.68 h -38.4 v -72.96 c 0,-3.63 0.16,-6.93 0.48,-9.92 0.32,-2.99 1.13,-5.55 2.4,-7.68 1.28,-2.14 3.36,-3.73 6.24,-4.8 2.88,-1.07 6.99,-1.6 12.32,-1.6 3.63,0 6.45,0.05 8.48,0.16 2.03,0.1 4.53,0.37 7.53,0.8 v -31.04"
         style="fill:#040606;fill-opacity:1;fill-rule:nonzero;stroke:none"
         transform="matrix(0.13333333,0,0,-0.13333333,0,233.88)" />
      <path
         id="path16"
         d="m 2801.78,1327.67 h -25.6 l 26.56,46.4 h 42.88 z m 18.56,-111.04 c -7.68,0.64 -14.67,0.53 -20.96,-0.32 -6.29,-0.85 -11.79,-2.4 -16.48,-4.64 -4.69,-2.24 -8.32,-5.17 -10.88,-8.8 -2.56,-3.63 -3.84,-7.79 -3.84,-12.48 0,-2.78 0.48,-5.5 1.44,-8.16 0.96,-2.67 2.4,-5.12 4.32,-7.36 1.92,-2.24 4.32,-4.06 7.2,-5.44 2.88,-1.39 6.24,-2.08 10.08,-2.08 4.27,0 8.11,0.9 11.52,2.72 3.41,1.81 6.29,4 8.64,6.56 4.27,5.12 6.83,10.88 7.68,17.28 0.85,6.4 1.28,13.97 1.28,22.72 z m 6.08,-76.16 c -0.85,4.91 -1.33,9.23 -1.44,12.96 -0.11,3.73 -0.16,6.77 -0.16,9.12 -4.48,-6.4 -9.12,-11.36 -13.92,-14.88 -4.8,-3.52 -9.33,-6.08 -13.6,-7.68 -4.27,-1.6 -8.27,-2.56 -12,-2.88 -3.73,-0.32 -6.67,-0.48 -8.8,-0.48 -11.73,0 -20.59,1.39 -26.56,4.16 -5.98,2.77 -10.56,5.65 -13.76,8.64 -4.91,4.91 -8.48,10.45 -10.72,16.64 -2.24,6.18 -3.36,12.48 -3.36,18.88 0,3.2 0.37,6.99 1.12,11.36 0.74,4.37 2.35,8.85 4.8,13.44 2.45,4.59 5.92,9.12 10.4,13.6 4.48,4.48 10.45,8.42 17.92,11.84 4.91,2.13 10.29,3.84 16.16,5.12 5.87,1.28 11.68,2.18 17.44,2.72 5.76,0.53 11.31,0.85 16.64,0.96 5.33,0.1 9.92,0.16 13.76,0.16 0,5.33 -0.11,9.49 -0.32,12.48 -0.22,2.99 -0.85,5.97 -1.92,8.96 -1.07,2.99 -2.56,5.33 -4.48,7.04 -1.92,1.71 -3.89,3.04 -5.92,4 -2.03,0.96 -4.05,1.6 -6.08,1.92 -2.03,0.32 -3.57,0.48 -4.64,0.48 -3.41,0 -6.72,-0.75 -9.92,-2.24 -3.2,-1.49 -5.87,-3.74 -8,-6.72 -1.71,-2.77 -2.72,-5.39 -3.04,-7.84 -0.32,-2.46 -0.48,-4.64 -0.48,-6.56 h -46.4 c 0,2.13 0.16,4.74 0.48,7.84 0.32,3.09 1.12,6.4 2.4,9.92 1.28,3.52 3.09,7.04 5.44,10.56 2.34,3.52 5.65,6.77 9.92,9.76 7.47,5.33 15.57,8.85 24.32,10.56 8.75,1.7 16.96,2.56 24.64,2.56 3.41,0 7.57,-0.22 12.48,-0.64 4.91,-0.43 10.03,-1.39 15.36,-2.88 5.33,-1.5 10.61,-3.58 15.84,-6.24 5.23,-2.67 9.87,-6.35 13.92,-11.04 2.77,-3.2 4.91,-6.77 6.4,-10.72 1.49,-3.95 2.61,-7.74 3.36,-11.36 0.75,-3.63 1.17,-6.99 1.28,-10.08 0.11,-3.1 0.16,-5.6 0.16,-7.52 l 0.32,-64.96 c 0,-6.83 0.27,-13.65 0.8,-20.48 0.53,-6.83 1.55,-13.65 3.04,-20.48 h -42.88"
         style="fill:#040606;fill-opacity:1;fill-rule:nonzero;stroke:none"
         transform="matrix(0.13333333,0,0,-0.13333333,0,233.88)" />
      <path
         id="path17"
         d="m 2917.94,1262.39 c 0,1.92 -0.05,4.64 -0.16,8.16 -0.1,3.52 -0.27,7.31 -0.48,11.36 -0.21,4.05 -0.48,7.95 -0.8,11.68 -0.32,3.73 -0.59,6.77 -0.8,9.12 h 44.49 l 0.95,-31.04 c 1.49,3.41 3.42,7.04 5.76,10.88 2.35,3.84 5.55,7.36 9.6,10.56 4.05,3.2 9.28,5.76 15.68,7.68 6.4,1.92 14.4,2.66 24,2.24 v -42.56 c -11.95,1.07 -21.33,0.53 -28.16,-1.6 -6.83,-2.14 -11.95,-5.23 -15.36,-9.28 -3.41,-4.05 -5.49,-8.7 -6.23,-13.92 -0.76,-5.23 -1.13,-10.4 -1.13,-15.52 v -79.68 h -47.36 z m 92.48,111.68 -33.92,-46.4 h -37.44 l -33.28,46.4 h 30.08 l 22.4,-29.12 22.4,29.12 h 29.76"
         style="fill:#040606;fill-opacity:1;fill-rule:nonzero;stroke:none"
         transform="matrix(0.13333333,0,0,-0.13333333,0,233.88)" />
      <path
         id="path18"
         d="m 140,1335.03 h 276.563 v 140 H 0 v -416.56 h 140 v 276.56"
         style="fill:#040606;fill-opacity:1;fill-rule:nonzero;stroke:none"
         transform="matrix(0.13333333,0,0,-0.13333333,0,233.88)" />
      <path
         id="path19"
         d="m 563.414,756.066 h 120 c 8.953,0 20.789,0.797 35.524,2.403 14.71,1.594 28.152,7.203 40.316,16.801 2.547,1.921 6.074,4.949 10.559,9.117 4.468,4.156 8.792,9.437 12.96,15.84 4.157,6.39 7.68,14.238 10.563,23.519 2.879,9.274 4.32,19.996 4.32,32.164 0,23.668 -4.32,41.43 -12.965,53.278 -8.636,11.835 -16.484,19.996 -23.519,24.484 -11.52,8.308 -24.809,13.109 -39.84,14.398 -15.043,1.274 -34.406,1.918 -58.078,1.918 h -99.84 z M 416.531,1058.47 h 265.926 c 19.199,0 38.398,-0.33 57.598,-0.96 19.199,-0.65 37.754,-2.4 55.675,-5.28 17.915,-2.88 35.192,-7.36 51.844,-13.44 16.637,-6.09 31.68,-14.88 45.121,-26.4 21.746,-18.57 37.278,-39.839 46.559,-63.843 9.269,-23.996 13.922,-47.203 13.922,-69.598 0,-32.636 -5.926,-59.371 -17.762,-80.156 -11.851,-20.809 -25.769,-37.441 -41.762,-49.922 -16.007,-12.48 -32.16,-21.601 -48.476,-27.359 -16.324,-5.762 -28.653,-9.934 -36.961,-12.481 26.234,-2.57 46.875,-8.011 61.918,-16.32 15.035,-8.332 26.719,-19.371 35.043,-33.121 8.304,-13.77 14.234,-29.918 17.758,-48.481 3.511,-18.57 6.871,-39.05 10.078,-61.437 5.117,-40.973 9.273,-71.211 12.48,-90.723 3.196,-19.527 6.074,-34.078 8.645,-43.679 3.836,-15.36 7.347,-26.09 10.554,-32.161 3.2,-6.089 6.727,-12 10.563,-17.757 h -164.16 c -1.918,9.597 -4.489,26.226 -7.68,49.918 -3.211,23.671 -6.566,48.628 -10.078,74.878 -3.527,26.231 -7.051,50.403 -10.563,72.481 -3.527,22.082 -6.566,36.633 -9.121,43.68 -3.207,9.601 -7.839,17.121 -13.922,22.562 -6.085,5.43 -12.472,9.43 -19.199,12 -6.718,2.551 -13.769,3.988 -21.117,4.32 -7.363,0.321 -14.246,0.481 -20.641,0.481 H 568.215 V 365.352 H 416.531 v 693.118"
         style="fill:#040606;fill-opacity:1;fill-rule:nonzero;stroke:none"
         transform="matrix(0.13333333,0,0,-0.13333333,0,233.88)" />
      <path
         id="path20"
         d="m 1348.07,661.031 c 0,5.758 -0.49,14.547 -1.44,26.399 -0.97,11.84 -4.17,23.832 -9.6,36 -5.45,12.148 -13.92,22.879 -25.44,32.16 -11.53,9.269 -27.53,13.918 -48.01,13.918 -15.35,0 -28.64,-3.043 -39.83,-9.121 -11.21,-6.086 -20.49,-14.078 -27.85,-23.996 -7.36,-9.93 -12.96,-21.45 -16.79,-34.563 -3.85,-13.129 -6.09,-26.726 -6.72,-40.797 z M 1167.58,571.75 c 0,-7.68 0.49,-18.891 1.44,-33.602 0.97,-14.726 4.64,-29.128 11.04,-43.199 6.4,-14.09 16.16,-26.398 29.29,-36.961 13.11,-10.558 32.15,-15.84 57.11,-15.84 17.92,0 34.72,4.473 50.41,13.442 15.67,8.949 27.03,26.879 34.08,53.762 h 129.6 c -0.65,-5.762 -1.44,-12.641 -2.41,-20.641 -0.95,-8.012 -3.04,-16.492 -6.24,-25.441 -3.2,-8.969 -7.84,-18.571 -13.92,-28.801 -6.09,-10.239 -13.91,-20.489 -23.51,-30.719 -17.93,-18.57 -41.76,-32.641 -71.53,-42.238 -29.76,-9.602 -62.56,-14.403 -98.39,-14.403 -10.25,0 -22.56,0.653 -36.97,1.922 -14.4,1.289 -29.45,4.168 -45.14,8.641 -15.71,4.488 -31.29,10.558 -46.76,18.238 -15.48,7.68 -29.65,18.238 -42.54,31.68 -22.56,23.039 -38.67,50.551 -48.33,82.558 -9.67,32 -14.5,67.512 -14.5,106.563 0,19.828 1.43,40.32 4.34,61.437 2.9,21.122 8.06,41.762 15.47,61.922 7.41,20.16 17.72,39.36 30.93,57.598 13.22,18.242 30.14,34.395 50.76,48.48 18.69,12.793 39.41,22.711 62.15,29.762 22.73,7.031 47.54,10.559 74.42,10.559 17.28,0 35.19,-1.918 53.76,-5.758 18.56,-3.844 36.48,-10.246 53.76,-19.199 17.28,-8.969 33.61,-20.973 48.96,-36 15.36,-15.047 28.47,-33.766 39.36,-56.16 8.31,-16.653 14.55,-33.293 18.72,-49.922 4.16,-16.649 7.04,-32.809 8.65,-48.481 1.58,-15.687 2.39,-30.238 2.39,-43.679 0,-13.442 -0.32,-25.29 -0.95,-35.52 h -325.45"
         style="fill:#040606;fill-opacity:1;fill-rule:nonzero;stroke:none"
         transform="matrix(0.13333333,0,0,-0.13333333,0,233.88)" />
      <path
         id="path21"
         d="m 1834.79,451.75 c 33.91,0 59.66,14.711 77.28,44.16 17.59,29.43 26.4,68.16 26.4,116.16 0,14.071 -1.13,30.239 -3.37,48.481 -2.24,18.238 -6.88,35.359 -13.91,51.359 -7.05,15.988 -16.97,29.43 -29.76,40.32 -12.82,10.872 -29.76,16.317 -50.88,16.317 -11.53,0 -23.86,-2.563 -36.97,-7.68 -13.12,-5.129 -25.12,-13.918 -36,-26.398 -10.89,-12.481 -20.01,-29.278 -27.36,-50.399 -7.36,-21.121 -11.04,-48 -11.04,-80.64 0,-7.051 0.63,-18.891 1.92,-35.52 1.28,-16.648 5.29,-33.601 12.01,-50.879 6.71,-17.281 17.11,-32.492 31.2,-45.601 14.06,-13.129 34.23,-19.68 60.48,-19.68 z m -105.61,398.398 3.84,-69.121 c 10.88,19.2 23.67,34.235 38.41,45.121 14.71,10.875 29.27,18.723 43.67,23.524 14.41,4.797 27.51,7.68 39.36,8.637 11.84,0.961 20.64,1.441 26.4,1.441 31.36,0 59.53,-5.613 84.49,-16.805 24.95,-11.199 46.08,-27.355 63.36,-48.476 17.28,-21.121 30.55,-46.559 39.83,-76.321 9.27,-29.757 13.93,-63.207 13.93,-100.32 0,-34.558 -4.49,-67.359 -13.45,-98.398 -8.97,-31.051 -22.24,-58.559 -39.84,-82.559 -17.6,-24 -39.52,-43.051 -65.76,-57.121 -26.25,-14.078 -56.96,-21.121 -92.16,-21.121 -21.76,0 -40.48,2.562 -56.16,7.68 -15.69,5.113 -28.8,11.043 -39.35,17.761 -10.56,6.719 -19.06,13.59 -25.45,20.641 -6.4,7.039 -11.2,12.48 -14.4,16.32 V 179.109 h -144.96 v 671.039 h 138.24"
         style="fill:#040606;fill-opacity:1;fill-rule:nonzero;stroke:none"
         transform="matrix(0.13333333,0,0,-0.13333333,0,233.88)" />
      <path
         id="path22"
         d="m 2312.41,602.469 c 0,-54.41 8.96,-93.93 26.88,-118.559 17.91,-24.64 44.47,-36.961 79.68,-36.961 15.36,0 29.59,2.551 42.72,7.68 13.11,5.109 24.15,14.07 33.12,26.883 8.95,12.789 15.99,29.91 21.12,51.359 5.11,21.43 7.68,48.149 7.68,80.16 0,15.989 -1.12,32.949 -3.36,50.879 -2.25,17.91 -7.05,34.559 -14.4,49.918 -7.36,15.363 -18.09,27.992 -32.16,37.922 -14.09,9.914 -32.97,14.879 -56.64,14.879 -26.25,0 -46.41,-6.566 -60.48,-19.68 -14.08,-13.121 -24.33,-28.488 -30.72,-46.078 -6.4,-17.609 -10.24,-35.691 -11.52,-54.242 -1.29,-18.57 -1.92,-33.289 -1.92,-44.16 z m -145.92,0.961 c 0,29.429 4.15,59.359 12.48,89.761 8.31,30.387 22.08,58.079 41.28,83.036 19.2,24.961 44.79,45.437 76.8,61.441 32,15.992 72,24 120,24 44.16,0 82.08,-6.887 113.76,-20.641 31.68,-13.769 57.75,-32.324 78.24,-55.679 20.48,-23.368 35.52,-50.399 45.12,-81.118 9.6,-30.718 14.4,-63.05 14.4,-96.96 0,-33.93 -4.96,-66.571 -14.88,-97.918 -9.93,-31.364 -25.29,-59.043 -46.08,-83.043 -20.8,-24 -47.2,-43.047 -79.2,-57.118 -32.01,-14.07 -70.08,-21.121 -114.24,-21.121 -34.56,0 -66.88,5.282 -96.96,15.84 -30.09,10.559 -56.32,26.551 -78.72,48 -22.41,21.43 -40,48.149 -52.8,80.16 -12.81,32 -19.2,69.121 -19.2,111.36"
         style="fill:#040606;fill-opacity:1;fill-rule:nonzero;stroke:none"
         transform="matrix(0.13333333,0,0,-0.13333333,0,233.88)" />
      <path
         id="path23"
         d="m 3016.75,416.34 v 0.219 h -140 V 416.34 C 2876.75,263.961 2752.79,140 2600.41,140 h -0.21 V 0 h 0.21 c 229.57,0 416.34,186.77 416.34,416.34"
         style="fill:#040606;fill-opacity:1;fill-rule:nonzero;stroke:none"
         transform="matrix(0.13333333,0,0,-0.13333333,0,233.88)" />
    </g>
  </g>
</svg>
