<?xml version="1.0" encoding="utf-8"?>
<!-- Generator: Adobe Illustrator 25.4.1, SVG Export Plug-In . SVG Version: 6.00 Build 0)  -->
<svg version="1.1" id="Vrstva_1" xmlns="http://www.w3.org/2000/svg" xmlns:xlink="http://www.w3.org/1999/xlink" x="0px" y="0px"
	 viewBox="0 0 100 100" style="enable-background:new 0 0 100 100;" xml:space="preserve">
<style type="text/css">
	.st0{fill:#F2F2F2;stroke:#000000;stroke-width:0.25;stroke-miterlimit:10;}
	.st1{fill:#E6E6E6;stroke:#000000;stroke-width:0.25;stroke-miterlimit:10;}
	.st2{fill:#FFFFFF;}
	.st3{fill:url(#);stroke:#000000;stroke-width:0.25;stroke-miterlimit:10;}
</style>
<path class="st0" d="M61.8,14.6H23.9c-1.1,0-1.9,0.9-1.9,2.5v69.3c0,0.5,0.9,1.3,1.9,1.3h52.3c1.1,0,1.9-0.9,1.9-1.3V31.5
	c0-0.9-0.1-1.2-0.3-1.4L62.6,14.9C62.4,14.7,62.1,14.6,61.8,14.6L61.8,14.6z M61.8,14.6"/>
<path class="st1" d="M62.5,14.8v15.5h15.5L62.5,14.8z M62.5,14.8"/>
<path d="M76.2,87.7H23.9c-1.1,0-1.9-0.9-1.9-1.9V65.5h56.1v20.3C78.1,86.8,77.3,87.7,76.2,87.7L76.2,87.7z M76.2,87.7"/>
</svg>
