<svg id="Vrstva_1" data-name="Vrstva 1" xmlns="http://www.w3.org/2000/svg" viewBox="0 0 100 100"><defs><style>.cls-1{fill:#f2f2f2;}.cls-1,.cls-2{stroke:#000;stroke-miterlimit:10;stroke-width:0.25px;}.cls-2{fill:#e6e6e6;}.cls-3{fill:#fff;}</style></defs><path class="cls-1" d="M63.33,14.26H25.45c-1.06,0-1.91.85-1.91,2.51v69.3c0,.45.85,1.3,1.91,1.3H77.76c1.06,0,1.91-.85,1.91-1.3V31.21c0-.92-.12-1.21-.33-1.42L64.15,14.6a1.15,1.15,0,0,0-.82-.34Zm0,0"/><path class="cls-2" d="M64,14.46V29.93H79.47Zm0,0"/><path d="M45.73,33.1a6,6,0,1,1-6-6,6,6,0,0,1,6,6Zm0,0"/><path d="M23.54,65.18H79.67V50.81l-13-12.39-13.71,15-7.16-7.16Zm0,0"/><path d="M77.76,87.37H25.45a1.9,1.9,0,0,1-1.91-1.91V65.18H79.67V85.46a1.9,1.9,0,0,1-1.91,1.91Zm0,0"/><path class="cls-3" d="M43,69.94V80.19a3.33,3.33,0,0,1-.33,1.56,2.8,2.8,0,0,1-.92,1,3.4,3.4,0,0,1-1.31.54,7.68,7.68,0,0,1-1.52.15,6.59,6.59,0,0,1-.93-.07,9.27,9.27,0,0,1-1.08-.25q-.57-.18-1.08-.39a3.82,3.82,0,0,1-.88-.48l.91-1.45a2,2,0,0,0,.51.26,6,6,0,0,0,.72.25c.27.08.54.14.83.21a4.67,4.67,0,0,0,.8.09,2.7,2.7,0,0,0,1.5-.37,1.43,1.43,0,0,0,.6-1.24V69.94Zm0,0"/><path class="cls-3" d="M48.36,83.36H46.22V70.21H50a5.29,5.29,0,0,1,1.66.27,4.56,4.56,0,0,1,1.47.8,4.18,4.18,0,0,1,1.06,1.3,3.64,3.64,0,0,1,.4,1.7,4.75,4.75,0,0,1-.34,1.81,3.83,3.83,0,0,1-1,1.37,4.29,4.29,0,0,1-1.46.85,5.47,5.47,0,0,1-1.89.3H48.36Zm0-11.52v5.21h2a2.38,2.38,0,0,0,.78-.14,2,2,0,0,0,.71-.43,2.41,2.41,0,0,0,.52-.85,4.34,4.34,0,0,0,.19-1.35,3.61,3.61,0,0,0-.09-.74,2,2,0,0,0-.37-.8,2.07,2.07,0,0,0-.77-.65A3,3,0,0,0,50,71.84Zm0,0"/><path class="cls-3" d="M66.62,76.58v5.09a3.62,3.62,0,0,1-.92.84,5.16,5.16,0,0,1-1.07.55,5.07,5.07,0,0,1-1.16.3,6.81,6.81,0,0,1-1.19.09A5.56,5.56,0,0,1,60.11,83a5,5,0,0,1-1.73-1.27,6,6,0,0,1-1.16-2.11,10.6,10.6,0,0,1,0-5.84,6.06,6.06,0,0,1,1.16-2.1,5.17,5.17,0,0,1,1.74-1.28A5.38,5.38,0,0,1,62.28,70a5.64,5.64,0,0,1,2,.36,5,5,0,0,1,1.66,1.07l-1.49,1.32a2.48,2.48,0,0,0-1-.74,2.81,2.81,0,0,0-1.14-.24,3,3,0,0,0-1.25.26,2.57,2.57,0,0,0-1.07.84,4.39,4.39,0,0,0-.74,1.55A8.88,8.88,0,0,0,59,76.73a9.79,9.79,0,0,0,.27,2.32,5,5,0,0,0,.72,1.6,3,3,0,0,0,1,.93,2.59,2.59,0,0,0,1.22.3l.52,0a5.13,5.13,0,0,0,.67-.09,4.85,4.85,0,0,0,.63-.16.88.88,0,0,0,.44-.31V78.05H62.26V76.58Zm0,0"/></svg>