<svg id="Vrstva_1" data-name="Vrstva 1" xmlns="http://www.w3.org/2000/svg" viewBox="0 0 100 100"><defs><style>.cls-1{fill:#f2f2f2;}.cls-1,.cls-2{stroke:#000;stroke-miterlimit:10;stroke-width:0.25px;}.cls-2{fill:#e6e6e6;}.cls-3{fill:#fff;}</style></defs><path class="cls-1" d="M64.22,15H26.34c-1.06,0-1.92.85-1.92,2.51V86.75a2,2,0,0,0,1.92,1.31H78.65a2,2,0,0,0,1.91-1.31V31.89c0-.91-.12-1.2-.33-1.41L65,15.29a1.15,1.15,0,0,0-.82-.34Zm0,0"/><path class="cls-2" d="M64.9,15.15V30.62H80.36Zm0,0"/><path d="M78.65,88.06H26.34a1.92,1.92,0,0,1-1.92-1.91V65.86H80.56V86.15a1.92,1.92,0,0,1-1.91,1.91Zm0,0"/><path d="M62.51,34.51a15.18,15.18,0,0,0-3-3.06c-5.11-4.1-6.21-8.2-6.34-8.8V21.48a1.31,1.31,0,1,0-2.62,0v24H45.7c-5.07,0-8.22,2.56-8.22,6.69,0,4.52,2.92,7.44,7.45,7.44a8.22,8.22,0,0,0,8.22-8.21v-15l.39.31a18.54,18.54,0,0,0,2,1.58c3,2.23,8.1,6,6.82,10.17a1.29,1.29,0,0,0,.87,1.63,1.21,1.21,0,0,0,.38.06,1.3,1.3,0,0,0,1.25-.93,16.64,16.64,0,0,0-2.33-14.76Zm-12,16.92a5.6,5.6,0,0,1-5.6,5.6c-3.08,0-4.84-1.76-4.84-4.83,0-3.37,3-4.08,5.61-4.08h4.83Zm6.54-15.19a20.53,20.53,0,0,1-1.79-1.41l-2.13-1.75V28.55a24.61,24.61,0,0,0,4.71,4.94A12.75,12.75,0,0,1,60.38,36a14.41,14.41,0,0,1,2.34,5.2,31,31,0,0,0-5.65-5Zm0,0"/><path class="cls-3" d="M45.18,71h2.18V84.14H45.18v-9l-3,7.32H40.35l-3-7.32v9H35.2V71h2.18l3.91,9Zm0,0"/><path class="cls-3" d="M52.76,84.14H50.62V71h3.79a5.25,5.25,0,0,1,1.66.27,4.21,4.21,0,0,1,1.47.8,4.26,4.26,0,0,1,1.05,1.29A3.57,3.57,0,0,1,59,75.06a4.73,4.73,0,0,1-.34,1.8,3.91,3.91,0,0,1-.95,1.38,4.39,4.39,0,0,1-1.46.85,5.69,5.69,0,0,1-1.9.31H52.76Zm0-11.53v5.21h2a2.36,2.36,0,0,0,.78-.13,1.93,1.93,0,0,0,.7-.44,2.23,2.23,0,0,0,.52-.84,4.09,4.09,0,0,0,.2-1.35,3.53,3.53,0,0,0-.09-.74,2.46,2.46,0,0,0-.37-.81,2.15,2.15,0,0,0-.77-.64,3,3,0,0,0-1.33-.26Zm0,0"/><path class="cls-3" d="M66.35,77.22a2.74,2.74,0,0,1,.85.26,2.88,2.88,0,0,1,.81.61,3.33,3.33,0,0,1,.63,1,3.22,3.22,0,0,1,.25,1.29,4.21,4.21,0,0,1-.26,1.54A3.52,3.52,0,0,1,68,83a3.24,3.24,0,0,1-.89.69,4.82,4.82,0,0,1-1,.38,5.1,5.1,0,0,1-.85.17l-.6,0A10.39,10.39,0,0,1,62.33,84a4,4,0,0,1-1.21-.42l.48-1.53.31.19a1.47,1.47,0,0,0,.4.21,3.92,3.92,0,0,0,.76.16,11.25,11.25,0,0,0,1.32.06A2.32,2.32,0,0,0,66.22,82a2.38,2.38,0,0,0,.61-1.68,2.51,2.51,0,0,0-.55-1.63,2,2,0,0,0-1.63-.66h-1.8l0-1.45h2a1.83,1.83,0,0,0,.76-.2,1.37,1.37,0,0,0,.59-.6,2.72,2.72,0,0,0,.23-1.23,5.45,5.45,0,0,0,0-.68,1.5,1.5,0,0,0-.3-.67,1.9,1.9,0,0,0-.7-.49,3.73,3.73,0,0,0-1.29-.18,4.62,4.62,0,0,0-1.31.15l-.74.24-.63-1.6c.29-.09.65-.18,1.07-.27a8.43,8.43,0,0,1,1.83-.15,5.85,5.85,0,0,1,1.58.21,3.71,3.71,0,0,1,1.32.65,3.26,3.26,0,0,1,.89,1.14,3.82,3.82,0,0,1,.33,1.65,2.6,2.6,0,0,1-.2,1,3.21,3.21,0,0,1-.5.79,3,3,0,0,1-.68.56,2.26,2.26,0,0,1-.69.3Zm0,0"/></svg>