<svg id="Vrstva_1" data-name="Vrstva 1" xmlns="http://www.w3.org/2000/svg" viewBox="0 0 100 100"><defs><style>.cls-1{fill:#f2f2f2;}.cls-1,.cls-3{stroke:#000;stroke-miterlimit:10;stroke-width:0.25px;}.cls-2{fill:#fff;}.cls-3{fill:#e6e6e6;}</style></defs><path class="cls-1" d="M61.33,14.57H23.45c-1.06,0-1.91.86-1.91,2.52V86.38a2,2,0,0,0,1.91,1.31H75.76a2,2,0,0,0,1.91-1.31V31.52c0-.91-.12-1.21-.33-1.42L62.15,14.91a1.15,1.15,0,0,0-.82-.34Zm0,0"/><path d="M75.76,87.69H23.45a1.91,1.91,0,0,1-1.91-1.92V65.49H77.67V85.77a1.91,1.91,0,0,1-1.91,1.92Zm0,0"/><path class="cls-2" d="M42.29,70.61h2.18V83.76H42.29v-9L39.35,82H37.46l-3-7.32v9H32.32V70.61H34.5l3.9,9Zm0,0"/><path class="cls-2" d="M49.88,83.76H47.74V70.61h3.78a5.29,5.29,0,0,1,1.66.27,4.56,4.56,0,0,1,1.47.8A4.18,4.18,0,0,1,55.71,73a3.64,3.64,0,0,1,.4,1.7,4.56,4.56,0,0,1-.34,1.81,3.71,3.71,0,0,1-1,1.37,4.31,4.31,0,0,1-1.46.86,5.68,5.68,0,0,1-1.89.3H49.88Zm0-11.52v5.21h2a2.38,2.38,0,0,0,.78-.14,2,2,0,0,0,.71-.44,2,2,0,0,0,.51-.84,4,4,0,0,0,.2-1.35,3.61,3.61,0,0,0-.09-.74,2,2,0,0,0-.37-.8,2.17,2.17,0,0,0-.77-.65,3,3,0,0,0-1.32-.25Zm0,0"/><path class="cls-2" d="M63.28,80.7H57.59V79l5.69-8.39h2.18V79h1.38v1.7H65.46v3.06H63.28Zm0-1.7V73.11L59.5,79Zm0,0"/><path d="M45,51.13a1.27,1.27,0,0,1-.62-.16,1.31,1.31,0,0,1-.68-1.14V31.54a1.3,1.3,0,0,1,2-1.09L60.1,39.58a1.32,1.32,0,0,1,.6,1.1,1.34,1.34,0,0,1-.6,1.11L45.73,50.92a1.25,1.25,0,0,1-.7.21Zm1.31-17.21V47.44L57,40.68Zm0,0"/><path d="M50.26,60.27A19.59,19.59,0,1,1,69.84,40.68,19.61,19.61,0,0,1,50.26,60.27Zm0-36.55a17,17,0,1,0,17,17,17,17,0,0,0-17-17Zm0,0"/><path class="cls-3" d="M62,14.77V30.24H77.47Zm0,0"/></svg>