<svg id="Vrstva_1" data-name="Vrstva 1" xmlns="http://www.w3.org/2000/svg" viewBox="0 0 100 100"><defs><style>.cls-1{fill:#f2f2f2;}.cls-1,.cls-2{stroke:#000;stroke-miterlimit:10;stroke-width:0.25px;}.cls-2{fill:#e6e6e6;}.cls-3{fill:#fff;}</style></defs><path class="cls-1" d="M61.8,14.57H23.91c-1.06,0-1.91.86-1.91,2.52V86.38a2,2,0,0,0,1.91,1.31H76.23a2,2,0,0,0,1.9-1.31V31.52c0-.91-.12-1.21-.33-1.42L62.61,14.91a1.13,1.13,0,0,0-.81-.34Zm0,0"/><path class="cls-2" d="M62.47,14.77V30.24H77.94Zm0,0"/><path d="M39,58.08a2.09,2.09,0,0,1-1.26-.43,3.12,3.12,0,0,1-1.46-2.92c.24-2.13,2.87-4.35,7.82-6.62a87.54,87.54,0,0,0,4.94-14c-1.3-2.83-2.57-6.51-1.65-8.66a2.52,2.52,0,0,1,1.48-1.59,6.4,6.4,0,0,1,1.33-.23c.66,0,1.23.85,1.65,1.37s1.26,1.54-.49,8.89A41.89,41.89,0,0,0,58,43.71a26.41,26.41,0,0,1,4.39-.46c2,0,3.28.47,3.78,1.46a2.63,2.63,0,0,1-.5,2.81,3.47,3.47,0,0,1-2.9,1.56c-1.59,0-3.44-1-5.5-3a62.12,62.12,0,0,0-11.53,3.68,36.29,36.29,0,0,1-3.11,5.55c-1.33,1.88-2.49,2.75-3.63,2.75Zm3.47-6.69c-2.78,1.57-3.92,2.85-4,3.58,0,.12-.05.43.56.91.19-.07,1.33-.58,3.44-4.49Zm17.81-5.8c1.06.82,1.32,1.23,2,1.23a2,2,0,0,0,1.58-.58,2.06,2.06,0,0,0,.3-.54c-.16-.08-.38-.25-1.54-.25a19.28,19.28,0,0,0-2.36.14ZM50.51,37A92.8,92.8,0,0,1,47,46.87a64.59,64.59,0,0,1,8.47-2.63,45.76,45.76,0,0,1-5-7.25Zm-.79-11a3.14,3.14,0,0,0,.13,4.2c1.24-2.76-.07-4.22-.13-4.2Zm0,0"/><path d="M76.23,87.69H23.91A1.91,1.91,0,0,1,22,85.77V65.49H78.13V85.77a1.91,1.91,0,0,1-1.9,1.92Zm0,0"/><path class="cls-3" d="M36.21,83.76H34.07V70.61h3.78a5.29,5.29,0,0,1,1.66.27,4.56,4.56,0,0,1,1.47.8A4,4,0,0,1,42,73a3.53,3.53,0,0,1,.41,1.7,4.56,4.56,0,0,1-.34,1.81,3.81,3.81,0,0,1-.94,1.37,4.46,4.46,0,0,1-1.47.86,5.68,5.68,0,0,1-1.89.3H36.21Zm0-11.52v5.21h2a2.38,2.38,0,0,0,.78-.14,1.91,1.91,0,0,0,.71-.44,2.07,2.07,0,0,0,.51-.84,4,4,0,0,0,.2-1.35,3.61,3.61,0,0,0-.09-.74,2,2,0,0,0-.37-.8,2.17,2.17,0,0,0-.77-.65,3,3,0,0,0-1.33-.25Zm0,0"/><path class="cls-3" d="M55.57,76.82a9.78,9.78,0,0,1-.34,2.78,6.78,6.78,0,0,1-.89,1.93,4.5,4.5,0,0,1-1.2,1.22,6.15,6.15,0,0,1-1.29.67,6,6,0,0,1-1.14.29,6.83,6.83,0,0,1-.78.05H45V70.61h4a7.48,7.48,0,0,1,2.91.53,6,6,0,0,1,2.09,1.4,5.77,5.77,0,0,1,1.25,2,6.65,6.65,0,0,1,.4,2.29ZM49.22,82.2a3.56,3.56,0,0,0,3.14-1.39,7,7,0,0,0,1-4,6.77,6.77,0,0,0-.19-1.62,3.42,3.42,0,0,0-.76-1.46,4,4,0,0,0-1.52-1,6.58,6.58,0,0,0-2.5-.4H47.1v10Zm0,0"/><path class="cls-3" d="M60.86,72.24v4.14h5.5v1.46h-5.5v5.92H58.68V70.61h8.23v1.63Zm0,0"/></svg>