<svg id="Vrstva_1" data-name="Vrstva 1" xmlns="http://www.w3.org/2000/svg" xmlns:xlink="http://www.w3.org/1999/xlink" viewBox="0 0 100 100"><defs><style>.cls-1,.cls-2{fill:none;}.cls-2{stroke:#1d1d1b;stroke-linecap:square;stroke-width:0.3px;}.cls-3,.cls-4{stroke:#000;stroke-miterlimit:10;stroke-width:0.25px;}.cls-3{fill:url(#USGS_8_Sewage_Disposal);}.cls-4{fill:#e6e6e6;}.cls-5{fill:#fff;}</style><pattern id="USGS_8_Sewage_Disposal" data-name="USGS 8 Sewage Disposal" width="72" height="74.8" patternUnits="userSpaceOnUse" viewBox="0 0 72 74.8"><rect class="cls-1" width="72" height="74.8"/><line class="cls-2" x1="72" y1="73.95" x2="144" y2="73.95"/><line class="cls-2" x1="72" y1="72.25" x2="144" y2="72.25"/><line class="cls-2" x1="72" y1="70.55" x2="144" y2="70.55"/><line class="cls-2" x1="72" y1="68.85" x2="144" y2="68.85"/><line class="cls-2" x1="72" y1="67.15" x2="144" y2="67.15"/><line class="cls-2" x1="72" y1="65.45" x2="144" y2="65.45"/><line class="cls-2" x1="72" y1="63.75" x2="144" y2="63.75"/><line class="cls-2" x1="72" y1="62.05" x2="144" y2="62.05"/><line class="cls-2" x1="72" y1="60.35" x2="144" y2="60.35"/><line class="cls-2" x1="72" y1="58.65" x2="144" y2="58.65"/><line class="cls-2" x1="72" y1="56.95" x2="144" y2="56.95"/><line class="cls-2" x1="72" y1="55.25" x2="144" y2="55.25"/><line class="cls-2" x1="72" y1="53.55" x2="144" y2="53.55"/><line class="cls-2" x1="72" y1="51.85" x2="144" y2="51.85"/><line class="cls-2" x1="72" y1="50.15" x2="144" y2="50.15"/><line class="cls-2" x1="72" y1="48.45" x2="144" y2="48.45"/><line class="cls-2" x1="72" y1="46.75" x2="144" y2="46.75"/><line class="cls-2" x1="72" y1="45.05" x2="144" y2="45.05"/><line class="cls-2" x1="72" y1="43.35" x2="144" y2="43.35"/><line class="cls-2" x1="72" y1="41.65" x2="144" y2="41.65"/><line class="cls-2" x1="72" y1="39.95" x2="144" y2="39.95"/><line class="cls-2" x1="72" y1="38.25" x2="144" y2="38.25"/><line class="cls-2" x1="72" y1="36.55" x2="144" y2="36.55"/><line class="cls-2" x1="72" y1="34.85" x2="144" y2="34.85"/><line class="cls-2" x1="72" y1="33.15" x2="144" y2="33.15"/><line class="cls-2" x1="72" y1="31.45" x2="144" y2="31.45"/><line class="cls-2" x1="72" y1="29.75" x2="144" y2="29.75"/><line class="cls-2" x1="72" y1="28.05" x2="144" y2="28.05"/><line class="cls-2" x1="72" y1="26.35" x2="144" y2="26.35"/><line class="cls-2" x1="72" y1="24.65" x2="144" y2="24.65"/><line class="cls-2" x1="72" y1="22.95" x2="144" y2="22.95"/><line class="cls-2" x1="72" y1="21.25" x2="144" y2="21.25"/><line class="cls-2" x1="72" y1="19.55" x2="144" y2="19.55"/><line class="cls-2" x1="72" y1="17.85" x2="144" y2="17.85"/><line class="cls-2" x1="72" y1="16.15" x2="144" y2="16.15"/><line class="cls-2" x1="72" y1="14.45" x2="144" y2="14.45"/><line class="cls-2" x1="72" y1="12.75" x2="144" y2="12.75"/><line class="cls-2" x1="72" y1="11.05" x2="144" y2="11.05"/><line class="cls-2" x1="72" y1="9.35" x2="144" y2="9.35"/><line class="cls-2" x1="72" y1="7.65" x2="144" y2="7.65"/><line class="cls-2" x1="72" y1="5.95" x2="144" y2="5.95"/><line class="cls-2" x1="72" y1="4.25" x2="144" y2="4.25"/><line class="cls-2" x1="72" y1="2.55" x2="144" y2="2.55"/><line class="cls-2" x1="72" y1="0.85" x2="144" y2="0.85"/><line class="cls-2" y1="73.95" x2="72" y2="73.95"/><line class="cls-2" y1="72.25" x2="72" y2="72.25"/><line class="cls-2" y1="70.55" x2="72" y2="70.55"/><line class="cls-2" y1="68.85" x2="72" y2="68.85"/><line class="cls-2" y1="67.15" x2="72" y2="67.15"/><line class="cls-2" y1="65.45" x2="72" y2="65.45"/><line class="cls-2" y1="63.75" x2="72" y2="63.75"/><line class="cls-2" y1="62.05" x2="72" y2="62.05"/><line class="cls-2" y1="60.35" x2="72" y2="60.35"/><line class="cls-2" y1="58.65" x2="72" y2="58.65"/><line class="cls-2" y1="56.95" x2="72" y2="56.95"/><line class="cls-2" y1="55.25" x2="72" y2="55.25"/><line class="cls-2" y1="53.55" x2="72" y2="53.55"/><line class="cls-2" y1="51.85" x2="72" y2="51.85"/><line class="cls-2" y1="50.15" x2="72" y2="50.15"/><line class="cls-2" y1="48.45" x2="72" y2="48.45"/><line class="cls-2" y1="46.75" x2="72" y2="46.75"/><line class="cls-2" y1="45.05" x2="72" y2="45.05"/><line class="cls-2" y1="43.35" x2="72" y2="43.35"/><line class="cls-2" y1="41.65" x2="72" y2="41.65"/><line class="cls-2" y1="39.95" x2="72" y2="39.95"/><line class="cls-2" y1="38.25" x2="72" y2="38.25"/><line class="cls-2" y1="36.55" x2="72" y2="36.55"/><line class="cls-2" y1="34.85" x2="72" y2="34.85"/><line class="cls-2" y1="33.15" x2="72" y2="33.15"/><line class="cls-2" y1="31.45" x2="72" y2="31.45"/><line class="cls-2" y1="29.75" x2="72" y2="29.75"/><line class="cls-2" y1="28.05" x2="72" y2="28.05"/><line class="cls-2" y1="26.35" x2="72" y2="26.35"/><line class="cls-2" y1="24.65" x2="72" y2="24.65"/><line class="cls-2" y1="22.95" x2="72" y2="22.95"/><line class="cls-2" y1="21.25" x2="72" y2="21.25"/><line class="cls-2" y1="19.55" x2="72" y2="19.55"/><line class="cls-2" y1="17.85" x2="72" y2="17.85"/><line class="cls-2" y1="16.15" x2="72" y2="16.15"/><line class="cls-2" y1="14.45" x2="72" y2="14.45"/><line class="cls-2" y1="12.75" x2="72" y2="12.75"/><line class="cls-2" y1="11.05" x2="72" y2="11.05"/><line class="cls-2" y1="9.35" x2="72" y2="9.35"/><line class="cls-2" y1="7.65" x2="72" y2="7.65"/><line class="cls-2" y1="5.95" x2="72" y2="5.95"/><line class="cls-2" y1="4.25" x2="72" y2="4.25"/><line class="cls-2" y1="2.55" x2="72" y2="2.55"/><line class="cls-2" y1="0.85" x2="72" y2="0.85"/><line class="cls-2" x1="-72" y1="73.95" y2="73.95"/><line class="cls-2" x1="-72" y1="72.25" y2="72.25"/><line class="cls-2" x1="-72" y1="70.55" y2="70.55"/><line class="cls-2" x1="-72" y1="68.85" y2="68.85"/><line class="cls-2" x1="-72" y1="67.15" y2="67.15"/><line class="cls-2" x1="-72" y1="65.45" y2="65.45"/><line class="cls-2" x1="-72" y1="63.75" y2="63.75"/><line class="cls-2" x1="-72" y1="62.05" y2="62.05"/><line class="cls-2" x1="-72" y1="60.35" y2="60.35"/><line class="cls-2" x1="-72" y1="58.65" y2="58.65"/><line class="cls-2" x1="-72" y1="56.95" y2="56.95"/><line class="cls-2" x1="-72" y1="55.25" y2="55.25"/><line class="cls-2" x1="-72" y1="53.55" y2="53.55"/><line class="cls-2" x1="-72" y1="51.85" y2="51.85"/><line class="cls-2" x1="-72" y1="50.15" y2="50.15"/><line class="cls-2" x1="-72" y1="48.45" y2="48.45"/><line class="cls-2" x1="-72" y1="46.75" y2="46.75"/><line class="cls-2" x1="-72" y1="45.05" y2="45.05"/><line class="cls-2" x1="-72" y1="43.35" y2="43.35"/><line class="cls-2" x1="-72" y1="41.65" y2="41.65"/><line class="cls-2" x1="-72" y1="39.95" y2="39.95"/><line class="cls-2" x1="-72" y1="38.25" y2="38.25"/><line class="cls-2" x1="-72" y1="36.55" y2="36.55"/><line class="cls-2" x1="-72" y1="34.85" y2="34.85"/><line class="cls-2" x1="-72" y1="33.15" y2="33.15"/><line class="cls-2" x1="-72" y1="31.45" y2="31.45"/><line class="cls-2" x1="-72" y1="29.75" y2="29.75"/><line class="cls-2" x1="-72" y1="28.05" y2="28.05"/><line class="cls-2" x1="-72" y1="26.35" y2="26.35"/><line class="cls-2" x1="-72" y1="24.65" y2="24.65"/><line class="cls-2" x1="-72" y1="22.95" y2="22.95"/><line class="cls-2" x1="-72" y1="21.25" y2="21.25"/><line class="cls-2" x1="-72" y1="19.55" y2="19.55"/><line class="cls-2" x1="-72" y1="17.85" y2="17.85"/><line class="cls-2" x1="-72" y1="16.15" y2="16.15"/><line class="cls-2" x1="-72" y1="14.45" y2="14.45"/><line class="cls-2" x1="-72" y1="12.75" y2="12.75"/><line class="cls-2" x1="-72" y1="11.05" y2="11.05"/><line class="cls-2" x1="-72" y1="9.35" y2="9.35"/><line class="cls-2" x1="-72" y1="7.65" y2="7.65"/><line class="cls-2" x1="-72" y1="5.95" y2="5.95"/><line class="cls-2" x1="-72" y1="4.25" y2="4.25"/><line class="cls-2" x1="-72" y1="2.55" y2="2.55"/><line class="cls-2" x1="-72" y1="0.85" y2="0.85"/></pattern></defs><path class="cls-3" d="M62.22,14.57H24.34c-1.06,0-1.92.86-1.92,2.52V86.38a2,2,0,0,0,1.92,1.31H76.65a2,2,0,0,0,1.91-1.31V31.52c0-.91-.12-1.21-.33-1.42L63,14.91a1.15,1.15,0,0,0-.82-.34Zm0,0"/><path d="M76.65,87.69H24.34a1.92,1.92,0,0,1-1.92-1.92V65.49H78.56V85.77a1.92,1.92,0,0,1-1.91,1.92Zm0,0"/><path class="cls-4" d="M62.9,14.77V30.24H78.36Zm0,0"/><path class="cls-5" d="M36.63,83.76H34.49V70.61h3.79a5.23,5.23,0,0,1,1.65.27,4.71,4.71,0,0,1,1.48.8A4.3,4.3,0,0,1,42.46,73a3.53,3.53,0,0,1,.4,1.7,4.56,4.56,0,0,1-.34,1.81,3.81,3.81,0,0,1-.94,1.37,4.36,4.36,0,0,1-1.47.86,5.63,5.63,0,0,1-1.89.3H36.63Zm0-11.52v5.21h2a2.28,2.28,0,0,0,.77-.14,1.84,1.84,0,0,0,.71-.44A2.2,2.2,0,0,0,40.6,76a4,4,0,0,0,.2-1.35,4.48,4.48,0,0,0-.09-.74,2.32,2.32,0,0,0-.37-.8,2.21,2.21,0,0,0-.78-.65,2.9,2.9,0,0,0-1.32-.25Zm0,0"/><path class="cls-5" d="M54.82,70.61V83.76H52.65L47.49,74.7v9.06H45.31V70.61h2.18l5.16,9.07V70.61Zm0,0"/><path class="cls-5" d="M67.67,77v5.09a3.68,3.68,0,0,1-.92.85,6,6,0,0,1-1.07.55,5.06,5.06,0,0,1-1.16.29,6.7,6.7,0,0,1-1.18.09,5.49,5.49,0,0,1-2.17-.42,4.88,4.88,0,0,1-1.73-1.27,6,6,0,0,1-1.17-2.11,10.36,10.36,0,0,1,0-5.84,6.07,6.07,0,0,1,1.17-2.1,4.88,4.88,0,0,1,1.73-1.27,5.26,5.26,0,0,1,2.17-.44,5.76,5.76,0,0,1,2,.35A5.1,5.1,0,0,1,67,71.82l-1.48,1.33a2.42,2.42,0,0,0-1-.75,3,3,0,0,0-1.14-.24,3.37,3.37,0,0,0-1.26.25,2.68,2.68,0,0,0-1.07.85,4.39,4.39,0,0,0-.74,1.55A9.33,9.33,0,0,0,60,77.13a10.3,10.3,0,0,0,.28,2.32,4.83,4.83,0,0,0,.71,1.6,3,3,0,0,0,1,.93,2.6,2.6,0,0,0,1.22.31l.53,0a5,5,0,0,0,.66-.09A3.23,3.23,0,0,0,65.1,82a.91.91,0,0,0,.45-.31V78.45H63.32V77Zm0,0"/><path d="M44.62,33.41a6,6,0,1,1-6-6,6,6,0,0,1,6,6Zm0,0"/><path d="M22.42,65.49H78.56V51.13L65.5,38.73l-13.7,15-7.16-7.16Zm0,0"/></svg>