<?xml version="1.0" encoding="UTF-8" standalone="no"?>
<!-- Created with Inkscape (http://www.inkscape.org/) -->

<svg
   version="1.1"
   id="svg2"
   width="266.66666"
   height="266.66666"
   viewBox="0 0 266.66666 266.66666"
   xmlns="http://www.w3.org/2000/svg"
   xmlns:svg="http://www.w3.org/2000/svg">
  <defs
     id="defs6" />
  <g
     id="g8">
    <path
       id="path134"
       style="fill:#ffffff;stroke:none;stroke-width:1.33333"
       d="M 129.27344,3.8847656 C 112.65463,4.472065 96.018747,9.3984091 82.339844,18.984375 68.428699,28.780707 58.404446,43.617517 53.572266,59.855469 c -4.558234,14.810714 -5.466399,30.420442 -5.682847,45.822401 -0.124327,7.05947 -0.04051,14.12841 -0.441154,21.17907 -0.127546,1.29906 -0.425443,2.57467 -0.780296,3.82861 -0.118136,0.42861 -0.372032,1.20922 -0.552392,1.7695 -2.598531,7.69465 -5.430158,15.36914 -6.748205,23.41516 -2.853884,16.49823 -0.207194,33.68939 6.370587,49.00428 7.347947,17.10128 19.800868,31.96902 35.387583,42.15094 17.906008,11.76465 39.825568,17.53345 61.197758,15.3884 23.75247,-2.31807 46.43419,-13.96781 62.20216,-31.87556 13.98872,-15.79155 22.78118,-36.29225 23.82353,-57.41969 0.57829,-11.37496 -1.22762,-22.84915 -5.18969,-33.52363 -1.31693,-3.80533 -2.89038,-7.56076 -3.62813,-11.53457 -0.10058,-1.17367 -0.17165,-2.40666 -0.20695,-3.46866 -0.33057,-14.43107 -0.11275,-28.916423 -1.83336,-43.273651 C 215.95675,68.075849 212.54843,54.891965 206.07943,43.163575 201.00809,33.860446 193.94316,25.625682 185.35997,19.392441 175.8469,12.394873 164.66616,7.7986856 153.0737,5.6585844 145.23816,4.1762262 137.23699,3.7181031 129.27344,3.8847656 Z" />
    <path
       style="fill:#df2b37;stroke:none;stroke-width:1.33333"
       d="m 122.15384,40.73322 c -45.239989,8.534933 -36.802129,55.197998 -38.724259,88.70986 -0.8232,14.352 -9.89253,26.05067 -9.2232,41.33333 1.5312,34.97067 34.923459,61.36267 69.280799,55.17867 27.972,-5.03334 49.76933,-30.25867 48.988,-59.17867 -0.348,-12.892 -8.22534,-23.696 -8.93067,-36 -1.936,-33.763592 6.228,-84.642924 -41.39067,-90.42079 -6.31066,-0.7656 -13.74946,-0.8016 -20,0.3776 m 41.33334,75.37653 c -24.116,-6.89414 -35.93374,-6.87987 -60,0 0,-12.714 -2.49747,-28.234265 3.10386,-39.999998 9.7908,-20.565466 40.06014,-21.545866 52.1468,-2.647067 7.63734,11.944 4.74934,29.127465 4.74934,42.647065 m -30.66667,12.608 c 50.06267,-1.30694 51.28,76.33066 1.33333,78.00133 -50.655589,1.69333 -52.195189,-76.67347 -1.33333,-78.00133 m -1.33333,22.804 c -22.09827,2.628 -16.3852,36.132 5.33333,32.28266 20.04267,-3.55333 14.848,-34.684 -5.33333,-32.28266 z"
       id="path12" />
  </g>
</svg>
