<?xml version="1.0" encoding="UTF-8" standalone="no"?>
<!-- Created with Inkscape (http://www.inkscape.org/) -->

<svg
   version="1.1"
   id="svg2"
   width="266.66666"
   height="266.66666"
   viewBox="0 0 266.66666 266.66666"
   xmlns="http://www.w3.org/2000/svg"
   xmlns:svg="http://www.w3.org/2000/svg">
  <defs
     id="defs6" />
  <g
     id="g8">
    <path
       id="path490"
       style="fill:#ffffff;stroke:none;stroke-width:1.33333"
       d="M 131.84766,0.38085938 C 107.78707,0.84287115 84.018176,11.160287 67.444691,28.644647 54.169896,42.504566 46.346415,61.079444 44.304129,80.059772 c -1.300502,11.890045 -0.759618,23.868158 -0.970033,35.802708 -0.02348,3.9625 -0.04695,7.92501 -0.07042,11.88752 -7.878509,17.80307 -10.703291,37.92093 -7.359647,57.14494 3.662892,21.68522 14.846056,42.09534 31.453226,56.56238 15.53492,13.71451 35.457589,22.38564 56.097199,24.31632 15.09714,1.50621 30.52439,-0.4383 44.76463,-5.68089 16.85414,-6.15786 32.11235,-16.91682 43.05679,-31.19156 16.84396,-21.77249 24.06245,-50.65759 19.5647,-77.8033 -1.38657,-8.51671 -3.92854,-16.82284 -7.32068,-24.74964 -0.46863,-1.67723 -0.17225,-3.35091 -0.19275,-5.04478 0.30064,-8.17687 0.70239,-16.35554 0.62104,-24.540123 -0.0994,-10.651468 -1.18109,-21.356708 -4.11723,-31.623986 C 216.01883,51.568363 209.18447,38.761293 199.48256,28.482932 185.5482,13.48107 166.22278,3.5932437 145.8851,1.1611877 141.2335,0.55576746 136.53692,0.32376013 131.84766,0.38085938 Z" />
    <path
       style="fill:#26d26f;stroke:none;stroke-width:1.33333"
       d="m 83.443628,97.237065 c 6.66666,0 13.33333,0 19.999992,0 -0.12097,-16.566451 11.15748,-34.788415 28.57359,-36.930672 16.03102,-1.282981 29.96123,13.445461 31.20619,28.863234 0.25929,8.097067 2.0807,21.458383 -1.26467,26.306593 -15.54154,-4.87245 -32.70621,-9.58484 -48.56782,-3.21004 -27.884372,9.53404 -44.642412,41.94738 -37.115842,70.28472 5.08489,22.04313 24.466382,39.41398 46.716802,42.79749 23.26953,4.32419 49.21828,-6.14788 60.86493,-27.21758 10.07391,-17.03244 11.17504,-38.94893 2.44548,-56.76525 -5.09217,-11.90641 -2.28262,-25.09562 -2.4171,-37.61528 C 184.66061,86.856878 182.45393,68.340004 170.07511,55.644251 152.46463,36.120758 119.5523,35.454756 100.189,52.743903 87.969728,62.376264 83.411018,78.329086 83.489668,93.330297 c -0.0325,1.301984 -0.046,2.604396 -0.046,3.906768 z m 42.666652,32.401195 c 15.23893,-2.83605 31.71684,4.51253 39.22271,18.1856 9.60006,15.8551 8.01802,39.31675 -7.4646,50.9495 -14.90175,11.17285 -38.53661,10.8534 -51.22156,-3.64662 -13.923332,-15.04842 -15.877502,-41.6865 -0.42828,-56.38966 5.41294,-5.11253 12.58241,-8.05114 19.89173,-9.09882 z m 1.33854,23.13613 c -9.16877,2.13684 -13.1787,13.4554 -8.59846,21.3574 4.30895,10.30606 18.77274,12.88667 26.78871,5.4691 10.41299,-9.45225 0.77322,-28.50804 -12.67115,-27.73702 -1.87272,0.0136 -3.73652,0.34353 -5.5191,0.91052 z"
       id="path248" />
    <path
       style="fill:#000000;stroke-width:1.33333"
       id="path128"
       d="" />
    <path
       style="fill:#000000;stroke-width:1.33333"
       id="path108"
       d="" />
    <path
       style="fill:#000000;stroke-width:1.33333"
       id="path88"
       d="" />
  </g>
</svg>
