<?xml version="1.0" encoding="UTF-8" standalone="no"?>
<!-- Created with Inkscape (http://www.inkscape.org/) -->

<svg
   version="1.1"
   id="svg2"
   width="266.66666"
   height="266.66666"
   viewBox="0 0 266.66666 266.66666"
   xmlns="http://www.w3.org/2000/svg"
   xmlns:svg="http://www.w3.org/2000/svg">
  <defs
     id="defs6" />
  <g
     id="g8">
    <path
       id="path112"
       style="fill:#ffffff;stroke:none;stroke-width:1.33333"
       d="M 139.83203,0.54296875 C 127.99357,4.8174186 116.01955,8.7157736 104.2832,13.269531 94.313766,17.345279 84.715878,22.928698 77.447956,30.999942 76.9266,31.593398 76.414963,32.196552 75.917969,32.810547 70.204423,30.72983 64.49093,28.648967 58.777344,26.568359 c -3.065639,32.233859 -6.133348,64.467522 -9.201172,96.701171 0.155218,0.47784 0.703617,0.87509 0.68166,1.35354 -2.766993,12.57259 -6.635097,25.00455 -7.386674,37.92915 -1.056485,15.69793 1.947985,31.71743 9.070027,45.77928 7.466117,14.96823 19.283312,27.71194 33.617473,36.32792 19.453462,11.86788 43.303622,16.55496 65.746992,12.3409 22.74576,-4.16617 43.73338,-17.58183 56.73717,-36.74918 15.39478,-22.50197 20.13737,-52.06698 12.10712,-78.16959 -1.61061,-5.17735 -3.90245,-10.1043 -6.23749,-14.98509 -1.24604,-3.13689 -1.07689,-6.5718 -1.30187,-9.87964 -0.29266,-8.0239 0.0507,-16.1997 -0.13923,-24.283798 C 212.25226,80.839025 211.04195,68.565565 206.7547,57.168208 202.46728,45.537572 195.20709,34.941893 185.55036,27.120359 174.47974,17.986115 160.97045,11.893233 146.85756,9.3707734 146.02494,9.232495 145.19485,9.0779782 144.35742,8.9707031 c -0.83268,-3.0468749 -1.66522,-6.0937877 -2.49804,-9.14062498 -0.67579,0.23763021 -1.35157,0.47526042 -2.02735,0.71289063 z" />
    <path
       style="fill:#0679ed;stroke:none;stroke-width:1.33333"
       d="m 133.38109,40.119846 v 14.666666 c 35.42667,4.793867 33.33333,36.256666 33.33333,63.999998 -24.56933,-10.22893 -44.0424,-12.64986 -67.999985,1.33334 v -8 h -14.66667 c 0,21.80266 -11.4048,41.16933 -9.10187,62.66666 5.1032,47.63867 65.321865,68.796 99.648525,35.768 14.94,-14.37466 20.71867,-37.256 15.616,-57.10133 -2.00933,-7.81333 -7.336,-14.73733 -8.54533,-22.66667 -4.972,-32.595332 9.80267,-70.179331 -29.61733,-86.832264 -6.02667,-2.546267 -12.15867,-3.699333 -18.66667,-3.8344 m -25.33333,26.666666 16,-10.666666 -4,-14.666667 c -12.6284,4.300134 -33.474665,16.233867 -12,25.333333 m -21.333325,4 -2.66667,27.999999 h 14.66667 L 101.38109,76.119845 86.714435,70.786512 m 41.333325,59.066938 c 49.364,-7.09734 60.19866,69.41173 10.66666,76.53306 -49.363725,7.09733 -60.198925,-69.412 -10.66666,-76.53306 m -1.32814,21.80373 c -21.48706,6.81867 -9.554,39.708 11.99347,32.92533 22.12533,-6.964 10.01867,-39.912 -11.99347,-32.92533 z"
       id="path12" />
  </g>
</svg>
